<svg xmlns="http://www.w3.org/2000/svg" viewBox="0 0 2000 2000"><defs><style>.cls-1{fill:#fff;}.cls-1,.cls-2,.cls-3{stroke:#44bcce;stroke-linecap:round;stroke-linejoin:round;}.cls-1,.cls-3{stroke-width:4px;}.cls-2{fill:none;stroke-width:2px;}.cls-3{fill:#44bcce;}</style></defs><g id="목"><polyline class="cls-1" points="1012.65 518.07 1012.65 561.32 1057.42 587.98 978.67 623.89 896.86 586.89 943.66 562.82 943.9 518.07 1012.65 518.07"/></g><g id="머리"><path class="cls-1" d="M921.86,437.11S908.19,362.69,967,358.59c1-.07,2.06-.14,3.1-.24,10.35-1.06,82.66-5.52,64.56,79.7,0,0,11.86-8.57,10.41,11.76-.56,7.93-1.45,20.7-14.06,31.86l-.89,11.91s.36,7.93-9,14.77l-22,17.86a23.32,23.32,0,0,1-14.67,5.2H972.51a21.53,21.53,0,0,1-12-3.62l-21.81-14.54a24.72,24.72,0,0,1-11-19.77l-.3-9.26A50.79,50.79,0,0,1,909.39,457C909.05,455.72,902,430.9,921.86,437.11Z"/><path class="cls-2" d="M913.34,453.88s-2.14-15.31,5.17-10.34c2,1.35,7.65,6,7.65,13.92,0,0,.74,8.23-1,9.79a2.62,2.62,0,0,0-.89.22,3.71,3.71,0,0,0-1,6.14,4.41,4.41,0,0,0,3.06,1.11"/><path class="cls-2" d="M925.74,453.83s-5.07,4.93-4.6,10.19"/><path class="cls-2" d="M1040.47,453.88s2.13-15.31-5.18-10.34c-2,1.35-7.64,6-7.64,13.92,0,0-.74,8.23,1,9.79a2.64,2.64,0,0,1,.9.22,3.7,3.7,0,0,1,1,6.14,4.39,4.39,0,0,1-3,1.11"/><path class="cls-2" d="M1028.07,453.83s5.07,4.93,4.59,10.19"/></g><g id="얼굴"><path class="cls-1" d="M969.38,399.47c.92-.06,1.83-.18,2.75-.19,15.28-.08,52.55-2.3,46.35,48.91l-3.27,35.68s.26,5-6.49,9.24l-15.89,11.17a18.46,18.46,0,0,1-10.57,3.25h-8.57a17.32,17.32,0,0,1-8.61-2.26l-15.72-9.1a15.12,15.12,0,0,1-7.93-12.36s-3-18.36-3.09-22.72C937.94,432.08,934.42,401.78,969.38,399.47Z"/></g><g id="어깨"><path class="cls-1" d="M896.86,586.89l-47,1.94a21.93,21.93,0,0,0-15.73,7.65l-19.85,23.25a65.4,65.4,0,0,0-15.64,40.72l-1.55,57.93,60-53.5s3.67-82.56,118.55-42.09Z"/><path class="cls-1" d="M1057.42,588l47,1.95a21.85,21.85,0,0,1,15.73,7.65L1140,620.82a65.43,65.43,0,0,1,15.64,40.73l1.55,57.92-60-53.49s-3.67-82.56-118.55-42.09Z"/></g><g id="팔"><path class="cls-1" d="M829.5,810.24l40-78.89-12.42-66.47-60,53.5s-9.24,16.8-10.68,48.19A108.16,108.16,0,0,1,781,795.7l-2.33,7s-33.88,23.45-34.07,66.78a38.75,38.75,0,0,1-.28,4.94c-1.73,13.89-11.11,81.07-34.28,120.65h20l14.09,16.61a.24.24,0,0,0,.42-.19c-3.5-23.61,52.15-104.1,67.41-125.64a81.84,81.84,0,0,0,7.41-12.66c19.45-41.95,10.1-62.93,10.1-62.93Z"/><path class="cls-1" d="M1210,874.4a40.68,40.68,0,0,1-.29-4.94c-.18-43.33-34.06-66.78-34.06-66.78h-.41l-2.33-7a107.78,107.78,0,0,1-5.36-29.13c-1.44-31.39-10.69-48.19-10.69-48.19l-60-53.5-12.43,66.47,40,78.89.34.18c-.82,2-8.29,22.94,10.17,62.75a81.84,81.84,0,0,0,7.41,12.66c15.15,21.39,70.14,100.92,67.48,125.14a.39.39,0,0,0,.68.3l13.76-16.22h20C1221.1,955.47,1211.72,888.29,1210,874.4Z"/></g><g id="팔꿈치"><polygon class="cls-1" points="786.39 766.57 844.92 779.8 829.5 810.24 778.7 802.68 786.39 766.57"/><polygon class="cls-1" points="1167.63 766.57 1109.09 779.8 1124.52 810.24 1175.32 802.68 1167.63 766.57"/></g><g id="손목"><path class="cls-1" d="M751.39,985.14s-8.65,17.61-6.65,27.2l-14.67-17.29h-20s9.25-18.41,11.25-23.7h17.52Z"/><path class="cls-1" d="M1203.12,985.14s8.65,17.61,6.65,27.2l14.67-17.29h20s-9.25-18.41-11.25-23.7h-17.52Z"/></g><g id="손"><path class="cls-1" d="M748.47,1030.32l-4.39-6.48a8.61,8.61,0,0,1-.75-8.29l1.41-3.21-14.67-17.29h-20l-12.87,49.2a35.42,35.42,0,0,0-.93,4.91l-.77,6.41,31.83,2a1.61,1.61,0,0,1,2.95.82l.22,5h17.36l2.47-25.75A11.13,11.13,0,0,0,748.47,1030.32Z"/><path class="cls-1" d="M1258.23,1049.16a35.42,35.42,0,0,0-.93-4.91l-12.87-49.2h-20l-14.67,17.29,1.41,3.21a8.61,8.61,0,0,1-.75,8.29l-4.39,6.48a11.13,11.13,0,0,0-1.86,7.29l2.9,30.19h16.74l.41-9.44a1.61,1.61,0,0,1,3-.82l4.35,6.58H1260Z"/></g><g id="손가락"><path class="cls-1" d="M731.76,1092.69a7.49,7.49,0,0,0,2.94,5.73c3.51,2.58,9.38,2,12.3-26.1l.86-9H730.5Z"/><path class="cls-1" d="M691.45,1089.35a22.56,22.56,0,0,0-.05,4.86l4.87,50.17a5.66,5.66,0,0,0,4.68,5.15c1.9.27,4-.37,5.46-3.54a11,11,0,0,0,.94-4.73l0-3.9-.44-45.37a11,11,0,0,1,.56-3.61h0a11.25,11.25,0,0,1,1.31-2.73l2.2-3.32,16.39-24.79-31.83-2Z"/><path class="cls-1" d="M707.31,1137.36s8.73-.65,9-12.56a24.64,24.64,0,0,0-.24-3.74l-6-37.24-2.64,4.56h0Z"/><path class="cls-1" d="M1247.19,1137.36s-8.73-.65-9-12.56a24.64,24.64,0,0,1,.24-3.74l6-37.24,2.64,4.56Z"/><path class="cls-1" d="M1207.5,1072.32c2.92,28.08,8.79,28.68,12.3,26.1a7.49,7.49,0,0,0,2.94-5.73l1.07-24.89h-16.74Z"/><path class="cls-1" d="M1263.05,1089.35l-3-25.23h-28.51l12,18.21,2.2,3.32a11.35,11.35,0,0,1,1.88,6.34l-.45,45.37,0,3.9a11,11,0,0,0,.94,4.73c1.46,3.17,3.56,3.81,5.46,3.54a5.66,5.66,0,0,0,4.68-5.15l4.87-50.17A22.56,22.56,0,0,0,1263.05,1089.35Z"/></g><g id="허리"><path class="cls-1" d="M869.48,731.35s17,148,1.7,209.1a13.39,13.39,0,0,0,2.34,11.33l86.23,117.67c4.69,6.23,11.37,10.42,22.64,10.44h0c6.69,0,15.21-5.71,19-12.27,7.67-13.38,51.44-72.57,82.84-114.66,3-4,4.52-10.64,2.84-15.3-4.84-13.4-16.3-81.28-2.61-206.31Z"/><polygon class="cls-1" points="874.98 796.22 876.77 831.87 877.4 868.98 916.61 893.43 916.61 856.71 916.61 856.68 916.61 819.97 916.61 731.35 869.48 731.35 874.98 796.22"/><polygon class="cls-1" points="1041.62 731.35 1041.62 819.97 1041.62 856.68 1041.62 856.71 1041.62 893.43 1080.83 868.98 1081.46 831.87 1083.25 796.22 1084.44 731.35 1041.62 731.35"/></g><g id="배"><polygon class="cls-1" points="979.19 731.35 979.19 778.9 916.61 819.97 916.61 731.35 979.19 731.35"/><path class="cls-1" d="M916.61,856.71s35.23-13.51,62.58-11.88v-65L916.61,820Z"/><path class="cls-1" d="M979.19,898.7s-43.26,6.78-62.58-5.27V856.69s30.73-13.83,62.58-12Z"/><polygon class="cls-1" points="979.04 731.35 979.04 778.9 1041.62 819.97 1041.62 731.35 979.04 731.35"/><path class="cls-1" d="M1041.62,856.71S1006.39,843.2,979,844.83v-65L1041.62,820Z"/><path class="cls-1" d="M979,898.7s43.26,6.78,62.58-5.27V856.69s-30.73-13.83-62.58-12Z"/></g><g id="갈비뼈"><path class="cls-1" d="M869.48,731.35l38.35,16.83a33.66,33.66,0,0,0,23.91,1.19l47.45-12V625.16s-58.38-22.75-87.35-8.83c-.71.34-1.41.69-2.12,1-4.84,2.15-31.19,15.32-32.66,47.54Z"/><path class="cls-1" d="M1084.37,731.35,1046,748.18a33.66,33.66,0,0,1-23.91,1.19l-42.92-12V625.16s53.85-22.75,82.82-8.83c.71.34,1.41.69,2.12,1,4.84,2.15,31.19,15.32,32.66,47.54Z"/></g><g id="골반"><path class="cls-1" d="M979.19,1079.87v-181s-37.79,7.51-62.58-5.43L951,1057.09S962.61,1079.89,979.19,1079.87Z"/><path class="cls-1" d="M877.4,869s.55,43-4.62,63.76c0,0-4.67,13.14,1.24,20.22,1,1.19,2,2.35,2.94,3.6l73.22,99L916.61,893.43Z"/><path class="cls-1" d="M979,1079.87v-181s37.79,7.51,62.58-5.43l-33.33,158.47a40.65,40.65,0,0,1-5.42,13.5C998.36,1072.48,990.36,1081.31,979,1079.87Z"/><path class="cls-1" d="M1080.83,869s-.55,43,4.62,63.76c0,0,4.67,13.14-1.24,20.22-1,1.19-2,2.35-2.94,3.6l-74.08,101.08,34.43-164.21Z"/></g><g id="허벅지"><path class="cls-1" d="M938.29,1036.14l-45.24-57.83L874,953l-18.3,64.74a93.83,93.83,0,0,0-3.53,25.48v185.31l4.87,95.11a14,14,0,0,0,13.64-10.74c2.33-10.16,9.06-24.53,28.35-29.25,0,0,21.53,10.69,24.28,40a7.93,7.93,0,0,0,2.19,4.78l12.59,13.06v-26.84a276.36,276.36,0,0,1,12.35-81.71l8.85-28.63a121.46,121.46,0,0,0,5.15-27.77l6.63-98.42Z"/><path class="cls-1" d="M1100.93,1017.7,1084.21,953l-20.6,25.35-45.24,57.83-32.8,41.92,6.62,98.42a121.46,121.46,0,0,0,5.15,27.77l8.86,28.63a276.68,276.68,0,0,1,12.34,81.71v26.84l12.6-13.06a8,8,0,0,0,2.19-4.78c2.74-29.29,24.27-40,24.27-40,19.29,4.72,26,19.09,28.36,29.25a14,14,0,0,0,13.64,10.74h0l4.86-95.11V1043.18A93.83,93.83,0,0,0,1100.93,1017.7Z"/></g><g id="무릎"><path class="cls-1" d="M857.06,1323.6s3.69,31,.83,45.88a8.22,8.22,0,0,0,1.4,6.38L871,1392a29.37,29.37,0,0,0,23.8,12.15h7a37.29,37.29,0,0,0,18.55-7.91c1.29-1.35,4.18-2.75,4.37-5.41.41-6.12,3.15-15.79,5.12-21.6,1.05-3.12,2.08-6.26,3-9.42l5.32-18.34-10.72-10a15.56,15.56,0,0,1-4.06-7.8c-1.84-9.14-6.43-29.95-24.28-40,0,0-20.09,1-28.39,27-1.35,4.23-2.29,8.75-6.18,10.9Z"/><path class="cls-1" d="M1099.75,1323.6s-3.7,31-.83,45.88a8.18,8.18,0,0,1-1.41,6.38l-11.66,16.1a29.34,29.34,0,0,1-23.8,12.15h-7a37.23,37.23,0,0,1-18.54-7.91c-1.29-1.35-4.19-2.75-4.37-5.41-.42-6.12-3.15-15.79-5.12-21.6-1.06-3.12-2.08-6.26-3-9.42l-5.33-18.34,10.73-10a15.72,15.72,0,0,0,4.06-7.8c1.83-9.14,6.42-29.95,24.27-40,0,0,20.09,1,28.39,27,1.35,4.23,2.3,8.75,6.18,10.9Z"/></g><g id="정강이"><path class="cls-1" d="M927,1476.32l-2.31-85.53s-2.71,8.62-18.59,13c0,0-22.88,4.46-33-9.15l-13.81-18.73-7.1,29.6c-1.16,6.88-3.51,18.71-3.24,25.67,0,0,7.85,85,10,96.81,2.55,14.17,5.93,32.14,6.25,35,7,64.31,0,84.3,0,84.3,2.86-4.45,3-24.71,3-24.71h32.35l-1.43,24.71,3.78-65.28a140.8,140.8,0,0,1,8.81-41.55l8.24-21.89A111.26,111.26,0,0,0,927,1476.32Z"/><path class="cls-1" d="M1068.48,1622.57H1089c-.46-13.18,0-32.43,3-59.59.32-2.9,3.7-20.87,6.25-35,2.11-11.77,10-96.81,10-96.81.27-7-2.08-18.79-3.24-25.67l-7.1-29.6-13.81,18.73c-10.1,13.61-33,9.15-33,9.15-15.88-4.33-18.59-13-18.59-13l-2.31,85.53a111.26,111.26,0,0,0,7.1,42.24l8.24,21.89a140.8,140.8,0,0,1,8.81,41.55l2.52,40.57Z"/></g><g id="아킬레스건_발목_발" data-name="아킬레스건&amp;발목&amp;발"><polygon class="cls-3" points="888.43 1622.57 888.43 1647.28 899.05 1647.28 900.05 1622.57 888.43 1622.57"/><polygon class="cls-3" points="1056.86 1622.57 1058.29 1647.28 1068.48 1647.28 1068.48 1622.57 1056.86 1622.57"/></g><g id="발목"><path class="cls-1" d="M888.43,1622.57h-20.3s-.11,20.26-3,24.71h23.27Z"/><path class="cls-1" d="M1068.48,1647.28H1092s-.09-.26-.24-.8c-1.39-3.21-2-10.46-2.32-16.14-.17-2.32-.31-4.9-.41-7.77h-20.56Z"/></g><g id="발"><path class="cls-1" d="M865.16,1647.28s-15.49,26.84-38.91,36.93c0,0-27,10-21.52,16.84,2,2.56,6.66,3.69,11.44.63,0,0-1.62,3.24,1,5a6.42,6.42,0,0,0,9.27-2.61s-1.62,3.24,1.45,4.5c0,0,5,1.83,7.17-2.49,0,0-.69,2.94,3.27,3.67,0,0,4.51.27,6.49-2.8a3.14,3.14,0,0,0,3.06,3.39,17.53,17.53,0,0,0,10.81-2.67s20.76-14,31.34-17.82a17,17,0,0,1,4.8-.92c3.72-.18,14.53-2,10.33-17.64,0,0-6.62-14.8-6.1-24H865.16Zm-49,54.4s2.16-3.42,3.78-4.5Zm10.26,2.34a18.71,18.71,0,0,1,2-2.34Zm8.62,2s1.29-2.1,2.37-2.46Zm9.76.87s-.18-.51,1.8-2.1Z"/><path class="cls-1" d="M816.17,1701.68l3.78-4.5C818.33,1698.26,816.17,1701.68,816.17,1701.68Z"/><path class="cls-1" d="M828.42,1701.68a18.71,18.71,0,0,0-2,2.34Z"/><path class="cls-1" d="M835.05,1706l2.37-2.46C836.34,1703.93,835.05,1706,835.05,1706Z"/><path class="cls-1" d="M844.81,1706.9l1.8-2.1C844.63,1706.39,844.81,1706.9,844.81,1706.9Z"/><path class="cls-1" d="M1140.92,1701.68s-2.16-3.42-3.78-4.5"/><path class="cls-1" d="M1130.84,1684.21c-23.42-10.09-38.91-36.93-38.91-36.93H1058c.53,9.16-6.1,24-6.1,24-4.2,15.61,6.61,17.46,10.33,17.64a17.14,17.14,0,0,1,4.81.92c10.57,3.79,31.34,17.82,31.34,17.82a17.51,17.51,0,0,0,10.8,2.67c3.4-.46,3.06-3.39,3.06-3.39,2,3.07,6.49,2.8,6.49,2.8,4-.73,3.27-3.67,3.27-3.67,2.16,4.32,7.18,2.49,7.18,2.49,3.06-1.26,1.44-4.5,1.44-4.5a6.42,6.42,0,0,0,9.27,2.61c2.62-1.71,1-5,1-5,4.78,3.06,9.39,1.93,11.44-.63C1157.87,1694.17,1130.84,1684.21,1130.84,1684.21Zm-18.56,22.69-1.8-2.1C1112.47,1706.39,1112.28,1706.9,1112.28,1706.9Zm7.39-3.33c1.08.36,2.37,2.46,2.37,2.46Zm9-1.89a19.12,19.12,0,0,1,2,2.34Z"/><path class="cls-1" d="M1130.66,1704a19.12,19.12,0,0,0-2-2.34Z"/><path class="cls-1" d="M1119.67,1703.57,1122,1706S1120.75,1703.93,1119.67,1703.57Z"/><path class="cls-1" d="M1110.48,1704.8l1.8,2.1S1112.47,1706.39,1110.48,1704.8Z"/><path class="cls-1" d="M1141.84,1701.68l-3.78-4.5C1139.68,1698.26,1141.84,1701.68,1141.84,1701.68Z"/></g></svg>