<svg xmlns="http://www.w3.org/2000/svg" viewBox="0 0 2000 2000"><defs><style>.cls-1{fill:#fff;}.cls-1,.cls-2,.cls-3{stroke:#44bcce;stroke-linecap:round;stroke-linejoin:round;}.cls-1,.cls-3{stroke-width:4px;}.cls-2{fill:none;stroke-width:2px;}.cls-3{fill:#44bcce;}</style></defs><g id="목"><polyline class="cls-1" points="1035.4 483.9 1035.4 527.16 1080.17 553.82 1001.42 589.72 919.61 552.72 966.41 528.65 966.65 483.9 1035.4 483.9"/></g><g id="머리"><path class="cls-1" d="M944.61,403s-13.67-74.42,45.13-78.52c1-.07,2.06-.14,3.1-.25,10.35-1.06,82.66-5.52,64.56,79.7,0,0,11.86-8.56,10.41,11.77-.56,7.92-1.45,20.69-14.06,31.86l-.89,11.91s.36,7.92-9,14.77l-22,17.86a23.31,23.31,0,0,1-14.67,5.19H995.26a21.6,21.6,0,0,1-12-3.61L961.5,479.08a24.72,24.72,0,0,1-11-19.77l-.3-9.26a50.79,50.79,0,0,1-18.05-27.18C931.8,421.56,924.74,396.73,944.61,403Z"/><path class="cls-2" d="M936.09,419.72s-2.14-15.32,5.17-10.34c2,1.34,7.65,6,7.65,13.92,0,0,.74,8.23-1,9.79a2.72,2.72,0,0,0-.89.21,3.71,3.71,0,0,0-1,6.14,4.37,4.37,0,0,0,3.06,1.12"/><path class="cls-2" d="M948.49,419.67s-5.07,4.92-4.6,10.19"/><path class="cls-2" d="M1063.22,419.72s2.13-15.32-5.18-10.34c-2,1.34-7.64,6-7.64,13.92,0,0-.74,8.23,1,9.79a2.8,2.8,0,0,1,.9.21,3.7,3.7,0,0,1,1,6.14,4.34,4.34,0,0,1-3,1.12"/><path class="cls-2" d="M1050.82,419.67s5.07,4.92,4.59,10.19"/></g><g id="얼굴"><path class="cls-1" d="M992.13,365.31c.92-.06,1.83-.19,2.75-.19,15.28-.09,52.55-2.3,46.35,48.91L1038,449.71s.26,5-6.49,9.24l-15.89,11.17a18.46,18.46,0,0,1-10.57,3.25h-8.57a17.22,17.22,0,0,1-8.61-2.27L972.11,462a15.13,15.13,0,0,1-7.93-12.37s-3-18.36-3.09-22.71C960.69,397.92,957.17,367.61,992.13,365.31Z"/></g><g id="어깨"><path class="cls-1" d="M919.61,552.72l-47,1.95a21.85,21.85,0,0,0-15.73,7.65L837,585.56a65.43,65.43,0,0,0-15.64,40.73l-1.55,57.92,60-53.49s3.67-82.57,118.55-42.1Z"/><path class="cls-1" d="M1080.17,553.82l47,1.94a21.93,21.93,0,0,1,15.73,7.65l19.85,23.25a65.4,65.4,0,0,1,15.64,40.72l1.55,57.93-60-53.5s-3.67-82.56-118.55-42.09Z"/></g><g id="팔"><path class="cls-1" d="M852.25,776.08l40-78.9-12.42-66.46-60,53.49s-9.24,16.81-10.68,48.2a108.16,108.16,0,0,1-5.36,29.12l-2.33,7S767.57,792,767.38,835.3a38.86,38.86,0,0,1-.28,4.94c-1.74,13.89-11.11,81.06-34.28,120.64h20l14.09,16.61a.24.24,0,0,0,.42-.18c-3.5-23.61,52.15-104.11,67.41-125.65a80.54,80.54,0,0,0,7.4-12.66c19.46-42,10.11-62.92,10.11-62.92Z"/><path class="cls-1" d="M1232.74,840.24a40.8,40.8,0,0,1-.29-4.94c-.18-43.33-34.06-66.79-34.06-66.79H1198l-2.33-7a107.78,107.78,0,0,1-5.36-29.12c-1.44-31.39-10.69-48.2-10.69-48.2l-60-53.49-12.43,66.46,40,78.9.34.18c-.82,2-8.29,22.94,10.17,62.74a80.59,80.59,0,0,0,7.41,12.66c15.15,21.39,70.14,100.92,67.48,125.15a.38.38,0,0,0,.68.29L1247,960.88h20C1243.84,921.3,1234.47,854.13,1232.74,840.24Z"/></g><g id="팔꿈치"><polygon class="cls-1" points="809.14 732.41 867.67 745.64 852.25 776.08 801.45 768.51 809.14 732.41"/><polygon class="cls-1" points="1190.38 732.41 1131.84 745.64 1147.27 776.08 1198.07 768.51 1190.38 732.41"/></g><g id="손목"><path class="cls-1" d="M774.14,951s-8.65,17.61-6.65,27.21l-14.67-17.3h-20s9.25-18.41,11.25-23.7h17.52Z"/><path class="cls-1" d="M1225.87,951s8.65,17.61,6.65,27.21l14.67-17.3h20s-9.25-18.41-11.25-23.7h-17.52Z"/></g><g id="손"><path class="cls-1" d="M771.22,996.15l-4.39-6.47a8.61,8.61,0,0,1-.75-8.29l1.41-3.21-14.67-17.3h-20L720,1010.08A36,36,0,0,0,719,1015l-.77,6.42,31.83,2a1.61,1.61,0,0,1,2.95.81l.22,5h17.36l2.47-25.75A11.15,11.15,0,0,0,771.22,996.15Z"/><path class="cls-1" d="M1281,1015a36,36,0,0,0-.93-4.91l-12.87-49.2h-20l-14.67,17.3,1.41,3.21a8.61,8.61,0,0,1-.75,8.29l-4.39,6.47a11.15,11.15,0,0,0-1.86,7.29l2.9,30.19h16.74l.41-9.44a1.61,1.61,0,0,1,3-.81l4.35,6.57h28.51Z"/></g><g id="손가락"><path class="cls-1" d="M754.51,1058.52a7.49,7.49,0,0,0,2.94,5.73c3.51,2.58,9.38,2,12.3-26.1l.86-9H753.25Z"/><path class="cls-1" d="M714.2,1055.18a22.66,22.66,0,0,0-.05,4.87l4.87,50.17a5.66,5.66,0,0,0,4.68,5.14c1.9.27,4-.36,5.46-3.53a11,11,0,0,0,.94-4.74l0-3.9-.44-45.36a11.05,11.05,0,0,1,.56-3.62h0a11.25,11.25,0,0,1,1.31-2.73l2.2-3.32,16.39-24.78-31.83-2Z"/><path class="cls-1" d="M730.06,1103.19s8.73-.65,9-12.56a24.43,24.43,0,0,0-.24-3.73l-6-37.25-2.64,4.56h0Z"/><path class="cls-1" d="M1269.94,1103.19s-8.73-.65-9-12.56a24.51,24.51,0,0,1,.24-3.73l6-37.25,2.64,4.56Z"/><path class="cls-1" d="M1230.25,1038.15c2.92,28.09,8.79,28.68,12.3,26.1a7.49,7.49,0,0,0,2.94-5.73l1.07-24.89h-16.74Z"/><path class="cls-1" d="M1285.8,1055.18l-3-25.23h-28.51l12,18.21,2.2,3.32a11.27,11.27,0,0,1,1.87,6.35l-.44,45.36,0,3.9a11,11,0,0,0,.94,4.74c1.46,3.17,3.56,3.8,5.46,3.53a5.66,5.66,0,0,0,4.68-5.14l4.87-50.17A22.66,22.66,0,0,0,1285.8,1055.18Z"/></g><g id="허리"><path class="cls-1" d="M892.23,697.18s17,148,1.7,209.1a13.41,13.41,0,0,0,2.34,11.34l86.23,117.67c4.69,6.22,11.37,10.42,22.64,10.43h0c6.69,0,15.21-5.7,19-12.26,7.67-13.39,51.44-72.58,82.84-114.66,3-4,4.52-10.64,2.84-15.3-4.84-13.4-16.3-81.29-2.61-206.32Z"/><polygon class="cls-1" points="897.73 762.06 899.52 797.7 900.15 834.81 939.36 859.27 939.36 822.55 939.36 822.52 939.36 785.8 939.36 697.18 892.23 697.18 897.73 762.06"/><polygon class="cls-1" points="1064.37 697.18 1064.37 785.8 1064.37 822.52 1064.37 822.55 1064.37 859.27 1103.58 834.81 1104.21 797.7 1106 762.06 1107.19 697.18 1064.37 697.18"/></g><g id="배"><polygon class="cls-1" points="1001.94 697.18 1001.94 744.74 939.36 785.8 939.36 697.18 1001.94 697.18"/><path class="cls-1" d="M939.36,822.55s35.23-13.51,62.58-11.89v-65L939.36,785.8Z"/><path class="cls-1" d="M1001.94,864.53s-43.26,6.78-62.58-5.26V822.52s30.73-13.82,62.58-12Z"/><polygon class="cls-1" points="1001.79 697.18 1001.79 744.74 1064.37 785.8 1064.37 697.18 1001.79 697.18"/><path class="cls-1" d="M1064.37,822.55s-35.23-13.51-62.58-11.89v-65l62.58,40.16Z"/><path class="cls-1" d="M1001.79,864.53s43.26,6.78,62.58-5.26V822.52s-30.73-13.82-62.58-12Z"/></g><g id="갈비뼈"><path class="cls-1" d="M892.23,697.18,930.58,714a33.61,33.61,0,0,0,23.91,1.19l47.45-12.05V591s-58.38-22.75-87.35-8.83c-.71.34-1.41.7-2.12,1-4.84,2.15-31.19,15.32-32.66,47.54Z"/><path class="cls-1" d="M1107.11,697.18,1068.77,714a33.61,33.61,0,0,1-23.91,1.19l-42.92-12.05V591s53.85-22.75,82.82-8.83c.71.34,1.41.7,2.12,1,4.84,2.15,31.19,15.32,32.66,47.54Z"/></g><g id="골반"><path class="cls-1" d="M1001.94,1045.71v-181s-37.79,7.51-62.58-5.43l34.42,163.65S985.36,1045.73,1001.94,1045.71Z"/><path class="cls-1" d="M900.15,834.81s.55,43-4.62,63.76c0,0-4.67,13.14,1.24,20.23,1,1.19,2,2.35,2.94,3.59l73.22,99L939.36,859.27Z"/><path class="cls-1" d="M1001.79,1045.71v-181s37.79,7.51,62.58-5.43L1031,1017.74a40.6,40.6,0,0,1-5.42,13.49C1021.11,1038.32,1013.1,1047.15,1001.79,1045.71Z"/><path class="cls-1" d="M1103.58,834.81s-.55,43,4.62,63.76c0,0,4.67,13.14-1.24,20.23-1,1.19-2,2.35-2.94,3.59l-74.08,101.09,34.43-164.21Z"/></g><g id="허벅지"><path class="cls-1" d="M961,1002,915.8,944.14l-19-25.34-18.3,64.73a93.9,93.9,0,0,0-3.53,25.49v185.31l4.87,95.1a14,14,0,0,0,13.64-10.73c2.33-10.16,9.06-24.54,28.35-29.26,0,0,21.53,10.7,24.27,40a8,8,0,0,0,2.2,4.77l12.59,13.06v-26.83a276.48,276.48,0,0,1,12.35-81.72l8.85-28.63a121.37,121.37,0,0,0,5.15-27.76l6.63-98.42Z"/><path class="cls-1" d="M1123.68,983.53,1107,918.8l-20.6,25.34L1041.12,1002l-32.8,41.93,6.62,98.42a121.37,121.37,0,0,0,5.15,27.76l8.86,28.63a276.8,276.8,0,0,1,12.34,81.72v26.83l12.6-13.06a7.94,7.94,0,0,0,2.19-4.77c2.74-29.29,24.27-40,24.27-40,19.29,4.72,26,19.1,28.36,29.26a14,14,0,0,0,13.64,10.73h0l4.86-95.1V1009A93.9,93.9,0,0,0,1123.68,983.53Z"/></g><g id="무릎"><path class="cls-1" d="M879.81,1289.43s3.69,31,.83,45.89a8.23,8.23,0,0,0,1.4,6.38l11.66,16.1A29.4,29.4,0,0,0,917.5,1370h7a37.26,37.26,0,0,0,18.55-7.92c1.29-1.34,4.18-2.74,4.37-5.41.41-6.11,3.15-15.79,5.12-21.6,1.05-3.12,2.08-6.25,3-9.42l5.32-18.34-10.72-10a15.63,15.63,0,0,1-4.07-7.79c-1.83-9.14-6.42-30-24.27-40,0,0-20.09,1-28.39,27-1.35,4.22-2.29,8.75-6.18,10.89Z"/><path class="cls-1" d="M1122.5,1289.43s-3.7,31-.83,45.89a8.19,8.19,0,0,1-1.41,6.38l-11.66,16.1a29.37,29.37,0,0,1-23.8,12.15h-7a37.19,37.19,0,0,1-18.54-7.92c-1.3-1.34-4.19-2.74-4.37-5.41-.42-6.11-3.15-15.79-5.12-21.6-1.06-3.12-2.08-6.25-3-9.42l-5.33-18.34,10.73-10a15.69,15.69,0,0,0,4.06-7.79c1.83-9.14,6.42-30,24.27-40,0,0,20.09,1,28.39,27,1.35,4.22,2.3,8.75,6.18,10.89Z"/></g><g id="정강이"><path class="cls-1" d="M949.73,1442.16l-2.31-85.54s-2.71,8.62-18.59,13c0,0-22.88,4.46-33-9.15L882,1341.7l-7.1,29.6c-1.16,6.87-3.51,18.7-3.24,25.67,0,0,7.85,85,10,96.81,2.55,14.16,5.93,32.13,6.25,35,7,64.3,0,84.3,0,84.3,2.86-4.46,3-24.71,3-24.71h32.35l-1.43,24.71,3.78-65.29a140.81,140.81,0,0,1,8.81-41.54l8.24-21.89A111.32,111.32,0,0,0,949.73,1442.16Z"/><path class="cls-1" d="M1091.23,1588.41h20.56c-.46-13.18,0-32.44,3-59.59.32-2.91,3.7-20.88,6.25-35,2.11-11.77,10-96.81,10-96.81.27-7-2.08-18.8-3.24-25.67l-7.1-29.6-13.81,18.73c-10.1,13.61-33,9.15-33,9.15-15.88-4.34-18.59-13-18.59-13l-2.31,85.54a111.32,111.32,0,0,0,7.1,42.24l8.24,21.89a140.81,140.81,0,0,1,8.81,41.54l2.52,40.58Z"/></g><g id="아킬레스건_발목_발" data-name="아킬레스건&amp;발목&amp;발"><polygon class="cls-3" points="911.18 1588.41 911.18 1613.12 921.8 1613.12 922.8 1588.41 911.18 1588.41"/><polygon class="cls-3" points="1079.61 1588.41 1081.04 1613.12 1091.23 1613.12 1091.23 1588.41 1079.61 1588.41"/></g><g id="발목"><path class="cls-3" d="M911.18,1588.41h-20.3s-.11,20.25-3,24.71h23.27Z"/><path class="cls-3" d="M1091.23,1613.12h23.53s-.09-.26-.24-.8c-1.39-3.21-2-10.46-2.32-16.15-.17-2.31-.31-4.89-.41-7.76h-20.56Z"/></g><g id="발"><path class="cls-1" d="M887.91,1613.12S872.42,1640,849,1650c0,0-27,10-21.52,16.84,2,2.57,6.66,3.7,11.44.63,0,0-1.62,3.25,1,5a6.42,6.42,0,0,0,9.27-2.61s-1.62,3.24,1.44,4.5c0,0,5,1.82,7.18-2.5,0,0-.69,3,3.27,3.67,0,0,4.51.27,6.49-2.79a3.13,3.13,0,0,0,3.06,3.38,17.45,17.45,0,0,0,10.81-2.66s20.76-14,31.34-17.82a16.33,16.33,0,0,1,4.8-.92c3.72-.18,14.53-2,10.33-17.65,0,0-6.62-14.8-6.1-24H887.91Zm-49,54.39s2.16-3.42,3.78-4.5Zm10.26,2.35a19.19,19.19,0,0,1,2-2.35Zm8.62,2s1.29-2.09,2.37-2.45Zm9.76.88s-.18-.52,1.8-2.11Z"/><path class="cls-1" d="M838.92,1667.51l3.78-4.5C841.08,1664.09,838.92,1667.51,838.92,1667.51Z"/><path class="cls-1" d="M851.17,1667.51a19.19,19.19,0,0,0-2,2.35Z"/><path class="cls-1" d="M857.8,1671.86l2.37-2.45C859.09,1669.77,857.8,1671.86,857.8,1671.86Z"/><path class="cls-1" d="M867.56,1672.74l1.8-2.11C867.38,1672.22,867.56,1672.74,867.56,1672.74Z"/><path class="cls-1" d="M1163.67,1667.51s-2.16-3.42-3.78-4.5"/><path class="cls-1" d="M1153.59,1650c-23.42-10.08-38.91-36.92-38.91-36.92h-33.89c.53,9.15-6.1,24-6.1,24-4.2,15.61,6.61,17.47,10.33,17.65a16.46,16.46,0,0,1,4.81.92c10.57,3.79,31.34,17.82,31.34,17.82a17.42,17.42,0,0,0,10.8,2.66c3.4-.45,3.06-3.38,3.06-3.38,2,3.06,6.49,2.79,6.49,2.79,4-.72,3.27-3.67,3.27-3.67,2.16,4.32,7.18,2.5,7.18,2.5,3.06-1.26,1.44-4.5,1.44-4.5a6.42,6.42,0,0,0,9.27,2.61c2.62-1.71,1-5,1-5,4.78,3.07,9.39,1.94,11.44-.63C1180.62,1660,1153.59,1650,1153.59,1650Zm-18.56,22.7-1.8-2.11C1135.21,1672.22,1135,1672.74,1135,1672.74Zm7.39-3.33c1.08.36,2.37,2.45,2.37,2.45Zm9-1.9a19.62,19.62,0,0,1,2,2.35Z"/><path class="cls-1" d="M1153.41,1669.86a19.62,19.62,0,0,0-2-2.35Z"/><path class="cls-1" d="M1142.42,1669.41l2.37,2.45S1143.5,1669.77,1142.42,1669.41Z"/><path class="cls-1" d="M1133.23,1670.63l1.8,2.11S1135.21,1672.22,1133.23,1670.63Z"/><path class="cls-1" d="M1164.59,1667.51l-3.78-4.5C1162.43,1664.09,1164.59,1667.51,1164.59,1667.51Z"/></g></svg>