<svg xmlns="http://www.w3.org/2000/svg" viewBox="0 0 2000 2000"><defs><style>.cls-1{fill:#fff;}.cls-1,.cls-2,.cls-3{stroke:#44bcce;stroke-linecap:round;stroke-linejoin:round;}.cls-1,.cls-3{stroke-width:4px;}.cls-2{fill:none;stroke-width:2px;}.cls-3{fill:#44bcce;}</style></defs><g id="목"><polyline class="cls-1" points="1040.23 540.72 1040.23 583.97 1084.99 610.63 1006.24 646.53 924.44 609.53 971.24 585.46 971.47 540.72 1040.23 540.72"/></g><g id="머리"><path class="cls-1" d="M949.43,459.76s-13.67-74.42,45.13-78.52c1-.07,2.07-.14,3.1-.25,10.35-1.06,82.66-5.51,64.56,79.71,0,0,11.86-8.57,10.41,11.76-.56,7.93-1.44,20.69-14.05,31.86l-.9,11.91s.36,7.93-9,14.77l-22,17.86a23.32,23.32,0,0,1-14.66,5.2h-11.89a21.55,21.55,0,0,1-12-3.62L966.32,535.9a24.73,24.73,0,0,1-11-19.78l-.31-9.26a50.73,50.73,0,0,1-18-27.18C936.62,478.37,929.57,453.55,949.43,459.76Z"/><path class="cls-2" d="M940.91,476.53s-2.13-15.32,5.18-10.34c2,1.35,7.64,6,7.64,13.92,0,0,.74,8.23-1,9.79a2.62,2.62,0,0,0-.89.22,3.71,3.71,0,0,0-1,6.14,4.43,4.43,0,0,0,3.06,1.11"/><path class="cls-2" d="M953.31,476.48s-5.07,4.93-4.59,10.19"/><path class="cls-2" d="M1068,476.53s2.14-15.32-5.17-10.34c-2,1.35-7.65,6-7.65,13.92,0,0-.74,8.23,1,9.79a2.62,2.62,0,0,1,.89.22,3.71,3.71,0,0,1,1,6.14,4.41,4.41,0,0,1-3.06,1.11"/><path class="cls-2" d="M1055.64,476.48s5.07,4.93,4.59,10.19"/></g><g id="얼굴"><path class="cls-1" d="M997,422.12c.91-.06,1.83-.18,2.74-.19,15.28-.09,52.55-2.3,46.36,48.91l-3.28,35.68s.26,5-6.49,9.24l-15.89,11.17a18.46,18.46,0,0,1-10.57,3.25h-8.56a17.29,17.29,0,0,1-8.61-2.26l-15.73-9.1A15.14,15.14,0,0,1,969,506.46s-3-18.36-3.09-22.72C965.52,454.73,962,424.43,997,422.12Z"/></g><g id="어깨"><path class="cls-1" d="M924.44,609.54l-47,1.94a21.89,21.89,0,0,0-15.73,7.65l-19.85,23.24a65.45,65.45,0,0,0-15.64,40.73L824.65,741l60-53.5s3.67-82.56,118.55-42.09Z"/><path class="cls-1" d="M1085,610.63l47,2a21.85,21.85,0,0,1,15.72,7.65l19.85,23.24a65.4,65.4,0,0,1,15.64,40.73l1.55,57.92-60-53.49s-3.67-82.57-118.56-42.1Z"/></g><g id="팔"><path class="cls-3" d="M857.07,832.89l40-78.89-12.43-66.47-60,53.5s-9.25,16.8-10.69,48.19a107.63,107.63,0,0,1-5.36,29.12l-2.33,7s-33.88,23.46-34.06,66.79a40.8,40.8,0,0,1-.29,4.94c-1.73,13.89-11.1,81.07-34.27,120.65h20l14.09,16.6a.24.24,0,0,0,.42-.18c-3.5-23.61,52.15-104.1,67.41-125.64A79.92,79.92,0,0,0,847,895.81c19.46-41.95,10.1-62.92,10.1-62.92Z"/><path class="cls-3" d="M1237.56,897.05a38.86,38.86,0,0,1-.28-4.94c-.19-43.33-34.07-66.79-34.07-66.79h-.41l-2.33-7a107.62,107.62,0,0,1-5.35-29.12c-1.45-31.39-10.69-48.19-10.69-48.19l-60-53.5L1112,754l40,78.89.33.18c-.81,2-8.29,22.94,10.18,62.74a80.63,80.63,0,0,0,7.4,12.67c15.16,21.39,70.14,100.91,67.48,125.14a.39.39,0,0,0,.68.3l13.76-16.22h20C1248.67,978.12,1239.3,910.94,1237.56,897.05Z"/></g><g id="팔꿈치"><polygon class="cls-3" points="813.96 789.22 872.5 802.45 857.07 832.89 806.27 825.33 813.96 789.22"/><polygon class="cls-3" points="1195.21 789.22 1136.67 802.45 1152.1 832.89 1202.89 825.33 1195.21 789.22"/></g><g id="손목"><path class="cls-1" d="M779,1007.79s-8.65,17.6-6.65,27.2l-14.67-17.29h-20s9.25-18.41,11.25-23.7h17.52Z"/><path class="cls-1" d="M1230.7,1007.79s8.64,17.6,6.65,27.2L1252,1017.7h20s-9.25-18.41-11.25-23.7h-17.52Z"/></g><g id="손"><path class="cls-1" d="M776,1053l-4.39-6.48a8.63,8.63,0,0,1-.75-8.29l1.41-3.21-14.67-17.29h-20l-12.88,49.19a37.42,37.42,0,0,0-.93,4.92l-.77,6.41,31.84,2a1.6,1.6,0,0,1,2.94.82l.22,5h17.36l2.47-25.76A11.06,11.06,0,0,0,776,1053Z"/><path class="cls-1" d="M1285.81,1071.81a35.87,35.87,0,0,0-.94-4.92L1272,1017.7h-20L1237.34,1035l1.41,3.21a8.61,8.61,0,0,1-.76,8.29l-4.38,6.48a11.06,11.06,0,0,0-1.86,7.28l2.89,30.19h16.75l.4-9.43a1.61,1.61,0,0,1,3-.82l4.35,6.58h28.51Z"/></g><g id="손가락"><path class="cls-1" d="M759.33,1115.34a7.49,7.49,0,0,0,2.94,5.73c3.51,2.58,9.38,2,12.3-26.1l.86-9H758.07Z"/><path class="cls-1" d="M719,1112a22.56,22.56,0,0,0,0,4.86l4.87,50.17a5.68,5.68,0,0,0,4.69,5.15c1.89.27,4-.37,5.46-3.54a11.14,11.14,0,0,0,.94-4.73l0-3.91-.45-45.36A11.41,11.41,0,0,1,735,1111h0a11.75,11.75,0,0,1,1.31-2.72l2.2-3.32,16.4-24.79-31.84-2Z"/><path class="cls-1" d="M734.89,1160s8.72-.64,9-12.55a24.64,24.64,0,0,0-.24-3.74l-6-37.24L735,1111h0Z"/><path class="cls-1" d="M1274.76,1160s-8.73-.64-9-12.55a23.42,23.42,0,0,1,.24-3.74l6-37.24,2.64,4.55Z"/><path class="cls-1" d="M1235.07,1095c2.92,28.08,8.79,28.68,12.3,26.1a7.42,7.42,0,0,0,2.94-5.73l1.08-24.9h-16.75Z"/><path class="cls-1" d="M1290.62,1112l-3-25.23h-28.51l12.05,18.21,2.19,3.32a11.27,11.27,0,0,1,1.88,6.34l-.45,45.36,0,3.91a11,11,0,0,0,.94,4.73c1.46,3.17,3.57,3.81,5.46,3.54a5.68,5.68,0,0,0,4.69-5.15l4.87-50.17A22.56,22.56,0,0,0,1290.62,1112Z"/></g><g id="허리"><path class="cls-1" d="M897.06,754s17,148,1.69,209.09a13.41,13.41,0,0,0,2.34,11.34l86.24,117.67c4.68,6.23,11.37,10.42,22.64,10.44h0c6.68,0,15.2-5.71,19-12.27,7.67-13.38,51.44-72.57,82.84-114.66,3-4,4.52-10.64,2.84-15.3-4.84-13.4-16.3-81.28-2.6-206.31Z"/><polygon class="cls-1" points="902.55 818.87 904.34 854.51 904.97 891.63 944.18 916.08 944.18 879.36 944.18 879.33 944.18 842.62 944.18 754 897.06 754 902.55 818.87"/><polygon class="cls-1" points="1069.19 754 1069.19 842.62 1069.19 879.33 1069.19 879.36 1069.19 916.08 1108.4 891.63 1109.04 854.51 1110.83 818.87 1112.02 754 1069.19 754"/></g><g id="배"><polygon class="cls-1" points="1006.76 754 1006.76 801.55 944.18 842.62 944.18 754 1006.76 754"/><path class="cls-1" d="M944.18,879.36s35.24-13.51,62.58-11.89v-65l-62.58,40.17Z"/><path class="cls-1" d="M1006.76,921.35s-43.26,6.78-62.58-5.27V879.33s30.73-13.82,62.58-12Z"/><polygon class="cls-1" points="1006.62 754 1006.62 801.55 1069.19 842.62 1069.19 754 1006.62 754"/><path class="cls-1" d="M1069.19,879.36s-35.23-13.51-62.57-11.89v-65l62.57,40.17Z"/><path class="cls-1" d="M1006.62,921.35s43.26,6.78,62.57-5.27V879.33s-30.72-13.82-62.57-12Z"/></g><g id="갈비뼈"><path class="cls-1" d="M897.06,754l38.35,16.82a33.63,33.63,0,0,0,23.9,1.2l47.45-12V647.81s-58.38-22.75-87.35-8.83c-.71.34-1.4.69-2.12,1-4.84,2.15-31.19,15.32-32.66,47.54Z"/><path class="cls-1" d="M1111.94,754l-38.35,16.82a33.66,33.66,0,0,1-23.91,1.2l-42.92-12V647.81s53.86-22.75,82.83-8.83c.7.34,1.4.69,2.12,1,4.83,2.15,31.18,15.32,32.66,47.54Z"/></g><g id="골반"><path class="cls-1" d="M1006.76,1102.52v-181S969,929,944.18,916.08l34.42,163.66S990.18,1102.54,1006.76,1102.52Z"/><path class="cls-1" d="M905,891.63s.55,43-4.61,63.76c0,0-4.67,13.14,1.24,20.22,1,1.19,2,2.35,2.94,3.6l73.21,99L944.18,916.08Z"/><path class="cls-1" d="M1006.62,1102.52v-181s37.78,7.51,62.57-5.43l-33.33,158.47a40.44,40.44,0,0,1-5.42,13.5C1025.93,1095.13,1017.93,1104,1006.62,1102.52Z"/><path class="cls-1" d="M1108.4,891.63s-.54,43,4.62,63.76c0,0,4.67,13.14-1.24,20.22-1,1.19-2,2.35-2.94,3.6l-74.08,101.08,34.43-164.21Z"/></g><g id="허벅지"><path class="cls-1" d="M965.86,1058.78,920.62,1001l-19-25.35-18.3,64.74a93.4,93.4,0,0,0-3.54,25.48v185.31l4.87,95.11a14,14,0,0,0,13.64-10.74c2.33-10.16,9.06-24.54,28.36-29.25,0,0,21.52,10.69,24.27,40a8,8,0,0,0,2.19,4.78l12.59,13.06v-26.84A276.81,276.81,0,0,1,978,1255.52l8.85-28.63a121.93,121.93,0,0,0,5.16-27.76l6.62-98.42Z"/><path class="cls-1" d="M1128.5,1040.35l-16.72-64.74-20.6,25.35-45.24,57.82-32.8,41.93,6.62,98.42a121.93,121.93,0,0,0,5.16,27.76l8.85,28.63a276.8,276.8,0,0,1,12.34,81.72v26.84l12.6-13.06a8,8,0,0,0,2.19-4.78c2.75-29.29,24.27-40,24.27-40,19.3,4.71,26,19.09,28.36,29.25a14,14,0,0,0,13.64,10.74h0l4.86-95.11V1065.83A93.39,93.39,0,0,0,1128.5,1040.35Z"/></g><g id="무릎"><path class="cls-1" d="M884.63,1346.25s3.7,31,.83,45.88a8.19,8.19,0,0,0,1.41,6.38l11.66,16.1a29.37,29.37,0,0,0,23.8,12.15h7a37.24,37.24,0,0,0,18.55-7.91c1.29-1.35,4.19-2.75,4.37-5.41.41-6.12,3.15-15.79,5.12-21.6,1.06-3.12,2.08-6.26,3-9.42l5.32-18.34L955,1354a15.69,15.69,0,0,1-4.06-7.79c-1.84-9.14-6.42-30-24.27-40,0,0-20.09,1-28.39,27-1.36,4.23-2.3,8.75-6.18,10.9Z"/><path class="cls-1" d="M1127.32,1346.25s-3.69,31-.83,45.88a8.23,8.23,0,0,1-1.4,6.38l-11.66,16.1a29.4,29.4,0,0,1-23.8,12.15h-7a37.24,37.24,0,0,1-18.55-7.91c-1.29-1.35-4.19-2.75-4.37-5.41-.41-6.12-3.15-15.79-5.12-21.6-1-3.12-2.08-6.26-3-9.42l-5.32-18.34,10.72-10a15.61,15.61,0,0,0,4.06-7.79c1.84-9.14,6.42-30,24.27-40,0,0,20.1,1,28.4,27,1.35,4.23,2.29,8.75,6.18,10.9Z"/></g><g id="정강이"><path class="cls-1" d="M954.56,1499l-2.32-85.53s-2.71,8.61-18.59,13c0,0-22.88,4.46-33-9.15l-13.8-18.73-7.11,29.6c-1.16,6.88-3.51,18.7-3.24,25.67,0,0,7.85,85,10,96.81,2.54,14.17,5.93,32.14,6.24,35,7,64.31,0,84.3,0,84.3,2.86-4.45,3-24.71,3-24.71h32.36l-1.43,24.71,3.77-65.29a140.81,140.81,0,0,1,8.81-41.54l8.24-21.89A111.3,111.3,0,0,0,954.56,1499Z"/><path class="cls-1" d="M1096.05,1645.22h20.56c-.46-13.18,0-32.43,3-59.59.32-2.9,3.71-20.87,6.25-35,2.11-11.77,10-96.81,10-96.81.27-7-2.08-18.79-3.24-25.67l-7.1-29.6-13.8,18.73c-10.1,13.61-33,9.15-33,9.15-15.88-4.34-18.58-13-18.58-13l-2.32,85.53a111.29,111.29,0,0,0,7.1,42.24l8.24,21.89a140.81,140.81,0,0,1,8.81,41.54l2.52,40.58Z"/></g><g id="아킬레스건_발목_발" data-name="아킬레스건&amp;발목&amp;발"><polygon class="cls-1" points="916 1645.22 916 1669.93 926.63 1669.93 927.63 1645.22 916 1645.22"/><polygon class="cls-1" points="1084.43 1645.22 1085.86 1669.93 1096.06 1669.93 1096.06 1645.22 1084.43 1645.22"/></g><g id="발목"><path class="cls-1" d="M916,1645.22H895.7s-.11,20.26-3,24.71H916Z"/><path class="cls-1" d="M1096.05,1669.93h23.53s-.09-.26-.24-.8c-1.39-3.21-2-10.46-2.32-16.15-.17-2.31-.31-4.89-.41-7.76h-20.56Z"/></g><g id="발"><path class="cls-1" d="M892.73,1669.93s-15.49,26.84-38.9,36.93c0,0-27,10-21.53,16.84,2.06,2.56,6.67,3.69,11.44.63,0,0-1.62,3.24,1,5a6.43,6.43,0,0,0,9.28-2.61s-1.62,3.24,1.44,4.5c0,0,5,1.83,7.17-2.49,0,0-.69,2.94,3.28,3.66,0,0,4.5.27,6.48-2.79a3.13,3.13,0,0,0,3.06,3.38,17.45,17.45,0,0,0,10.81-2.66s20.77-14,31.34-17.82a16.8,16.8,0,0,1,4.81-.92c3.72-.18,14.52-2,10.32-17.64,0,0-6.62-14.81-6.09-24h-33.9Zm-49,54.4s2.16-3.42,3.78-4.5Zm10.27,2.34a19.12,19.12,0,0,1,2-2.34Zm8.61,2s1.29-2.1,2.37-2.46Zm9.76.87s-.18-.51,1.8-2.1Z"/><path class="cls-1" d="M843.74,1724.33l3.78-4.5C845.9,1720.91,843.74,1724.33,843.74,1724.33Z"/><path class="cls-1" d="M856,1724.33a19.12,19.12,0,0,0-2,2.34Z"/><path class="cls-1" d="M862.62,1728.68l2.37-2.46C863.91,1726.58,862.62,1728.68,862.62,1728.68Z"/><path class="cls-1" d="M872.38,1729.55l1.8-2.1C872.2,1729,872.38,1729.55,872.38,1729.55Z"/><path class="cls-1" d="M1168.5,1724.33s-2.16-3.42-3.78-4.5"/><path class="cls-1" d="M1158.41,1706.86c-23.42-10.09-38.91-36.93-38.91-36.93h-33.89c.53,9.15-6.09,24-6.09,24-4.21,15.61,6.6,17.46,10.32,17.64a16.8,16.8,0,0,1,4.81.92c10.57,3.79,31.34,17.82,31.34,17.82a17.43,17.43,0,0,0,10.81,2.66,3.13,3.13,0,0,0,3.06-3.38c2,3.06,6.48,2.79,6.48,2.79,4-.72,3.27-3.66,3.27-3.66,2.16,4.32,7.18,2.49,7.18,2.49,3.06-1.26,1.44-4.5,1.44-4.5a6.43,6.43,0,0,0,9.28,2.61c2.61-1.71,1-5,1-5,4.77,3.06,9.38,1.93,11.44-.63C1185.45,1716.82,1158.41,1706.86,1158.41,1706.86Zm-18.55,22.69-1.8-2.1C1140,1729,1139.86,1729.55,1139.86,1729.55Zm7.38-3.33c1.08.36,2.37,2.46,2.37,2.46Zm9-1.89a19.12,19.12,0,0,1,2,2.34Z"/><path class="cls-1" d="M1158.23,1726.67a19.12,19.12,0,0,0-2-2.34Z"/><path class="cls-1" d="M1147.24,1726.22l2.37,2.46S1148.32,1726.58,1147.24,1726.22Z"/><path class="cls-1" d="M1138.06,1727.45l1.8,2.1S1140,1729,1138.06,1727.45Z"/><path class="cls-1" d="M1169.42,1724.33l-3.79-4.5C1167.25,1720.91,1169.42,1724.33,1169.42,1724.33Z"/></g></svg>