<svg xmlns="http://www.w3.org/2000/svg" viewBox="0 0 2000 2000"><defs><style>.cls-1{fill:#fff;}.cls-1,.cls-2,.cls-3{stroke:#44bcce;stroke-linecap:round;stroke-linejoin:round;}.cls-1,.cls-3{stroke-width:4px;}.cls-2{fill:none;stroke-width:2px;}.cls-3{fill:#44bcce;}</style></defs><title>부상파트</title><g id="목"><polyline class="cls-1" points="1053.52 490.98 1053.52 534.23 1098.28 560.89 1019.53 596.79 937.72 559.79 984.53 535.72 984.76 490.98 1053.52 490.98"/></g><g id="머리"><path class="cls-1" d="M962.72,410s-13.67-74.42,45.13-78.52c1-.07,2.06-.14,3.1-.25,10.35-1.06,82.66-5.52,64.56,79.7,0,0,11.86-8.56,10.41,11.77-.56,7.93-1.45,20.69-14.06,31.86l-.89,11.91s.36,7.92-9,14.77l-22,17.86a23.31,23.31,0,0,1-14.67,5.19h-11.88a21.54,21.54,0,0,1-12-3.61l-21.81-14.55a24.73,24.73,0,0,1-11-19.77l-.3-9.26a50.73,50.73,0,0,1-18-27.18C949.91,428.63,942.85,403.8,962.72,410Z"/><path class="cls-2" d="M954.2,426.79s-2.14-15.32,5.18-10.34c2,1.34,7.64,6,7.64,13.92,0,0,.74,8.23-1,9.79a2.62,2.62,0,0,0-.89.22,3.7,3.7,0,0,0-1,6.13,4.37,4.37,0,0,0,3.06,1.12"/><path class="cls-2" d="M966.6,426.74s-5.07,4.93-4.59,10.19"/><path class="cls-2" d="M1081.33,426.79s2.13-15.32-5.18-10.34c-2,1.34-7.64,6-7.64,13.92,0,0-.74,8.23,1,9.79a2.62,2.62,0,0,1,.89.22,3.7,3.7,0,0,1,1,6.13,4.37,4.37,0,0,1-3.06,1.12"/><path class="cls-2" d="M1068.93,426.74s5.07,4.93,4.59,10.19"/></g><g id="얼굴"><path class="cls-1" d="M1010.24,372.38c.92-.06,1.83-.19,2.75-.19,15.28-.09,52.55-2.3,46.35,48.91l-3.27,35.68s.26,5-6.49,9.24l-15.89,11.17a18.46,18.46,0,0,1-10.57,3.25h-8.57a17.22,17.22,0,0,1-8.61-2.27l-15.72-9.09a15.13,15.13,0,0,1-7.93-12.37s-3-18.36-3.09-22.71C978.8,405,975.28,374.69,1010.24,372.38Z"/></g><g id="어깨"><path class="cls-1" d="M937.72,559.79l-47,2A21.85,21.85,0,0,0,875,569.39l-19.85,23.24a65.43,65.43,0,0,0-15.64,40.73l-1.55,57.92,60-53.49s3.67-82.56,118.55-42.09Z"/><path class="cls-1" d="M1098.28,560.89l47,2a21.85,21.85,0,0,1,15.73,7.65l19.85,23.24a65.4,65.4,0,0,1,15.64,40.73l1.55,57.92-60-53.5s-3.67-82.56-118.55-42.09Z"/></g><g id="팔"><path class="cls-1" d="M870.36,783.15l40-78.9-12.42-66.46-60,53.49s-9.24,16.81-10.68,48.2a108.09,108.09,0,0,1-5.36,29.12l-2.33,7S785.68,799,785.49,842.37a38.86,38.86,0,0,1-.28,4.94C783.48,861.2,774.1,928.37,750.93,968h20L785,984.56a.24.24,0,0,0,.42-.18c-3.5-23.61,52.15-104.11,67.41-125.65a80.92,80.92,0,0,0,7.41-12.66c19.46-42,10.1-62.92,10.1-62.92Z"/><path class="cls-1" d="M1250.85,847.31a38.86,38.86,0,0,1-.28-4.94c-.19-43.33-34.07-66.79-34.07-66.79h-.41l-2.33-7a108.09,108.09,0,0,1-5.36-29.12c-1.44-31.39-10.68-48.2-10.68-48.2l-60-53.49-12.42,66.46,40,78.9.34.18c-.81,2-8.29,22.94,10.17,62.74a80.92,80.92,0,0,0,7.41,12.66c15.15,21.39,70.14,100.92,67.48,125.15a.38.38,0,0,0,.68.29L1265.13,968h20C1262,928.37,1252.58,861.2,1250.85,847.31Z"/></g><g id="팔꿈치"><polygon class="cls-1" points="827.25 739.48 885.79 752.71 870.36 783.15 819.56 775.58 827.25 739.48"/><polygon class="cls-1" points="1208.49 739.48 1149.95 752.71 1165.38 783.15 1216.18 775.58 1208.49 739.48"/></g><g id="손목"><path class="cls-1" d="M792.25,958.05s-8.65,17.6-6.65,27.2L770.93,968h-20s9.25-18.41,11.26-23.71H779.7Z"/><path class="cls-1" d="M1244,958.05s8.65,17.6,6.65,27.2L1265.3,968h20s-9.25-18.41-11.25-23.71h-17.52Z"/></g><g id="손"><path class="cls-1" d="M789.33,1003.22l-4.39-6.47a8.61,8.61,0,0,1-.75-8.29l1.41-3.21L770.93,968h-20l-12.87,49.19a37.58,37.58,0,0,0-.93,4.91l-.77,6.42,31.84,2a1.6,1.6,0,0,1,2.94.81l.22,5h17.36l2.47-25.75A11.09,11.09,0,0,0,789.33,1003.22Z"/><path class="cls-1" d="M1299.1,1022.06a36,36,0,0,0-.94-4.91L1285.29,968h-20l-14.67,17.29,1.41,3.21a8.61,8.61,0,0,1-.75,8.29l-4.39,6.47a11.15,11.15,0,0,0-1.86,7.29l2.9,30.19h16.74l.41-9.44a1.61,1.61,0,0,1,3-.81l4.35,6.58h28.51Z"/></g><g id="손가락"><path class="cls-1" d="M772.62,1065.6a7.52,7.52,0,0,0,2.94,5.73c3.51,2.58,9.38,2,12.3-26.11l.86-9H771.36Z"/><path class="cls-1" d="M732.31,1062.25a22.66,22.66,0,0,0,0,4.87l4.87,50.17a5.68,5.68,0,0,0,4.69,5.15c1.89.27,4-.37,5.45-3.54a11,11,0,0,0,.94-4.74l0-3.9-.45-45.36a11.05,11.05,0,0,1,.56-3.62h0a11.18,11.18,0,0,1,1.31-2.72l2.2-3.33,16.4-24.78-31.84-2Z"/><path class="cls-1" d="M748.18,1110.26s8.72-.65,9-12.56A24.6,24.6,0,0,0,757,1094l-6-37.25-2.64,4.56h0Z"/><path class="cls-1" d="M1288.05,1110.26s-8.73-.65-9-12.56a23.38,23.38,0,0,1,.25-3.73l6-37.25,2.64,4.56Z"/><path class="cls-1" d="M1248.36,1045.22c2.92,28.09,8.79,28.69,12.3,26.11a7.52,7.52,0,0,0,2.94-5.73l1.07-24.9h-16.74Z"/><path class="cls-1" d="M1303.91,1062.25l-3-25.22h-28.51l12,18.2,2.2,3.33a11.27,11.27,0,0,1,1.88,6.34l-.45,45.36,0,3.9a11,11,0,0,0,.94,4.74c1.46,3.17,3.57,3.81,5.46,3.54a5.68,5.68,0,0,0,4.68-5.15l4.87-50.17A22.66,22.66,0,0,0,1303.91,1062.25Z"/></g><g id="허리"><path class="cls-1" d="M910.34,704.25s17,148,1.7,209.1a13.41,13.41,0,0,0,2.34,11.34l86.23,117.67c4.69,6.23,11.38,10.42,22.64,10.43h0c6.69,0,15.21-5.7,19-12.26,7.67-13.39,51.44-72.57,82.84-114.66,3-4,4.52-10.64,2.84-15.3-4.84-13.4-16.3-81.29-2.6-206.32Z"/><polygon class="cls-1" points="915.84 769.13 917.63 804.77 918.26 841.88 957.47 866.34 957.47 829.62 957.47 829.59 957.47 792.88 957.47 704.25 910.35 704.25 915.84 769.13"/><polygon class="cls-1" points="1082.48 704.25 1082.48 792.88 1082.48 829.59 1082.48 829.62 1082.48 866.34 1121.69 841.88 1122.33 804.77 1124.11 769.13 1125.31 704.25 1082.48 704.25"/></g><g id="배"><polygon class="cls-3" points="1020.05 704.25 1020.05 751.81 957.47 792.88 957.47 704.25 1020.05 704.25"/><path class="cls-3" d="M957.47,829.62s35.23-13.51,62.58-11.89v-65l-62.58,40.16Z"/><path class="cls-3" d="M1020.05,871.61s-43.26,6.77-62.58-5.27V829.59s30.73-13.82,62.58-12Z"/><polygon class="cls-3" points="1019.9 704.25 1019.9 751.81 1082.48 792.88 1082.48 704.25 1019.9 704.25"/><path class="cls-3" d="M1082.48,829.62s-35.23-13.51-62.57-11.89v-65l62.57,40.16Z"/><path class="cls-3" d="M1019.91,871.61s43.25,6.77,62.57-5.27V829.59s-30.73-13.82-62.57-12Z"/></g><g id="갈비뼈"><path class="cls-1" d="M910.34,704.25l38.35,16.83a33.66,33.66,0,0,0,23.91,1.2l47.45-12.06V598.06s-58.38-22.74-87.35-8.83c-.71.34-1.41.7-2.12,1-4.84,2.15-31.19,15.32-32.66,47.54Z"/><path class="cls-1" d="M1125.23,704.25l-38.35,16.83a33.66,33.66,0,0,1-23.91,1.2l-42.92-12.06V598.06s53.85-22.74,82.82-8.83c.71.34,1.41.7,2.12,1,4.84,2.15,31.19,15.32,32.66,47.54Z"/></g><g id="골반"><path class="cls-1" d="M1020.05,1052.78v-181s-37.79,7.51-62.58-5.43L991.89,1030S1003.47,1052.8,1020.05,1052.78Z"/><path class="cls-1" d="M918.26,841.89s.55,43-4.62,63.75c0,0-4.67,13.14,1.25,20.23,1,1.19,2,2.35,2.94,3.6l73.21,99L957.47,866.34Z"/><path class="cls-1" d="M1019.91,1052.78v-181s37.78,7.51,62.57-5.43l-33.33,158.47a40.39,40.39,0,0,1-5.42,13.49C1039.22,1045.39,1031.22,1054.22,1019.91,1052.78Z"/><path class="cls-1" d="M1121.69,841.89s-.55,43,4.62,63.75c0,0,4.67,13.14-1.24,20.23-1,1.19-2,2.35-2.94,3.6l-74.08,101.08,34.43-164.21Z"/></g><g id="허벅지"><path class="cls-1" d="M979.15,1009l-45.24-57.82-19-25.35-18.3,64.74a93.4,93.4,0,0,0-3.54,25.48V1201.4l4.87,95.1a14,14,0,0,0,13.64-10.73c2.33-10.16,9.06-24.54,28.36-29.25,0,0,21.52,10.69,24.27,40a7.88,7.88,0,0,0,2.19,4.77L979,1314.34V1287.5a276.48,276.48,0,0,1,12.35-81.72l8.85-28.63a121.37,121.37,0,0,0,5.15-27.76L1012,1051Z"/><path class="cls-1" d="M1141.79,990.61l-16.72-64.74-20.6,25.35L1059.23,1009l-32.8,41.93,6.62,98.42a121.37,121.37,0,0,0,5.15,27.76l8.86,28.63a276.8,276.8,0,0,1,12.34,81.72v26.84l12.6-13.07a7.94,7.94,0,0,0,2.19-4.77c2.74-29.29,24.27-40,24.27-40,19.29,4.71,26,19.09,28.36,29.25a14,14,0,0,0,13.64,10.73h0l4.86-95.1V1016.09A93.78,93.78,0,0,0,1141.79,990.61Z"/></g><g id="무릎"><path class="cls-1" d="M897.92,1296.5s3.69,31,.83,45.89a8.23,8.23,0,0,0,1.4,6.38l11.66,16.1a29.4,29.4,0,0,0,23.8,12.15h7a37.29,37.29,0,0,0,18.55-7.91c1.29-1.35,4.19-2.75,4.37-5.41.41-6.12,3.15-15.79,5.12-21.6,1.05-3.13,2.08-6.26,3-9.42l5.32-18.34-10.72-10a15.53,15.53,0,0,1-4.06-7.79c-1.84-9.14-6.43-30-24.27-40,0,0-20.1,1-28.4,27-1.35,4.23-2.29,8.75-6.18,10.89Z"/><path class="cls-1" d="M1140.61,1296.5s-3.7,31-.83,45.89a8.19,8.19,0,0,1-1.41,6.38l-11.66,16.1a29.37,29.37,0,0,1-23.8,12.15h-7a37.23,37.23,0,0,1-18.54-7.91c-1.29-1.35-4.19-2.75-4.37-5.41-.42-6.12-3.15-15.79-5.12-21.6-1.06-3.13-2.08-6.26-3-9.42l-5.32-18.34,10.72-10a15.69,15.69,0,0,0,4.06-7.79c1.84-9.14,6.42-30,24.27-40,0,0,20.09,1,28.39,27,1.36,4.23,2.3,8.75,6.18,10.89Z"/></g><g id="정강이"><path class="cls-1" d="M967.84,1449.23l-2.31-85.53s-2.71,8.61-18.59,13c0,0-22.88,4.46-33-9.15l-13.81-18.73-7.1,29.6c-1.16,6.88-3.51,18.7-3.24,25.67,0,0,7.85,85,10,96.81,2.54,14.16,5.92,32.13,6.24,35,7,64.3,0,84.3,0,84.3,2.86-4.45,3-24.71,3-24.71h32.35l-1.42,24.71,3.77-65.29a140.81,140.81,0,0,1,8.81-41.54l8.24-21.89A111.29,111.29,0,0,0,967.84,1449.23Z"/><path class="cls-1" d="M1109.34,1595.48h20.56c-.46-13.18,0-32.43,3-59.59.32-2.91,3.7-20.88,6.25-35,2.11-11.77,10-96.81,10-96.81.27-7-2.08-18.79-3.24-25.67l-7.1-29.6-13.81,18.73c-10.1,13.61-33,9.15-33,9.15-15.88-4.34-18.58-13-18.58-13l-2.32,85.53a111.29,111.29,0,0,0,7.1,42.24l8.24,21.89a140.81,140.81,0,0,1,8.81,41.54l2.52,40.58Z"/></g><g id="아킬레스건_발목_발" data-name="아킬레스건&amp;발목&amp;발"><polygon class="cls-1" points="929.29 1595.48 929.29 1620.19 939.91 1620.19 940.91 1595.48 929.29 1595.48"/><polygon class="cls-1" points="1097.72 1595.48 1099.15 1620.19 1109.34 1620.19 1109.34 1595.48 1097.72 1595.48"/></g><g id="발목"><path class="cls-1" d="M929.29,1595.48H909s-.11,20.26-3,24.71h23.27Z"/><path class="cls-1" d="M1109.34,1620.19h23.53s-.09-.26-.24-.8c-1.39-3.21-2-10.46-2.32-16.15-.17-2.31-.31-4.89-.41-7.76h-20.56Z"/></g><g id="발"><path class="cls-1" d="M906,1620.19s-15.49,26.84-38.91,36.92c0,0-27,10-21.52,16.85,2,2.56,6.66,3.69,11.44.63,0,0-1.62,3.24,1,5a6.43,6.43,0,0,0,9.28-2.61s-1.63,3.24,1.44,4.5c0,0,5,1.83,7.17-2.5,0,0-.69,3,3.27,3.67,0,0,4.51.27,6.49-2.79a3.13,3.13,0,0,0,3.06,3.38,17.45,17.45,0,0,0,10.81-2.66s20.76-14,31.34-17.82a16.34,16.34,0,0,1,4.81-.92c3.72-.18,14.52-2,10.32-17.65,0,0-6.62-14.8-6.09-24H906Zm-49,54.4s2.16-3.43,3.78-4.51Zm10.27,2.34a19.12,19.12,0,0,1,2-2.34Zm8.61,2s1.29-2.09,2.37-2.45Zm9.76.88s-.18-.52,1.8-2.1Z"/><path class="cls-1" d="M857,1674.59l3.78-4.51C859.19,1671.16,857,1674.59,857,1674.59Z"/><path class="cls-1" d="M869.28,1674.59a19.12,19.12,0,0,0-2,2.34Z"/><path class="cls-1" d="M875.91,1678.93l2.37-2.45C877.2,1676.84,875.91,1678.93,875.91,1678.93Z"/><path class="cls-1" d="M885.67,1679.81l1.8-2.1C885.49,1679.29,885.67,1679.81,885.67,1679.81Z"/><path class="cls-1" d="M1181.79,1674.59s-2.17-3.43-3.79-4.51"/><path class="cls-1" d="M1171.7,1657.11c-23.42-10.08-38.91-36.92-38.91-36.92H1098.9c.53,9.15-6.1,24-6.1,24-4.2,15.62,6.61,17.47,10.33,17.65a16.46,16.46,0,0,1,4.81.92c10.57,3.79,31.34,17.82,31.34,17.82a17.42,17.42,0,0,0,10.8,2.66,3.13,3.13,0,0,0,3.07-3.38c2,3.06,6.48,2.79,6.48,2.79,4-.72,3.27-3.67,3.27-3.67,2.16,4.33,7.18,2.5,7.18,2.5,3.06-1.26,1.44-4.5,1.44-4.5a6.43,6.43,0,0,0,9.28,2.61c2.61-1.71,1-5,1-5,4.77,3.06,9.38,1.93,11.43-.63C1198.73,1667.08,1171.7,1657.11,1171.7,1657.11Zm-18.55,22.7-1.81-2.1C1153.33,1679.29,1153.15,1679.81,1153.15,1679.81Zm7.38-3.33c1.08.36,2.37,2.45,2.37,2.45Zm9-1.89a19.12,19.12,0,0,1,2,2.34Z"/><path class="cls-1" d="M1171.52,1676.93a19.12,19.12,0,0,0-2-2.34Z"/><path class="cls-1" d="M1160.53,1676.48l2.37,2.45S1161.61,1676.84,1160.53,1676.48Z"/><path class="cls-1" d="M1151.34,1677.71l1.81,2.1S1153.33,1679.29,1151.34,1677.71Z"/><path class="cls-1" d="M1182.7,1674.59l-3.78-4.51C1180.54,1671.16,1182.7,1674.59,1182.7,1674.59Z"/></g></svg>