<svg xmlns="http://www.w3.org/2000/svg" viewBox="0 0 2000 2000"><defs><style>.cls-1{fill:#fff;}.cls-1,.cls-2,.cls-3{stroke:#44bcce;stroke-linecap:round;stroke-linejoin:round;}.cls-1,.cls-3{stroke-width:4px;}.cls-2{fill:none;stroke-width:2px;}.cls-3{fill:#44bcce;}</style></defs><g id="목"><polyline class="cls-1" points="1046.54 508.68 1046.54 551.93 1091.3 578.59 1012.55 614.5 930.75 577.5 977.55 553.43 977.78 508.68 1046.54 508.68"/></g><g id="머리"><path class="cls-1" d="M955.74,427.72s-13.67-74.42,45.13-78.51c1-.08,2.07-.15,3.1-.25,10.35-1.06,82.66-5.52,64.56,79.7,0,0,11.86-8.56,10.41,11.76-.56,7.93-1.44,20.7-14,31.86l-.9,11.91s.36,7.93-9,14.77l-22,17.87a23.31,23.31,0,0,1-14.66,5.19h-11.89a21.55,21.55,0,0,1-11.95-3.62l-21.81-14.54a24.71,24.71,0,0,1-11-19.77l-.31-9.26a50.79,50.79,0,0,1-18.05-27.18C942.93,446.33,935.88,421.51,955.74,427.72Z"/><path class="cls-2" d="M947.22,444.49s-2.13-15.31,5.18-10.33c2,1.34,7.64,6,7.64,13.91,0,0,.74,8.24-1,9.79a2.62,2.62,0,0,0-.89.22,3.71,3.71,0,0,0-1,6.14,4.43,4.43,0,0,0,3.06,1.11"/><path class="cls-2" d="M959.62,444.44s-5.07,4.93-4.59,10.19"/><path class="cls-2" d="M1074.35,444.49s2.14-15.31-5.17-10.33c-2,1.34-7.65,6-7.65,13.91,0,0-.74,8.24,1,9.79a2.62,2.62,0,0,1,.89.22,3.71,3.71,0,0,1,1,6.14,4.41,4.41,0,0,1-3.06,1.11"/><path class="cls-2" d="M1062,444.44s5.07,4.93,4.6,10.19"/></g><g id="얼굴"><path class="cls-1" d="M1003.27,390.09c.91-.06,1.83-.19,2.74-.2,15.28-.08,52.55-2.3,46.36,48.91l-3.28,35.69s.26,4.95-6.49,9.23l-15.89,11.17a18.46,18.46,0,0,1-10.57,3.25h-8.56a17.29,17.29,0,0,1-8.61-2.26l-15.73-9.1a15.14,15.14,0,0,1-7.93-12.36s-3-18.36-3.09-22.72C971.83,422.7,968.31,392.39,1003.27,390.09Z"/></g><g id="어깨"><path class="cls-1" d="M930.75,577.5l-47,2A21.85,21.85,0,0,0,868,587.1l-19.85,23.24a65.4,65.4,0,0,0-15.64,40.72L831,709l60-53.5s3.67-82.56,118.55-42.09Z"/><path class="cls-1" d="M1091.3,578.59l47,1.95a21.85,21.85,0,0,1,15.72,7.65l19.85,23.24a65.43,65.43,0,0,1,15.64,40.73l1.55,57.93-60-53.5s-3.67-82.56-118.56-42.09Z"/></g><g id="팔"><path class="cls-1" d="M863.38,800.85l40-78.89-12.43-66.47L831,709s-9.25,16.81-10.69,48.19a107.78,107.78,0,0,1-5.36,29.13l-2.33,7s-33.88,23.45-34.06,66.78a40.68,40.68,0,0,1-.29,4.94c-1.73,13.89-11.1,81.07-34.27,120.65h20L778,1002.27a.24.24,0,0,0,.42-.18C775,978.47,830.61,898,845.87,876.44a80.27,80.27,0,0,0,7.41-12.66c19.46-41.95,10.1-62.93,10.1-62.93Z"/><path class="cls-1" d="M1243.87,865a38.75,38.75,0,0,1-.28-4.94c-.19-43.33-34.07-66.78-34.07-66.78h-.41l-2.33-7a107.76,107.76,0,0,1-5.35-29.13C1200,725.8,1190.74,709,1190.74,709l-60-53.5L1118.33,722l40,78.89.33.18c-.81,2-8.29,22.94,10.18,62.75a81,81,0,0,0,7.4,12.66c15.16,21.39,70.14,100.92,67.48,125.14a.39.39,0,0,0,.69.3l13.75-16.22h20C1255,946.08,1245.61,878.9,1243.87,865Z"/></g><g id="팔꿈치"><polygon class="cls-3" points="820.27 757.18 878.81 770.41 863.38 800.85 812.58 793.29 820.27 757.18"/><polygon class="cls-3" points="1201.52 757.18 1142.98 770.41 1158.4 800.85 1209.2 793.29 1201.52 757.18"/></g><g id="손목"><path class="cls-1" d="M785.27,975.75s-8.65,17.61-6.65,27.2L764,985.66H744s9.25-18.41,11.25-23.7h17.52Z"/><path class="cls-1" d="M1237,975.75s8.64,17.61,6.65,27.2l14.67-17.29h20s-9.25-18.41-11.25-23.7h-17.52Z"/></g><g id="손"><path class="cls-1" d="M782.35,1020.93l-4.39-6.48a8.62,8.62,0,0,1-.75-8.28l1.41-3.22L764,985.66H744l-12.88,49.2a37,37,0,0,0-.93,4.91l-.77,6.41,31.84,2a1.6,1.6,0,0,1,2.94.82l.22,5h17.36l2.47-25.75A11.07,11.07,0,0,0,782.35,1020.93Z"/><path class="cls-1" d="M1292.12,1039.77a37,37,0,0,0-.93-4.91l-12.88-49.2h-20L1243.65,1003l1.41,3.22a8.59,8.59,0,0,1-.76,8.28l-4.38,6.48a11.07,11.07,0,0,0-1.86,7.29l2.89,30.19h16.75l.4-9.44a1.61,1.61,0,0,1,3-.82l4.35,6.58h28.51Z"/></g><g id="손가락"><path class="cls-1" d="M765.64,1083.3a7.49,7.49,0,0,0,2.94,5.73c3.51,2.58,9.38,2,12.3-26.1l.86-9H764.38Z"/><path class="cls-1" d="M725.33,1080a22.56,22.56,0,0,0-.05,4.86l4.87,50.18a5.67,5.67,0,0,0,4.69,5.14c1.89.27,4-.37,5.46-3.54a11.11,11.11,0,0,0,.94-4.73l0-3.9-.45-45.37a11.3,11.3,0,0,1,.56-3.61h0a11.63,11.63,0,0,1,1.31-2.73l2.2-3.32,16.4-24.79-31.84-2Z"/><path class="cls-1" d="M741.2,1128s8.72-.65,9-12.56a24.64,24.64,0,0,0-.24-3.74l-6-37.24-2.65,4.56h0Z"/><path class="cls-1" d="M1281.07,1128s-8.73-.65-9-12.56a23.42,23.42,0,0,1,.24-3.74l6-37.24L1281,1079Z"/><path class="cls-1" d="M1241.38,1062.93c2.92,28.08,8.8,28.68,12.3,26.1a7.42,7.42,0,0,0,2.94-5.73l1.08-24.89H1241Z"/><path class="cls-1" d="M1296.93,1080l-3-25.23H1265.4l12,18.21,2.19,3.32a11.27,11.27,0,0,1,1.88,6.34l-.45,45.37,0,3.9a11,11,0,0,0,.94,4.73c1.46,3.17,3.57,3.81,5.46,3.54a5.67,5.67,0,0,0,4.69-5.14l4.87-50.18A22.56,22.56,0,0,0,1296.93,1080Z"/></g><g id="허리"><path class="cls-1" d="M903.37,722s17,148,1.69,209.1a13.38,13.38,0,0,0,2.34,11.33l86.24,117.67c4.68,6.23,11.37,10.42,22.64,10.44h0c6.68,0,15.2-5.71,19-12.26,7.67-13.39,51.44-72.58,82.84-114.67,3-4,4.53-10.63,2.84-15.3-4.84-13.4-16.3-81.28-2.6-206.31Z"/><polygon class="cls-1" points="908.86 786.83 910.65 822.48 911.28 859.59 950.5 884.04 950.5 847.33 950.5 847.3 950.5 810.58 950.5 721.96 903.37 721.96 908.86 786.83"/><polygon class="cls-1" points="1075.5 721.96 1075.5 810.58 1075.5 847.3 1075.5 847.33 1075.5 884.04 1114.71 859.59 1115.35 822.48 1117.14 786.83 1118.33 721.96 1075.5 721.96"/></g><g id="배"><polygon class="cls-1" points="1013.07 721.96 1013.07 769.51 950.5 810.58 950.5 721.96 1013.07 721.96"/><path class="cls-1" d="M950.49,847.33s35.24-13.51,62.58-11.89v-65l-62.58,40.17Z"/><path class="cls-1" d="M1013.07,889.31s-43.26,6.78-62.58-5.27V847.3s30.73-13.83,62.58-12Z"/><polygon class="cls-1" points="1012.93 721.96 1012.93 769.51 1075.5 810.58 1075.5 721.96 1012.93 721.96"/><path class="cls-1" d="M1075.5,847.33s-35.23-13.51-62.57-11.89v-65l62.57,40.17Z"/><path class="cls-1" d="M1012.93,889.31s43.26,6.78,62.57-5.27V847.3s-30.72-13.83-62.57-12Z"/></g><g id="갈비뼈"><path class="cls-1" d="M903.37,722l38.35,16.83a33.63,33.63,0,0,0,23.9,1.19l47.45-12.05V615.77s-58.38-22.75-87.35-8.83c-.71.34-1.4.69-2.12,1-4.84,2.15-31.19,15.32-32.66,47.54Z"/><path class="cls-1" d="M1118.25,722l-38.35,16.83A33.66,33.66,0,0,1,1056,740l-42.92-12.05V615.77s53.86-22.75,82.83-8.83c.7.34,1.4.69,2.12,1,4.83,2.15,31.18,15.32,32.66,47.54Z"/></g><g id="골반"><path class="cls-1" d="M1013.07,1070.48v-181S975.29,897,950.49,884l34.42,163.66S996.49,1070.5,1013.07,1070.48Z"/><path class="cls-1" d="M911.28,859.59s.55,43-4.61,63.76c0,0-4.67,13.14,1.24,20.22,1,1.19,2,2.36,2.94,3.6l73.21,99L950.49,884Z"/><path class="cls-1" d="M1012.93,1070.48v-181s37.78,7.51,62.57-5.43l-33.33,158.47a40.44,40.44,0,0,1-5.42,13.5C1032.24,1063.09,1024.24,1071.92,1012.93,1070.48Z"/><path class="cls-1" d="M1114.71,859.59s-.54,43,4.62,63.76c0,0,4.67,13.14-1.24,20.22-1,1.19-2,2.36-2.94,3.6l-74.08,101.08L1075.5,884Z"/></g><g id="허벅지"><path class="cls-1" d="M972.17,1026.75l-45.24-57.83-19-25.35-18.3,64.74a93.44,93.44,0,0,0-3.53,25.48V1219.1l4.86,95.11a14,14,0,0,0,13.64-10.74c2.33-10.16,9.06-24.53,28.36-29.25,0,0,21.52,10.69,24.27,40a8,8,0,0,0,2.19,4.78L972,1332v-26.83a276.71,276.71,0,0,1,12.35-81.72l8.85-28.63a122,122,0,0,0,5.16-27.77l6.62-98.41Z"/><path class="cls-1" d="M1134.81,1008.31l-16.72-64.74-20.6,25.35-45.24,57.83-32.8,41.93,6.62,98.41a122,122,0,0,0,5.16,27.77l8.85,28.63a276.7,276.7,0,0,1,12.34,81.72V1332L1065,1319a8,8,0,0,0,2.19-4.78c2.75-29.29,24.27-40,24.27-40,19.3,4.72,26,19.09,28.36,29.25a14,14,0,0,0,13.64,10.74h0l4.86-95.11V1033.79A93.44,93.44,0,0,0,1134.81,1008.31Z"/></g><g id="무릎"><path class="cls-1" d="M890.94,1314.21s3.7,31,.83,45.88a8.18,8.18,0,0,0,1.41,6.38l11.66,16.1a29.34,29.34,0,0,0,23.8,12.15h7a37.23,37.23,0,0,0,18.54-7.91c1.29-1.35,4.19-2.75,4.37-5.41.41-6.12,3.15-15.79,5.12-21.6,1.06-3.12,2.08-6.25,3-9.42L972,1332l-10.72-10a15.72,15.72,0,0,1-4.06-7.8c-1.84-9.13-6.42-30-24.27-40,0,0-20.09,1-28.39,27-1.36,4.23-2.3,8.75-6.18,10.9Z"/><path class="cls-1" d="M1133.63,1314.21s-3.69,31-.83,45.88a8.22,8.22,0,0,1-1.4,6.38l-11.66,16.1a29.37,29.37,0,0,1-23.8,12.15h-7a37.24,37.24,0,0,1-18.55-7.91c-1.29-1.35-4.19-2.75-4.37-5.41-.41-6.12-3.15-15.79-5.12-21.6-1.05-3.12-2.08-6.25-3-9.42l-5.32-18.34,10.72-10a15.64,15.64,0,0,0,4.06-7.8c1.84-9.13,6.42-30,24.27-40,0,0,20.1,1,28.4,27,1.35,4.23,2.29,8.75,6.18,10.9Z"/></g><g id="정강이"><path class="cls-1" d="M960.87,1466.93l-2.32-85.53s-2.71,8.62-18.59,12.95c0,0-22.88,4.46-33-9.15l-13.8-18.73-7.1,29.61c-1.17,6.87-3.51,18.7-3.25,25.66,0,0,7.85,85,10,96.81,2.54,14.17,5.93,32.14,6.24,35,7,64.31,0,84.3,0,84.3,2.86-4.45,3-24.7,3-24.7h32.36l-1.43,24.7,3.77-65.28a140.87,140.87,0,0,1,8.81-41.55l8.24-21.88A111.35,111.35,0,0,0,960.87,1466.93Z"/><path class="cls-1" d="M1102.36,1613.19h20.56c-.46-13.19,0-32.44,3-59.6.32-2.9,3.71-20.87,6.25-35,2.11-11.77,10-96.81,10-96.81.27-7-2.08-18.79-3.24-25.66l-7.1-29.61L1118,1385.2c-10.1,13.61-33,9.15-33,9.15-15.88-4.33-18.58-12.95-18.58-12.95l-2.32,85.53a111.34,111.34,0,0,0,7.1,42.25l8.25,21.88a141.18,141.18,0,0,1,8.8,41.55l2.52,40.58Z"/></g><g id="아킬레스건_발목_발" data-name="아킬레스건&amp;발목&amp;발"><polygon class="cls-1" points="922.32 1613.18 922.32 1637.89 932.94 1637.89 933.94 1613.18 922.32 1613.18"/><polygon class="cls-1" points="1090.74 1613.18 1092.17 1637.89 1102.37 1637.89 1102.37 1613.18 1090.74 1613.18"/></g><g id="발목"><path class="cls-1" d="M922.32,1613.19H902s-.11,20.25-3,24.7h23.28Z"/><path class="cls-1" d="M1102.36,1637.89h23.53s-.09-.25-.24-.8c-1.39-3.21-2-10.46-2.32-16.14-.17-2.32-.31-4.9-.41-7.76h-20.56Z"/></g><g id="발"><path class="cls-1" d="M899,1637.89s-15.49,26.84-38.9,36.93c0,0-27,10-21.53,16.84,2.06,2.56,6.67,3.69,11.44.63,0,0-1.62,3.24,1,5a6.42,6.42,0,0,0,9.28-2.61s-1.62,3.24,1.44,4.51c0,0,5,1.82,7.17-2.5,0,0-.69,2.95,3.28,3.67,0,0,4.5.27,6.48-2.8a3.14,3.14,0,0,0,3.06,3.39,17.5,17.5,0,0,0,10.81-2.66s20.77-14,31.34-17.83a16.78,16.78,0,0,1,4.81-.91c3.72-.19,14.52-2,10.32-17.65,0,0-6.62-14.8-6.09-24H899Zm-49,54.4s2.16-3.42,3.78-4.5Zm10.27,2.34a19.12,19.12,0,0,1,2-2.34Zm8.61,2s1.29-2.1,2.37-2.46Zm9.76.87s-.18-.51,1.8-2.1Z"/><path class="cls-1" d="M850.05,1692.29l3.78-4.5C852.21,1688.87,850.05,1692.29,850.05,1692.29Z"/><path class="cls-1" d="M862.3,1692.29a19.12,19.12,0,0,0-2,2.34Z"/><path class="cls-1" d="M868.93,1696.64l2.37-2.46C870.22,1694.54,868.93,1696.64,868.93,1696.64Z"/><path class="cls-1" d="M878.69,1697.51l1.8-2.1C878.51,1697,878.69,1697.51,878.69,1697.51Z"/><path class="cls-1" d="M1174.81,1692.29s-2.16-3.42-3.78-4.5"/><path class="cls-1" d="M1164.72,1674.82c-23.42-10.09-38.91-36.93-38.91-36.93h-33.89c.53,9.16-6.09,24-6.09,24-4.21,15.61,6.6,17.46,10.32,17.65a16.78,16.78,0,0,1,4.81.91c10.57,3.79,31.34,17.83,31.34,17.83a17.5,17.5,0,0,0,10.81,2.66,3.14,3.14,0,0,0,3.06-3.39c2,3.07,6.48,2.8,6.48,2.8,4-.72,3.27-3.67,3.27-3.67,2.16,4.32,7.18,2.5,7.18,2.5,3.06-1.27,1.44-4.51,1.44-4.51a6.42,6.42,0,0,0,9.28,2.61c2.61-1.71,1-5,1-5,4.77,3.06,9.38,1.93,11.44-.63C1191.76,1684.79,1164.72,1674.82,1164.72,1674.82Zm-18.55,22.69-1.8-2.1C1146.35,1697,1146.17,1697.51,1146.17,1697.51Zm7.38-3.33c1.08.36,2.37,2.46,2.37,2.46Zm9-1.89a19.12,19.12,0,0,1,2,2.34Z"/><path class="cls-1" d="M1164.54,1694.63a19.12,19.12,0,0,0-2-2.34Z"/><path class="cls-1" d="M1153.55,1694.18l2.37,2.46S1154.63,1694.54,1153.55,1694.18Z"/><path class="cls-1" d="M1144.37,1695.41l1.8,2.1S1146.35,1697,1144.37,1695.41Z"/><path class="cls-1" d="M1175.73,1692.29l-3.79-4.5C1173.56,1688.87,1175.73,1692.29,1175.73,1692.29Z"/></g></svg>