<svg xmlns="http://www.w3.org/2000/svg" viewBox="0 0 2000 2000"><defs><style>.cls-1{fill:#fff;}.cls-1,.cls-2,.cls-3{stroke:#44bcce;stroke-linecap:round;stroke-linejoin:round;}.cls-1,.cls-3{stroke-width:4px;}.cls-2{fill:none;stroke-width:2px;}.cls-3{fill:#44bcce;}</style></defs><g id="목"><polyline class="cls-1" points="1023.08 483.9 1023.08 527.16 1067.84 553.82 989.09 589.72 907.29 552.72 954.09 528.65 954.32 483.9 1023.08 483.9"/></g><g id="머리"><path class="cls-1" d="M932.28,403s-13.67-74.42,45.13-78.52c1-.07,2.07-.14,3.1-.25,10.35-1.06,82.66-5.52,64.56,79.7,0,0,11.86-8.56,10.41,11.77-.56,7.92-1.44,20.69-14,31.86l-.9,11.91s.36,7.92-9,14.77l-22,17.86a23.31,23.31,0,0,1-14.66,5.19H982.93A21.62,21.62,0,0,1,971,493.63l-21.81-14.55a24.71,24.71,0,0,1-11-19.77l-.31-9.26a50.79,50.79,0,0,1-18.05-27.18C919.47,421.56,912.42,396.73,932.28,403Z"/><path class="cls-2" d="M923.76,419.72s-2.13-15.32,5.18-10.34c2,1.34,7.64,6,7.64,13.92,0,0,.74,8.23-1,9.79a2.72,2.72,0,0,0-.89.21,3.71,3.71,0,0,0-1,6.14,4.37,4.37,0,0,0,3.06,1.12"/><path class="cls-2" d="M936.16,419.67s-5.07,4.92-4.59,10.19"/><path class="cls-2" d="M1050.89,419.72s2.14-15.32-5.17-10.34c-2,1.34-7.65,6-7.65,13.92,0,0-.74,8.23,1,9.79a2.72,2.72,0,0,1,.89.21,3.71,3.71,0,0,1,1,6.14,4.37,4.37,0,0,1-3.06,1.12"/><path class="cls-2" d="M1038.49,419.67s5.07,4.92,4.59,10.19"/></g><g id="얼굴"><path class="cls-1" d="M979.81,365.31c.91-.06,1.83-.19,2.74-.19,15.28-.09,52.55-2.3,46.35,48.91l-3.27,35.68s.26,5-6.49,9.24l-15.89,11.17a18.46,18.46,0,0,1-10.57,3.25h-8.56a17.19,17.19,0,0,1-8.61-2.27L959.78,462a15.15,15.15,0,0,1-7.93-12.37s-3-18.36-3.09-22.71C948.37,397.92,944.85,367.61,979.81,365.31Z"/></g><g id="어깨"><path class="cls-1" d="M907.29,552.72l-47,1.95a21.85,21.85,0,0,0-15.73,7.65l-19.85,23.24A65.43,65.43,0,0,0,809,626.29l-1.54,57.92,60-53.49s3.67-82.57,118.55-42.1Z"/><path class="cls-1" d="M1067.84,553.82l47,1.94a21.92,21.92,0,0,1,15.72,7.65l19.85,23.25a65.4,65.4,0,0,1,15.64,40.72l1.55,57.93-60-53.5s-3.67-82.56-118.56-42.09Z"/></g><g id="팔"><path class="cls-1" d="M839.92,776.08l40-78.9-12.43-66.46-60,53.49s-9.25,16.81-10.69,48.2a107.78,107.78,0,0,1-5.36,29.12l-2.33,7S755.24,792,755.06,835.3a40.8,40.8,0,0,1-.29,4.94c-1.73,13.89-11.1,81.06-34.27,120.64h20l14.09,16.61a.24.24,0,0,0,.42-.18c-3.5-23.61,52.15-104.11,67.41-125.65A79.82,79.82,0,0,0,829.82,839c19.46-42,10.1-62.92,10.1-62.92Z"/><path class="cls-1" d="M1220.41,840.24a38.86,38.86,0,0,1-.28-4.94c-.19-43.33-34.07-66.79-34.07-66.79h-.41l-2.33-7a107.76,107.76,0,0,1-5.35-29.12c-1.45-31.39-10.69-48.2-10.69-48.2l-60-53.49-12.43,66.46,40,78.9.33.18c-.81,2-8.29,22.94,10.18,62.74a80.54,80.54,0,0,0,7.4,12.66c15.16,21.39,70.14,100.92,67.48,125.15a.38.38,0,0,0,.68.29l13.76-16.22h20C1231.52,921.3,1222.15,854.13,1220.41,840.24Z"/></g><g id="팔꿈치"><polygon class="cls-1" points="796.81 732.41 855.35 745.64 839.92 776.08 789.12 768.51 796.81 732.41"/><polygon class="cls-1" points="1178.06 732.41 1119.52 745.64 1134.94 776.08 1185.74 768.51 1178.06 732.41"/></g><g id="손목"><path class="cls-1" d="M761.81,951s-8.65,17.61-6.65,27.21l-14.67-17.3h-20s9.25-18.41,11.25-23.7h17.52Z"/><path class="cls-1" d="M1213.54,951s8.65,17.61,6.66,27.21l14.67-17.3h20s-9.25-18.41-11.25-23.7h-17.52Z"/></g><g id="손"><path class="cls-1" d="M758.89,996.15l-4.39-6.47a8.61,8.61,0,0,1-.75-8.29l1.41-3.21-14.67-17.3h-20l-12.88,49.2a37.58,37.58,0,0,0-.93,4.91l-.77,6.42,31.84,2a1.6,1.6,0,0,1,2.94.81l.22,5h17.36l2.47-25.75A11.09,11.09,0,0,0,758.89,996.15Z"/><path class="cls-1" d="M1268.66,1015a36,36,0,0,0-.94-4.91l-12.87-49.2h-20l-14.67,17.3,1.41,3.21a8.61,8.61,0,0,1-.76,8.29l-4.38,6.47a11.09,11.09,0,0,0-1.86,7.29l2.89,30.19h16.75l.4-9.44a1.61,1.61,0,0,1,2.95-.81l4.35,6.57h28.51Z"/></g><g id="손가락"><path class="cls-1" d="M742.18,1058.52a7.49,7.49,0,0,0,2.94,5.73c3.51,2.58,9.38,2,12.3-26.1l.86-9H740.92Z"/><path class="cls-1" d="M701.87,1055.18a22.66,22.66,0,0,0,0,4.87l4.87,50.17a5.67,5.67,0,0,0,4.69,5.14c1.89.27,4-.36,5.46-3.53a11.31,11.31,0,0,0,.94-4.74l0-3.9-.45-45.36a11.32,11.32,0,0,1,.56-3.62h0a11.63,11.63,0,0,1,1.31-2.73l2.2-3.32,16.4-24.78-31.84-2Z"/><path class="cls-1" d="M717.74,1103.19s8.72-.65,9-12.56a24.43,24.43,0,0,0-.24-3.73l-6-37.25-2.65,4.56h0Z"/><path class="cls-1" d="M1257.61,1103.19s-8.73-.65-9-12.56a22.19,22.19,0,0,1,.24-3.73l6-37.25,2.64,4.56Z"/><path class="cls-1" d="M1217.92,1038.15c2.92,28.09,8.79,28.68,12.3,26.1a7.42,7.42,0,0,0,2.94-5.73l1.08-24.89h-16.75Z"/><path class="cls-1" d="M1273.47,1055.18l-3-25.23h-28.51l12,18.21,2.19,3.32a11.28,11.28,0,0,1,1.88,6.35l-.45,45.36,0,3.9a11,11,0,0,0,.94,4.74c1.46,3.17,3.57,3.8,5.46,3.53a5.67,5.67,0,0,0,4.69-5.14l4.87-50.17A22.66,22.66,0,0,0,1273.47,1055.18Z"/></g><g id="허리"><path class="cls-1" d="M879.91,697.18s17,148,1.69,209.1a13.41,13.41,0,0,0,2.34,11.34l86.24,117.67c4.68,6.22,11.37,10.42,22.64,10.43h0c6.68,0,15.2-5.7,19-12.26,7.67-13.39,51.44-72.58,82.84-114.66,3-4,4.52-10.64,2.84-15.3-4.84-13.4-16.3-81.29-2.6-206.32Z"/><polygon class="cls-1" points="885.4 762.06 887.19 797.7 887.82 834.81 927.03 859.27 927.03 822.55 927.03 822.52 927.03 785.8 927.03 697.18 879.91 697.18 885.4 762.06"/><polygon class="cls-1" points="1052.04 697.18 1052.04 785.8 1052.04 822.52 1052.04 822.55 1052.04 859.27 1091.25 834.81 1091.89 797.7 1093.68 762.06 1094.87 697.18 1052.04 697.18"/></g><g id="배"><polygon class="cls-1" points="989.61 697.18 989.61 744.74 927.03 785.8 927.03 697.18 989.61 697.18"/><path class="cls-1" d="M927,822.55s35.24-13.51,62.58-11.89v-65L927,785.8Z"/><path class="cls-1" d="M989.61,864.53s-43.26,6.78-62.58-5.26V822.52s30.73-13.82,62.58-12Z"/><polygon class="cls-1" points="989.47 697.18 989.47 744.74 1052.04 785.8 1052.04 697.18 989.47 697.18"/><path class="cls-1" d="M1052,822.55s-35.23-13.51-62.57-11.89v-65L1052,785.8Z"/><path class="cls-1" d="M989.47,864.53s43.26,6.78,62.57-5.26V822.52s-30.73-13.82-62.57-12Z"/></g><g id="갈비뼈"><path class="cls-1" d="M879.91,697.18,918.26,714a33.58,33.58,0,0,0,23.9,1.19l47.45-12.05V591s-58.38-22.75-87.35-8.83c-.71.34-1.4.7-2.12,1-4.84,2.15-31.19,15.32-32.66,47.54Z"/><path class="cls-1" d="M1094.79,697.18,1056.44,714a33.6,33.6,0,0,1-23.91,1.19l-42.92-12.05V591s53.86-22.75,82.83-8.83c.7.34,1.4.7,2.12,1,4.83,2.15,31.18,15.32,32.66,47.54Z"/></g><g id="골반"><path class="cls-1" d="M989.61,1045.71v-181s-37.78,7.51-62.58-5.43l34.42,163.65S973,1045.73,989.61,1045.71Z"/><path class="cls-1" d="M887.82,834.81s.55,43-4.61,63.76c0,0-4.67,13.14,1.24,20.23,1,1.19,2,2.35,2.94,3.59l73.21,99L927,859.27Z"/><path class="cls-1" d="M989.47,1045.71v-181s37.78,7.51,62.57-5.43l-33.33,158.47a40.39,40.39,0,0,1-5.42,13.49C1008.78,1038.32,1000.78,1047.15,989.47,1045.71Z"/><path class="cls-1" d="M1091.25,834.81s-.54,43,4.62,63.76c0,0,4.67,13.14-1.24,20.23-1,1.19-2,2.35-2.94,3.59l-74.08,101.09L1052,859.27Z"/></g><g id="허벅지"><path class="cls-1" d="M948.71,1002l-45.24-57.83-19-25.34-18.3,64.73a93.53,93.53,0,0,0-3.54,25.49v185.31l4.87,95.1a14,14,0,0,0,13.64-10.73c2.33-10.16,9.06-24.54,28.36-29.26,0,0,21.52,10.7,24.27,40a7.94,7.94,0,0,0,2.19,4.77l12.59,13.06v-26.83a276.81,276.81,0,0,1,12.35-81.72l8.85-28.63a121.93,121.93,0,0,0,5.16-27.76l6.62-98.42Z"/><path class="cls-1" d="M1111.35,983.53l-16.72-64.73L1074,944.14,1028.79,1002,996,1043.9l6.62,98.42a121.93,121.93,0,0,0,5.16,27.76l8.85,28.63a276.8,276.8,0,0,1,12.34,81.72v26.83l12.6-13.06a7.94,7.94,0,0,0,2.19-4.77c2.75-29.29,24.27-40,24.27-40,19.3,4.72,26,19.1,28.36,29.26a14,14,0,0,0,13.64,10.73h0l4.86-95.1V1009A93.52,93.52,0,0,0,1111.35,983.53Z"/></g><g id="무릎"><path class="cls-1" d="M867.48,1289.43s3.7,31,.83,45.89a8.19,8.19,0,0,0,1.41,6.38l11.66,16.1a29.37,29.37,0,0,0,23.8,12.15h7a37.2,37.2,0,0,0,18.55-7.92c1.29-1.34,4.19-2.74,4.37-5.41.41-6.11,3.15-15.79,5.12-21.6,1.06-3.12,2.08-6.25,3-9.42l5.32-18.34-10.72-10a15.69,15.69,0,0,1-4.06-7.79c-1.84-9.14-6.42-30-24.27-40,0,0-20.09,1-28.39,27-1.36,4.22-2.3,8.75-6.18,10.89Z"/><path class="cls-1" d="M1110.17,1289.43s-3.69,31-.83,45.89a8.19,8.19,0,0,1-1.41,6.38l-11.65,16.1a29.4,29.4,0,0,1-23.8,12.15h-7a37.2,37.2,0,0,1-18.55-7.92c-1.29-1.34-4.19-2.74-4.37-5.41-.41-6.11-3.15-15.79-5.12-21.6-1-3.12-2.08-6.25-3-9.42l-5.32-18.34,10.72-10a15.61,15.61,0,0,0,4.06-7.79c1.84-9.14,6.42-30,24.27-40,0,0,20.1,1,28.4,27,1.35,4.22,2.29,8.75,6.18,10.89Z"/></g><g id="정강이"><path class="cls-1" d="M937.41,1442.16l-2.32-85.54s-2.71,8.62-18.59,13c0,0-22.88,4.46-33-9.15l-13.8-18.73-7.11,29.6c-1.16,6.87-3.51,18.7-3.24,25.67,0,0,7.85,85,10,96.81,2.54,14.16,5.93,32.13,6.24,35,7,64.3,0,84.3,0,84.3,2.86-4.46,3-24.71,3-24.71h32.36l-1.43,24.71,3.77-65.29a140.81,140.81,0,0,1,8.81-41.54l8.24-21.89A111.33,111.33,0,0,0,937.41,1442.16Z"/><path class="cls-1" d="M1078.9,1588.41h20.56c-.46-13.18,0-32.44,3-59.59.32-2.91,3.71-20.88,6.25-35,2.11-11.77,10-96.81,10-96.81.27-7-2.08-18.8-3.24-25.67l-7.1-29.6-13.8,18.73c-10.11,13.61-33,9.15-33,9.15-15.88-4.34-18.58-13-18.58-13l-2.32,85.54a111.32,111.32,0,0,0,7.1,42.24l8.24,21.89a140.81,140.81,0,0,1,8.81,41.54l2.52,40.58Z"/></g><g id="아킬레스건_발목_발" data-name="아킬레스건&amp;발목&amp;발"><polygon class="cls-1" points="898.86 1588.41 898.86 1613.12 909.48 1613.12 910.48 1588.41 898.86 1588.41"/><polygon class="cls-1" points="1067.28 1588.41 1068.71 1613.12 1078.9 1613.12 1078.9 1588.41 1067.28 1588.41"/></g><g id="발목"><path class="cls-1" d="M898.85,1588.41h-20.3s-.11,20.25-3,24.71h23.27Z"/><path class="cls-1" d="M1078.9,1613.12h23.53s-.09-.26-.24-.8c-1.39-3.21-2-10.46-2.32-16.15-.17-2.31-.31-4.89-.41-7.76H1078.9Z"/></g><g id="발"><path class="cls-3" d="M875.58,1613.12S860.09,1640,836.68,1650c0,0-27,10-21.53,16.84,2.06,2.57,6.67,3.7,11.44.63,0,0-1.62,3.25,1,5a6.43,6.43,0,0,0,9.28-2.61s-1.62,3.24,1.44,4.5c0,0,5,1.82,7.17-2.5,0,0-.69,3,3.28,3.67,0,0,4.5.27,6.48-2.79a3.13,3.13,0,0,0,3.06,3.38,17.45,17.45,0,0,0,10.81-2.66s20.77-14,31.34-17.82a16.46,16.46,0,0,1,4.81-.92c3.72-.18,14.52-2,10.32-17.65,0,0-6.62-14.8-6.09-24h-33.9Zm-49,54.39s2.16-3.42,3.78-4.5Zm10.27,2.35a19.62,19.62,0,0,1,2-2.35Zm8.61,2s1.29-2.09,2.37-2.45Zm9.76.88s-.18-.52,1.8-2.11Z"/><path class="cls-3" d="M826.59,1667.51l3.78-4.5C828.75,1664.09,826.59,1667.51,826.59,1667.51Z"/><path class="cls-3" d="M838.84,1667.51a19.62,19.62,0,0,0-2,2.35Z"/><path class="cls-3" d="M845.47,1671.86l2.37-2.45C846.76,1669.77,845.47,1671.86,845.47,1671.86Z"/><path class="cls-3" d="M855.23,1672.74l1.8-2.11C855.05,1672.22,855.23,1672.74,855.23,1672.74Z"/><path class="cls-3" d="M1151.35,1667.51s-2.16-3.42-3.79-4.5"/><path class="cls-3" d="M1141.26,1650c-23.42-10.08-38.91-36.92-38.91-36.92h-33.89c.53,9.15-6.09,24-6.09,24-4.21,15.61,6.6,17.47,10.32,17.65a16.46,16.46,0,0,1,4.81.92c10.57,3.79,31.34,17.82,31.34,17.82a17.43,17.43,0,0,0,10.81,2.66,3.13,3.13,0,0,0,3.06-3.38c2,3.06,6.48,2.79,6.48,2.79,4-.72,3.27-3.67,3.27-3.67,2.16,4.32,7.18,2.5,7.18,2.5,3.06-1.26,1.44-4.5,1.44-4.5a6.43,6.43,0,0,0,9.28,2.61c2.61-1.71,1-5,1-5,4.77,3.07,9.38,1.94,11.44-.63C1168.3,1660,1141.26,1650,1141.26,1650Zm-18.55,22.7-1.8-2.11C1122.89,1672.22,1122.71,1672.74,1122.71,1672.74Zm7.38-3.33c1.08.36,2.37,2.45,2.37,2.45Zm9-1.9a19.62,19.62,0,0,1,2,2.35Z"/><path class="cls-3" d="M1141.08,1669.86a19.62,19.62,0,0,0-2-2.35Z"/><path class="cls-3" d="M1130.09,1669.41l2.37,2.45S1131.17,1669.77,1130.09,1669.41Z"/><path class="cls-3" d="M1120.91,1670.63l1.8,2.11S1122.89,1672.22,1120.91,1670.63Z"/><path class="cls-3" d="M1152.27,1667.51l-3.79-4.5C1150.1,1664.09,1152.27,1667.51,1152.27,1667.51Z"/></g></svg>