<svg xmlns="http://www.w3.org/2000/svg" viewBox="0 0 2000 2000"><defs><style>.cls-1{fill:#fff;}.cls-1,.cls-2,.cls-3{stroke:#44bcce;stroke-linecap:round;stroke-linejoin:round;}.cls-1,.cls-3{stroke-width:4px;}.cls-2{fill:none;stroke-width:2px;}.cls-3{fill:#44bcce;}</style></defs><g id="목"><polyline class="cls-1" points="1046.54 490.98 1046.54 534.23 1091.3 560.89 1012.55 596.79 930.75 559.79 977.55 535.72 977.78 490.98 1046.54 490.98"/></g><g id="머리"><path class="cls-1" d="M955.74,410s-13.67-74.42,45.13-78.52c1-.07,2.07-.14,3.1-.25,10.35-1.06,82.66-5.52,64.56,79.7,0,0,11.86-8.56,10.41,11.77-.56,7.93-1.44,20.69-14,31.86l-.9,11.91s.36,7.92-9,14.77l-22,17.86a23.31,23.31,0,0,1-14.66,5.19h-11.89a21.54,21.54,0,0,1-11.95-3.61l-21.81-14.55a24.7,24.7,0,0,1-11-19.77l-.31-9.26a50.73,50.73,0,0,1-18.05-27.18C942.93,428.63,935.88,403.8,955.74,410Z"/><path class="cls-2" d="M947.22,426.79s-2.13-15.32,5.18-10.34c2,1.34,7.64,6,7.64,13.92,0,0,.74,8.23-1,9.79a2.62,2.62,0,0,0-.89.22,3.7,3.7,0,0,0-1,6.13,4.39,4.39,0,0,0,3.06,1.12"/><path class="cls-2" d="M959.62,426.74s-5.07,4.93-4.59,10.19"/><path class="cls-2" d="M1074.35,426.79s2.14-15.32-5.17-10.34c-2,1.34-7.65,6-7.65,13.92,0,0-.74,8.23,1,9.79a2.62,2.62,0,0,1,.89.22,3.7,3.7,0,0,1,1,6.13,4.37,4.37,0,0,1-3.06,1.12"/><path class="cls-2" d="M1062,426.74s5.07,4.93,4.6,10.19"/></g><g id="얼굴"><path class="cls-1" d="M1003.27,372.38c.91-.06,1.83-.19,2.74-.19,15.28-.09,52.55-2.3,46.36,48.91l-3.28,35.68s.26,5-6.49,9.24l-15.89,11.17a18.46,18.46,0,0,1-10.57,3.25h-8.56a17.19,17.19,0,0,1-8.61-2.27l-15.73-9.09a15.15,15.15,0,0,1-7.93-12.37s-3-18.36-3.09-22.71C971.83,405,968.31,374.69,1003.27,372.38Z"/></g><g id="어깨"><path class="cls-1" d="M930.75,559.79l-47,2A21.85,21.85,0,0,0,868,569.39l-19.85,23.24a65.43,65.43,0,0,0-15.64,40.73L831,691.28l60-53.49s3.67-82.56,118.55-42.09Z"/><path class="cls-1" d="M1091.3,560.89l47,2a21.85,21.85,0,0,1,15.72,7.65l19.85,23.24a65.4,65.4,0,0,1,15.64,40.73l1.55,57.92-60-53.5s-3.67-82.56-118.56-42.09Z"/></g><g id="팔"><path class="cls-1" d="M863.38,783.15l40-78.9-12.43-66.46-60,53.49s-9.25,16.81-10.69,48.2a107.7,107.7,0,0,1-5.36,29.12l-2.33,7S778.7,799,778.52,842.37a40.8,40.8,0,0,1-.29,4.94C776.5,861.2,767.13,928.37,744,968h20L778,984.56a.24.24,0,0,0,.42-.18c-3.5-23.61,52.15-104.11,67.41-125.65a79.38,79.38,0,0,0,7.41-12.66c19.46-42,10.1-62.92,10.1-62.92Z"/><path class="cls-1" d="M1243.87,847.31a38.86,38.86,0,0,1-.28-4.94c-.19-43.33-34.07-66.79-34.07-66.79h-.41l-2.33-7a107.69,107.69,0,0,1-5.35-29.12c-1.45-31.39-10.69-48.2-10.69-48.2l-60-53.49-12.43,66.46,40,78.9.33.18c-.81,2-8.29,22.94,10.18,62.74a80.09,80.09,0,0,0,7.4,12.66c15.16,21.39,70.14,100.92,67.48,125.15a.39.39,0,0,0,.69.29L1258.15,968h20C1255,928.37,1245.61,861.2,1243.87,847.31Z"/></g><g id="팔꿈치"><polygon class="cls-1" points="820.27 739.48 878.81 752.71 863.38 783.15 812.58 775.58 820.27 739.48"/><polygon class="cls-1" points="1201.52 739.48 1142.98 752.71 1158.4 783.15 1209.2 775.58 1201.52 739.48"/></g><g id="손목"><path class="cls-1" d="M785.27,958.05s-8.65,17.6-6.65,27.2L764,968H744s9.25-18.41,11.25-23.71h17.52Z"/><path class="cls-1" d="M1237,958.05s8.64,17.6,6.65,27.2L1258.33,968h20s-9.25-18.41-11.25-23.71h-17.52Z"/></g><g id="손"><path class="cls-3" d="M782.35,1003.22,778,996.75a8.63,8.63,0,0,1-.75-8.29l1.41-3.21L764,968H744l-12.88,49.19a37.58,37.58,0,0,0-.93,4.91l-.77,6.42,31.84,2a1.6,1.6,0,0,1,2.94.81l.22,5h17.36l2.47-25.75A11.09,11.09,0,0,0,782.35,1003.22Z"/><path class="cls-3" d="M1292.12,1022.06a37.58,37.58,0,0,0-.93-4.91L1278.31,968h-20l-14.67,17.29,1.41,3.21a8.61,8.61,0,0,1-.76,8.29l-4.38,6.47a11.09,11.09,0,0,0-1.86,7.29l2.89,30.19h16.75l.4-9.44a1.61,1.61,0,0,1,3-.81l4.35,6.58h28.51Z"/></g><g id="손가락"><path class="cls-3" d="M765.64,1065.6a7.52,7.52,0,0,0,2.94,5.73c3.51,2.58,9.38,2,12.3-26.11l.86-9H764.38Z"/><path class="cls-3" d="M725.33,1062.25a22.66,22.66,0,0,0-.05,4.87l4.87,50.17a5.69,5.69,0,0,0,4.69,5.15c1.89.27,4-.37,5.46-3.54a11.16,11.16,0,0,0,.94-4.74l0-3.9-.45-45.36a11.32,11.32,0,0,1,.56-3.62h0a11.56,11.56,0,0,1,1.31-2.72l2.2-3.33,16.4-24.78-31.84-2Z"/><path class="cls-3" d="M741.2,1110.26s8.72-.65,9-12.56A24.6,24.6,0,0,0,750,1094l-6-37.25-2.65,4.56h0Z"/><path class="cls-3" d="M1281.07,1110.26s-8.73-.65-9-12.56a23.37,23.37,0,0,1,.24-3.73l6-37.25,2.64,4.56Z"/><path class="cls-3" d="M1241.38,1045.22c2.92,28.09,8.8,28.69,12.3,26.11a7.46,7.46,0,0,0,2.94-5.73l1.08-24.9H1241Z"/><path class="cls-3" d="M1296.93,1062.25l-3-25.22H1265.4l12,18.2,2.19,3.33a11.27,11.27,0,0,1,1.88,6.34l-.45,45.36,0,3.9a11,11,0,0,0,.94,4.74c1.46,3.17,3.57,3.81,5.46,3.54a5.69,5.69,0,0,0,4.69-5.15l4.87-50.17A22.66,22.66,0,0,0,1296.93,1062.25Z"/></g><g id="허리"><path class="cls-1" d="M903.37,704.25s17,148,1.69,209.1a13.41,13.41,0,0,0,2.34,11.34l86.24,117.67c4.68,6.23,11.37,10.42,22.64,10.43h0c6.68,0,15.2-5.7,19-12.26,7.67-13.39,51.44-72.57,82.84-114.66,3-4,4.53-10.64,2.84-15.3-4.84-13.4-16.3-81.29-2.6-206.32Z"/><polygon class="cls-1" points="908.86 769.13 910.65 804.77 911.28 841.88 950.5 866.34 950.5 829.62 950.5 829.59 950.5 792.88 950.5 704.25 903.37 704.25 908.86 769.13"/><polygon class="cls-1" points="1075.5 704.25 1075.5 792.88 1075.5 829.59 1075.5 829.62 1075.5 866.34 1114.71 841.88 1115.35 804.77 1117.14 769.13 1118.33 704.25 1075.5 704.25"/></g><g id="배"><polygon class="cls-1" points="1013.07 704.25 1013.07 751.81 950.5 792.88 950.5 704.25 1013.07 704.25"/><path class="cls-1" d="M950.49,829.62s35.24-13.51,62.58-11.89v-65l-62.58,40.16Z"/><path class="cls-1" d="M1013.07,871.61s-43.26,6.77-62.58-5.27V829.59s30.73-13.82,62.58-12Z"/><polygon class="cls-1" points="1012.93 704.25 1012.93 751.81 1075.5 792.88 1075.5 704.25 1012.93 704.25"/><path class="cls-1" d="M1075.5,829.62s-35.23-13.51-62.57-11.89v-65l62.57,40.16Z"/><path class="cls-1" d="M1012.93,871.61s43.26,6.77,62.57-5.27V829.59s-30.72-13.82-62.57-12Z"/></g><g id="갈비뼈"><path class="cls-1" d="M903.37,704.25l38.35,16.83a33.63,33.63,0,0,0,23.9,1.2l47.45-12.06V598.06s-58.38-22.74-87.35-8.83c-.71.34-1.4.7-2.12,1-4.84,2.15-31.19,15.32-32.66,47.54Z"/><path class="cls-1" d="M1118.25,704.25l-38.35,16.83a33.66,33.66,0,0,1-23.91,1.2l-42.92-12.06V598.06s53.86-22.74,82.83-8.83c.7.34,1.4.7,2.12,1,4.83,2.15,31.18,15.32,32.66,47.54Z"/></g><g id="골반"><path class="cls-1" d="M1013.07,1052.78v-181s-37.78,7.51-62.58-5.43L984.91,1030S996.49,1052.8,1013.07,1052.78Z"/><path class="cls-1" d="M911.28,841.89s.55,43-4.61,63.75c0,0-4.67,13.14,1.24,20.23,1,1.19,2,2.35,2.94,3.6l73.21,99L950.49,866.34Z"/><path class="cls-1" d="M1012.93,1052.78v-181s37.78,7.51,62.57-5.43l-33.33,158.47a40.39,40.39,0,0,1-5.42,13.49C1032.24,1045.39,1024.24,1054.22,1012.93,1052.78Z"/><path class="cls-1" d="M1114.71,841.89s-.54,43,4.62,63.75c0,0,4.67,13.14-1.24,20.23-1,1.19-2,2.35-2.94,3.6l-74.08,101.08,34.43-164.21Z"/></g><g id="허벅지"><path class="cls-1" d="M972.17,1009l-45.24-57.82-19-25.35-18.3,64.74a93.39,93.39,0,0,0-3.53,25.48V1201.4l4.86,95.1a14,14,0,0,0,13.64-10.73c2.33-10.16,9.06-24.54,28.36-29.25,0,0,21.52,10.69,24.27,40a7.94,7.94,0,0,0,2.19,4.77L972,1314.34V1287.5a276.81,276.81,0,0,1,12.35-81.72l8.85-28.63a121.93,121.93,0,0,0,5.16-27.76L1005,1051Z"/><path class="cls-1" d="M1134.81,990.61l-16.72-64.74-20.6,25.35L1052.25,1009l-32.8,41.93,6.62,98.42a121.93,121.93,0,0,0,5.16,27.76l8.85,28.63a276.8,276.8,0,0,1,12.34,81.72v26.84l12.6-13.07a7.94,7.94,0,0,0,2.19-4.77c2.75-29.29,24.27-40,24.27-40,19.3,4.71,26,19.09,28.36,29.25a14,14,0,0,0,13.64,10.73h0l4.86-95.1V1016.09A93.39,93.39,0,0,0,1134.81,990.61Z"/></g><g id="무릎"><path class="cls-1" d="M890.94,1296.5s3.7,31,.83,45.89a8.19,8.19,0,0,0,1.41,6.38l11.66,16.1a29.37,29.37,0,0,0,23.8,12.15h7a37.23,37.23,0,0,0,18.54-7.91c1.29-1.35,4.19-2.75,4.37-5.41.41-6.12,3.15-15.79,5.12-21.6,1.06-3.13,2.08-6.26,3-9.42l5.32-18.34-10.72-10a15.69,15.69,0,0,1-4.06-7.79c-1.84-9.14-6.42-30-24.27-40,0,0-20.09,1-28.39,27-1.36,4.23-2.3,8.75-6.18,10.89Z"/><path class="cls-1" d="M1133.63,1296.5s-3.69,31-.83,45.89a8.23,8.23,0,0,1-1.4,6.38l-11.66,16.1a29.4,29.4,0,0,1-23.8,12.15h-7a37.24,37.24,0,0,1-18.55-7.91c-1.29-1.35-4.19-2.75-4.37-5.41-.41-6.12-3.15-15.79-5.12-21.6-1.05-3.13-2.08-6.26-3-9.42l-5.32-18.34,10.72-10a15.61,15.61,0,0,0,4.06-7.79c1.84-9.14,6.42-30,24.27-40,0,0,20.1,1,28.4,27,1.35,4.23,2.29,8.75,6.18,10.89Z"/></g><g id="정강이"><path class="cls-1" d="M960.87,1449.23l-2.32-85.53s-2.71,8.61-18.59,13c0,0-22.88,4.46-33-9.15l-13.8-18.73-7.1,29.6c-1.17,6.88-3.51,18.7-3.25,25.67,0,0,7.85,85,10,96.81,2.54,14.16,5.93,32.13,6.24,35,7,64.3,0,84.3,0,84.3,2.86-4.45,3-24.71,3-24.71h32.36l-1.43,24.71,3.77-65.29a140.81,140.81,0,0,1,8.81-41.54l8.24-21.89A111.3,111.3,0,0,0,960.87,1449.23Z"/><path class="cls-1" d="M1102.36,1595.48h20.56c-.46-13.18,0-32.43,3-59.59.32-2.91,3.71-20.88,6.25-35,2.11-11.77,10-96.81,10-96.81.27-7-2.08-18.79-3.24-25.67l-7.1-29.6L1118,1367.5c-10.1,13.61-33,9.15-33,9.15-15.88-4.34-18.58-13-18.58-13l-2.32,85.53a111.29,111.29,0,0,0,7.1,42.24l8.25,21.89a141.11,141.11,0,0,1,8.8,41.54l2.52,40.58Z"/></g><g id="아킬레스건_발목_발" data-name="아킬레스건&amp;발목&amp;발"><polygon class="cls-1" points="922.32 1595.48 922.32 1620.19 932.94 1620.19 933.94 1595.48 922.32 1595.48"/><polygon class="cls-1" points="1090.74 1595.48 1092.17 1620.19 1102.37 1620.19 1102.37 1595.48 1090.74 1595.48"/></g><g id="발목"><path class="cls-1" d="M922.32,1595.48H902s-.11,20.26-3,24.71h23.28Z"/><path class="cls-1" d="M1102.36,1620.19h23.53s-.09-.26-.24-.8c-1.39-3.21-2-10.46-2.32-16.15-.17-2.31-.31-4.89-.41-7.76h-20.56Z"/></g><g id="발"><path class="cls-1" d="M899,1620.19s-15.49,26.84-38.9,36.92c0,0-27,10-21.53,16.85,2.06,2.56,6.67,3.69,11.44.63,0,0-1.62,3.24,1,5a6.43,6.43,0,0,0,9.28-2.61s-1.62,3.24,1.44,4.5c0,0,5,1.83,7.17-2.5,0,0-.69,3,3.28,3.67,0,0,4.5.27,6.48-2.79a3.13,3.13,0,0,0,3.06,3.38,17.43,17.43,0,0,0,10.81-2.66s20.77-14,31.34-17.82a16.46,16.46,0,0,1,4.81-.92c3.72-.18,14.52-2,10.32-17.65,0,0-6.62-14.8-6.09-24H899Zm-49,54.4s2.16-3.43,3.78-4.51Zm10.27,2.34a19.12,19.12,0,0,1,2-2.34Zm8.61,2s1.29-2.09,2.37-2.45Zm9.76.88s-.18-.52,1.8-2.1Z"/><path class="cls-1" d="M850.05,1674.59l3.78-4.51C852.21,1671.16,850.05,1674.59,850.05,1674.59Z"/><path class="cls-1" d="M862.3,1674.59a19.12,19.12,0,0,0-2,2.34Z"/><path class="cls-1" d="M868.93,1678.93l2.37-2.45C870.22,1676.84,868.93,1678.93,868.93,1678.93Z"/><path class="cls-1" d="M878.69,1679.81l1.8-2.1C878.51,1679.29,878.69,1679.81,878.69,1679.81Z"/><path class="cls-1" d="M1174.81,1674.59s-2.16-3.43-3.78-4.51"/><path class="cls-1" d="M1164.72,1657.11c-23.42-10.08-38.91-36.92-38.91-36.92h-33.89c.53,9.15-6.09,24-6.09,24-4.21,15.62,6.6,17.47,10.32,17.65a16.46,16.46,0,0,1,4.81.92c10.57,3.79,31.34,17.82,31.34,17.82a17.43,17.43,0,0,0,10.81,2.66,3.13,3.13,0,0,0,3.06-3.38c2,3.06,6.48,2.79,6.48,2.79,4-.72,3.27-3.67,3.27-3.67,2.16,4.33,7.18,2.5,7.18,2.5,3.06-1.26,1.44-4.5,1.44-4.5a6.43,6.43,0,0,0,9.28,2.61c2.61-1.71,1-5,1-5,4.77,3.06,9.38,1.93,11.44-.63C1191.76,1667.08,1164.72,1657.11,1164.72,1657.11Zm-18.55,22.7-1.8-2.1C1146.35,1679.29,1146.17,1679.81,1146.17,1679.81Zm7.38-3.33c1.08.36,2.37,2.45,2.37,2.45Zm9-1.89a19.12,19.12,0,0,1,2,2.34Z"/><path class="cls-1" d="M1164.54,1676.93a19.12,19.12,0,0,0-2-2.34Z"/><path class="cls-1" d="M1153.55,1676.48l2.37,2.45S1154.63,1676.84,1153.55,1676.48Z"/><path class="cls-1" d="M1144.37,1677.71l1.8,2.1S1146.35,1679.29,1144.37,1677.71Z"/><path class="cls-1" d="M1175.73,1674.59l-3.79-4.51C1173.56,1671.16,1175.73,1674.59,1175.73,1674.59Z"/></g></svg>