<svg xmlns="http://www.w3.org/2000/svg" viewBox="0 0 2000 2000"><defs><style>.cls-1{fill:#fff;}.cls-1,.cls-2,.cls-3{stroke:#44bcce;stroke-linecap:round;stroke-linejoin:round;}.cls-1,.cls-2{stroke-width:4px;}.cls-2,.cls-3{fill:#44bcce;}.cls-3{stroke-width:2px;}</style></defs><title>부상파트</title><g id="목"><polyline class="cls-1" points="1035.4 505.24 1035.4 548.5 1080.17 575.15 1001.42 611.06 919.61 574.06 966.41 549.99 966.65 505.24 1035.4 505.24"/></g><g id="머리"><path class="cls-2" d="M944.61,424.28s-13.67-74.42,45.13-78.51c1-.08,2.06-.15,3.1-.25,10.35-1.06,82.66-5.52,64.56,79.7,0,0,11.86-8.56,10.41,11.76-.56,7.93-1.45,20.7-14.06,31.86l-.89,11.91s.36,7.93-9,14.77l-22,17.87a23.31,23.31,0,0,1-14.67,5.19H995.26a21.53,21.53,0,0,1-12-3.62L961.5,500.42a24.72,24.72,0,0,1-11-19.77l-.3-9.26a50.79,50.79,0,0,1-18.05-27.18C931.8,442.89,924.74,418.07,944.61,424.28Z"/><path class="cls-3" d="M936.09,441.05s-2.14-15.31,5.17-10.33c2,1.34,7.65,6,7.65,13.91,0,0,.74,8.24-1,9.79a2.62,2.62,0,0,0-.89.22,3.71,3.71,0,0,0-1,6.14,4.42,4.42,0,0,0,3.06,1.12"/><path class="cls-3" d="M948.49,441s-5.07,4.93-4.6,10.19"/><path class="cls-3" d="M1063.22,441.05s2.13-15.31-5.18-10.33c-2,1.34-7.64,6-7.64,13.91,0,0-.74,8.24,1,9.79a2.69,2.69,0,0,1,.9.22,3.7,3.7,0,0,1,1,6.14,4.39,4.39,0,0,1-3,1.12"/><path class="cls-3" d="M1050.82,441s5.07,4.93,4.59,10.19"/></g><g id="얼굴"><path class="cls-1" d="M991.69,386.65c.91-.06,1.82-.19,2.74-.2,15.28-.08,52.55-2.3,46.35,48.91l-3.27,35.69s.26,4.95-6.49,9.23l-15.89,11.17a18.38,18.38,0,0,1-10.57,3.25H996a17.29,17.29,0,0,1-8.61-2.26l-15.73-9.1A15.14,15.14,0,0,1,963.73,471s-3-18.36-3.09-22.71C960.25,419.26,956.73,389,991.69,386.65Z"/></g><g id="어깨"><path class="cls-1" d="M919.61,574.06l-47,2a21.85,21.85,0,0,0-15.73,7.65L837,606.9a65.4,65.4,0,0,0-15.64,40.72l-1.55,57.93,60-53.5s3.67-82.56,118.55-42.09Z"/><path class="cls-1" d="M1080.17,575.15l47,2a21.85,21.85,0,0,1,15.73,7.65L1162.77,608a65.43,65.43,0,0,1,15.64,40.73l1.55,57.93-60-53.5s-3.67-82.56-118.55-42.09Z"/></g><g id="팔"><path class="cls-1" d="M852.25,797.41l40-78.89-12.42-66.47-60,53.5s-9.24,16.81-10.68,48.19a108.16,108.16,0,0,1-5.36,29.13l-2.33,7s-33.88,23.45-34.07,66.78a38.75,38.75,0,0,1-.28,4.94c-1.74,13.89-11.11,81.07-34.28,120.65h20l14.09,16.61a.24.24,0,0,0,.42-.18C763.83,975,819.48,894.54,834.74,873a81,81,0,0,0,7.4-12.66c19.46-42,10.11-62.93,10.11-62.93Z"/><path class="cls-1" d="M1232.74,861.57a40.68,40.68,0,0,1-.29-4.94c-.18-43.33-34.06-66.78-34.06-66.78H1198l-2.33-7a107.78,107.78,0,0,1-5.36-29.13c-1.44-31.38-10.69-48.19-10.69-48.19l-60-53.5-12.43,66.47,40,78.89.34.18c-.82,2-8.29,22.94,10.17,62.75A81.05,81.05,0,0,0,1165.1,873c15.15,21.39,70.14,100.92,67.48,125.14a.39.39,0,0,0,.68.3L1247,982.22h20C1243.84,942.64,1234.47,875.46,1232.74,861.57Z"/></g><g id="팔꿈치"><polygon class="cls-1" points="809.14 753.74 867.67 766.97 852.25 797.41 801.45 789.85 809.14 753.74"/><polygon class="cls-1" points="1190.38 753.74 1131.84 766.97 1147.27 797.41 1198.07 789.85 1190.38 753.74"/></g><g id="손목"><path class="cls-1" d="M774.14,972.31s-8.65,17.61-6.65,27.2l-14.67-17.29h-20s9.25-18.41,11.25-23.7h17.52Z"/><path class="cls-1" d="M1225.87,972.31s8.65,17.61,6.65,27.2l14.67-17.29h20s-9.25-18.41-11.25-23.7h-17.52Z"/></g><g id="손"><path class="cls-1" d="M771.22,1017.49l-4.39-6.48a8.59,8.59,0,0,1-.75-8.28l1.41-3.22-14.67-17.29h-20L720,1031.42a35.42,35.42,0,0,0-.93,4.91l-.77,6.41,31.83,2a1.61,1.61,0,0,1,2.95.82l.22,5h17.36l2.47-25.75A11.15,11.15,0,0,0,771.22,1017.49Z"/><path class="cls-1" d="M1281,1036.33a35.42,35.42,0,0,0-.93-4.91l-12.87-49.2h-20l-14.67,17.29,1.41,3.22a8.59,8.59,0,0,1-.75,8.28l-4.39,6.48a11.15,11.15,0,0,0-1.86,7.29l2.9,30.19h16.74l.41-9.44a1.61,1.61,0,0,1,3-.82l4.35,6.58h28.51Z"/></g><g id="손가락"><path class="cls-1" d="M754.51,1079.86a7.49,7.49,0,0,0,2.94,5.73c3.51,2.58,9.38,2,12.3-26.1l.86-9H753.25Z"/><path class="cls-1" d="M714.2,1076.52a22.56,22.56,0,0,0-.05,4.86l4.87,50.18a5.66,5.66,0,0,0,4.68,5.14c1.9.27,4-.37,5.46-3.54a11,11,0,0,0,.94-4.73l0-3.9-.44-45.36a11.05,11.05,0,0,1,.56-3.62h0a11.25,11.25,0,0,1,1.31-2.73l2.2-3.32,16.39-24.79-31.83-2Z"/><path class="cls-1" d="M730.06,1124.53s8.73-.65,9-12.56a24.64,24.64,0,0,0-.24-3.74l-6-37.24-2.64,4.56h0Z"/><path class="cls-1" d="M1269.94,1124.53s-8.73-.65-9-12.56a24.64,24.64,0,0,1,.24-3.74l6-37.24,2.64,4.56Z"/><path class="cls-1" d="M1230.25,1059.49c2.92,28.09,8.79,28.68,12.3,26.1a7.49,7.49,0,0,0,2.94-5.73l1.07-24.89h-16.74Z"/><path class="cls-1" d="M1285.8,1076.52l-3-25.23h-28.51l12,18.21,2.2,3.32a11.27,11.27,0,0,1,1.87,6.35l-.44,45.36,0,3.9a11,11,0,0,0,.94,4.73c1.46,3.17,3.56,3.81,5.46,3.54a5.66,5.66,0,0,0,4.68-5.14l4.87-50.18A22.56,22.56,0,0,0,1285.8,1076.52Z"/></g><g id="허리"><path class="cls-1" d="M892.23,718.52s17,148,1.7,209.1A13.38,13.38,0,0,0,896.27,939l86.23,117.67c4.69,6.23,11.37,10.42,22.64,10.44h0c6.69,0,15.21-5.71,19-12.26,7.67-13.39,51.44-72.58,82.84-114.67,3-4,4.52-10.63,2.84-15.3-4.84-13.4-16.3-81.28-2.61-206.31Z"/><polygon class="cls-1" points="897.73 783.39 899.52 819.04 900.15 856.15 939.36 880.6 939.36 843.88 939.36 843.86 939.36 807.14 939.36 718.52 892.23 718.52 897.73 783.39"/><polygon class="cls-1" points="1064.37 718.52 1064.37 807.14 1064.37 843.86 1064.37 843.88 1064.37 880.6 1103.58 856.15 1104.21 819.04 1106 783.39 1107.19 718.52 1064.37 718.52"/></g><g id="배"><polygon class="cls-1" points="1001.94 718.52 1001.94 766.07 939.36 807.14 939.36 718.52 1001.94 718.52"/><path class="cls-1" d="M939.36,843.89s35.23-13.51,62.58-11.89V767l-62.58,40.17Z"/><path class="cls-1" d="M1001.94,885.87s-43.26,6.78-62.58-5.27V843.86s30.73-13.83,62.58-12Z"/><polygon class="cls-1" points="1001.79 718.52 1001.79 766.07 1064.37 807.14 1064.37 718.52 1001.79 718.52"/><path class="cls-1" d="M1064.37,843.89s-35.23-13.51-62.58-11.89V767l62.58,40.17Z"/><path class="cls-1" d="M1001.79,885.87s43.26,6.78,62.58-5.27V843.86s-30.73-13.83-62.58-12Z"/></g><g id="갈비뼈"><path class="cls-1" d="M892.23,718.52l38.35,16.83a33.66,33.66,0,0,0,23.91,1.19l47.45-12V612.33s-58.38-22.75-87.35-8.83c-.71.34-1.41.69-2.12,1-4.84,2.15-31.19,15.32-32.66,47.54Z"/><path class="cls-1" d="M1107.11,718.52l-38.34,16.83a33.66,33.66,0,0,1-23.91,1.19l-42.92-12V612.33s53.85-22.75,82.82-8.83c.71.34,1.41.69,2.12,1,4.84,2.15,31.19,15.32,32.66,47.54Z"/></g><g id="골반"><path class="cls-1" d="M1001.94,1067V886s-37.79,7.51-62.58-5.43l34.42,163.66S985.36,1067.06,1001.94,1067Z"/><path class="cls-1" d="M900.15,856.15s.55,43-4.62,63.76c0,0-4.67,13.14,1.24,20.22,1,1.19,2,2.36,2.94,3.6l73.22,99L939.36,880.6Z"/><path class="cls-1" d="M1001.79,1067V886s37.79,7.51,62.58-5.43L1031,1039.07a40.65,40.65,0,0,1-5.42,13.5C1021.11,1059.66,1013.1,1068.48,1001.79,1067Z"/><path class="cls-1" d="M1103.58,856.15s-.55,43,4.62,63.76c0,0,4.67,13.14-1.24,20.22-1,1.19-2,2.36-2.94,3.6l-74.08,101.08,34.43-164.21Z"/></g><g id="허벅지"><path class="cls-1" d="M961,1023.31,915.8,965.48l-19-25.35-18.3,64.74a93.83,93.83,0,0,0-3.53,25.48v185.31l4.87,95.11A14,14,0,0,0,893.45,1300c2.33-10.16,9.06-24.53,28.35-29.25,0,0,21.53,10.69,24.27,40a8,8,0,0,0,2.2,4.78l12.59,13.06v-26.83a276.38,276.38,0,0,1,12.35-81.72l8.85-28.63a121.46,121.46,0,0,0,5.15-27.77l6.63-98.41Z"/><path class="cls-1" d="M1123.68,1004.87,1107,940.13l-20.6,25.35-45.24,57.83-32.8,41.93,6.62,98.41a121.46,121.46,0,0,0,5.15,27.77l8.86,28.63a276.7,276.7,0,0,1,12.34,81.72v26.83l12.6-13.06a8,8,0,0,0,2.19-4.78c2.74-29.29,24.27-40,24.27-40,19.29,4.72,26,19.09,28.36,29.25a14,14,0,0,0,13.64,10.74h0l4.86-95.11V1030.35A93.83,93.83,0,0,0,1123.68,1004.87Z"/></g><g id="무릎"><path class="cls-1" d="M879.81,1310.77s3.69,31,.83,45.88A8.22,8.22,0,0,0,882,1363l11.66,16.1a29.38,29.38,0,0,0,23.8,12.16h7a37.36,37.36,0,0,0,18.55-7.92c1.29-1.35,4.18-2.75,4.37-5.41.41-6.12,3.15-15.79,5.12-21.6,1.05-3.12,2.08-6.25,3-9.42l5.32-18.34-10.72-10a15.66,15.66,0,0,1-4.07-7.8c-1.83-9.13-6.42-30-24.27-40,0,0-20.09,1-28.39,27-1.35,4.23-2.29,8.75-6.18,10.9Z"/><path class="cls-1" d="M1122.5,1310.77s-3.7,31-.83,45.88a8.18,8.18,0,0,1-1.41,6.38l-11.66,16.1a29.35,29.35,0,0,1-23.8,12.16h-7a37.29,37.29,0,0,1-18.54-7.92c-1.3-1.35-4.19-2.75-4.37-5.41-.42-6.12-3.15-15.79-5.12-21.6-1.06-3.12-2.08-6.25-3-9.42l-5.33-18.34,10.73-10a15.72,15.72,0,0,0,4.06-7.8c1.83-9.13,6.42-30,24.27-40,0,0,20.09,1,28.39,27,1.35,4.23,2.3,8.75,6.18,10.9Z"/></g><g id="정강이"><path class="cls-1" d="M949.73,1463.49,947.42,1378s-2.71,8.62-18.59,13c0,0-22.88,4.47-33-9.15L882,1363l-7.1,29.61c-1.16,6.87-3.51,18.7-3.24,25.66,0,0,7.85,85,10,96.81,2.55,14.17,5.93,32.14,6.25,35.05,7,64.3,0,84.29,0,84.29,2.86-4.45,3-24.7,3-24.7h32.35l-1.43,24.7,3.78-65.28a140.87,140.87,0,0,1,8.81-41.55l8.24-21.88A111.34,111.34,0,0,0,949.73,1463.49Z"/><path class="cls-1" d="M1091.23,1609.75h20.56c-.46-13.19,0-32.44,3-59.59.32-2.91,3.7-20.88,6.25-35.05,2.11-11.77,10-96.81,10-96.81.27-7-2.08-18.79-3.24-25.66l-7.1-29.61-13.81,18.73c-10.1,13.62-33,9.15-33,9.15-15.88-4.33-18.59-13-18.59-13l-2.31,85.53a111.34,111.34,0,0,0,7.1,42.25l8.24,21.88a140.87,140.87,0,0,1,8.81,41.55l2.52,40.58Z"/></g><g id="아킬레스건_발목_발" data-name="아킬레스건&amp;발목&amp;발"><polygon class="cls-1" points="911.18 1609.75 911.18 1634.45 921.8 1634.45 922.8 1609.75 911.18 1609.75"/><polygon class="cls-1" points="1079.61 1609.75 1081.04 1634.45 1091.23 1634.45 1091.23 1609.75 1079.61 1609.75"/></g><g id="발목"><path class="cls-1" d="M911.18,1609.75h-20.3s-.11,20.25-3,24.7h23.27Z"/><path class="cls-1" d="M1091.23,1634.45h23.53s-.09-.25-.24-.8c-1.39-3.21-2-10.46-2.32-16.14-.17-2.32-.31-4.9-.41-7.76h-20.56Z"/></g><g id="발"><path class="cls-1" d="M887.91,1634.45s-15.49,26.84-38.91,36.93c0,0-27,10-21.52,16.84,2,2.56,6.66,3.69,11.44.63,0,0-1.62,3.24,1,5a6.41,6.41,0,0,0,9.27-2.61s-1.62,3.25,1.44,4.51c0,0,5,1.82,7.18-2.5,0,0-.69,3,3.27,3.67,0,0,4.51.27,6.49-2.8a3.14,3.14,0,0,0,3.06,3.39,17.52,17.52,0,0,0,10.81-2.66s20.76-14,31.34-17.83a16.65,16.65,0,0,1,4.8-.91c3.72-.19,14.53-2,10.33-17.65,0,0-6.62-14.8-6.1-24H887.91Zm-49,54.4s2.16-3.42,3.78-4.5Zm10.26,2.34a18.71,18.71,0,0,1,2-2.34Zm8.62,2s1.29-2.1,2.37-2.46Zm9.76.87s-.18-.51,1.8-2.1Z"/><path class="cls-1" d="M838.92,1688.85l3.78-4.5C841.08,1685.43,838.92,1688.85,838.92,1688.85Z"/><path class="cls-1" d="M851.17,1688.85a18.71,18.71,0,0,0-2,2.34Z"/><path class="cls-1" d="M857.8,1693.2l2.37-2.46C859.09,1691.1,857.8,1693.2,857.8,1693.2Z"/><path class="cls-1" d="M867.56,1694.07l1.8-2.1C867.38,1693.56,867.56,1694.07,867.56,1694.07Z"/><path class="cls-1" d="M1163.67,1688.85s-2.16-3.42-3.78-4.5"/><path class="cls-1" d="M1153.59,1671.38c-23.42-10.09-38.91-36.93-38.91-36.93h-33.89c.53,9.16-6.1,24-6.1,24-4.2,15.61,6.61,17.46,10.33,17.65a16.78,16.78,0,0,1,4.81.91c10.57,3.79,31.34,17.83,31.34,17.83a17.49,17.49,0,0,0,10.8,2.66,3.13,3.13,0,0,0,3.06-3.39c2,3.07,6.49,2.8,6.49,2.8,4-.72,3.27-3.67,3.27-3.67,2.16,4.32,7.18,2.5,7.18,2.5,3.06-1.26,1.44-4.51,1.44-4.51a6.41,6.41,0,0,0,9.27,2.61c2.62-1.71,1-5,1-5,4.78,3.06,9.39,1.93,11.44-.63C1180.62,1681.35,1153.59,1671.38,1153.59,1671.38ZM1135,1694.07l-1.8-2.1C1135.21,1693.56,1135,1694.07,1135,1694.07Zm7.39-3.33c1.08.36,2.37,2.46,2.37,2.46Zm9-1.89a19.12,19.12,0,0,1,2,2.34Z"/><path class="cls-1" d="M1153.41,1691.19a19.12,19.12,0,0,0-2-2.34Z"/><path class="cls-1" d="M1142.42,1690.74l2.37,2.46S1143.5,1691.1,1142.42,1690.74Z"/><path class="cls-1" d="M1133.23,1692l1.8,2.1S1135.21,1693.56,1133.23,1692Z"/><path class="cls-1" d="M1164.59,1688.85l-3.78-4.5C1162.43,1685.43,1164.59,1688.85,1164.59,1688.85Z"/></g></svg>