<svg xmlns="http://www.w3.org/2000/svg" viewBox="0 0 2000 2000"><defs><style>.cls-1{fill:#fff;}.cls-1,.cls-2,.cls-3{stroke:#44bcce;stroke-linecap:round;stroke-linejoin:round;}.cls-1,.cls-3{stroke-width:4px;}.cls-2{fill:none;stroke-width:2px;}.cls-3{fill:#44bcce;}</style></defs><g id="목"><polyline class="cls-1" points="1029.24 518.07 1029.24 561.32 1074 587.98 995.25 623.89 913.45 586.89 960.25 562.82 960.49 518.07 1029.24 518.07"/></g><g id="머리"><path class="cls-1" d="M938.44,437.11s-13.67-74.42,45.13-78.52c1-.07,2.07-.14,3.1-.24,10.35-1.06,82.67-5.52,64.57,79.7,0,0,11.85-8.57,10.41,11.76-.57,7.93-1.45,20.7-14.06,31.86l-.89,11.91s.36,7.93-9,14.77l-22.05,17.86a23.29,23.29,0,0,1-14.66,5.2H989.09a21.49,21.49,0,0,1-11.94-3.62l-21.82-14.54a24.74,24.74,0,0,1-11-19.77l-.3-9.26A50.79,50.79,0,0,1,926,457C925.64,455.72,918.58,430.9,938.44,437.11Z"/><path class="cls-2" d="M929.92,453.88s-2.13-15.31,5.18-10.34c2,1.35,7.64,6,7.64,13.92,0,0,.74,8.23-1,9.79a2.62,2.62,0,0,0-.89.22,3.7,3.7,0,0,0-1,6.14,4.39,4.39,0,0,0,3,1.11"/><path class="cls-2" d="M942.32,453.83s-5.07,4.93-4.59,10.19"/><path class="cls-2" d="M1057.06,453.88s2.13-15.31-5.18-10.34c-2,1.35-7.65,6-7.65,13.92,0,0-.74,8.23,1,9.79a2.62,2.62,0,0,1,.89.22,3.7,3.7,0,0,1,1,6.14,4.39,4.39,0,0,1-3.05,1.11"/><path class="cls-2" d="M1044.66,453.83s5.07,4.93,4.59,10.19"/></g><g id="얼굴"><path class="cls-1" d="M986,399.47c.92-.06,1.83-.18,2.75-.19,15.28-.08,52.54-2.3,46.35,48.91l-3.27,35.68s.26,5-6.5,9.24l-15.89,11.17a18.45,18.45,0,0,1-10.56,3.25h-8.57a17.32,17.32,0,0,1-8.61-2.26L966,496.17A15.12,15.12,0,0,1,958,483.81s-3-18.36-3.1-22.72C954.53,432.08,951,401.78,986,399.47Z"/></g><g id="어깨"><path class="cls-1" d="M913.45,586.89l-47,1.94a22,22,0,0,0-15.73,7.65l-19.84,23.25a65.41,65.41,0,0,0-15.65,40.72l-1.54,57.93,60-53.5s3.67-82.56,118.56-42.09Z"/><path class="cls-1" d="M1074,588l47,1.95a21.85,21.85,0,0,1,15.73,7.65l19.84,23.24a65.38,65.38,0,0,1,15.65,40.73l1.54,57.92-60-53.49s-3.67-82.56-118.56-42.09Z"/></g><g id="팔"><path class="cls-1" d="M846.08,810.24l40-78.89-12.43-66.47-60,53.5s-9.24,16.8-10.69,48.19a107.39,107.39,0,0,1-5.36,29.13l-2.32,7s-33.88,23.45-34.07,66.78a42.8,42.8,0,0,1-.28,4.94c-1.74,13.89-11.11,81.07-34.28,120.65h20l14.09,16.61a.24.24,0,0,0,.42-.19c-3.5-23.61,52.16-104.1,67.42-125.64a81,81,0,0,0,7.4-12.66c19.46-41.95,10.1-62.93,10.1-62.93Z"/><path class="cls-1" d="M1226.57,874.4a42.8,42.8,0,0,1-.28-4.94c-.19-43.33-34.07-66.78-34.07-66.78h-.41l-2.32-7a107.78,107.78,0,0,1-5.36-29.13c-1.45-31.39-10.69-48.19-10.69-48.19l-60-53.5L1101,731.35l40,78.89.33.18c-.81,2-8.28,22.94,10.18,62.75a81,81,0,0,0,7.4,12.66c15.16,21.39,70.14,100.92,67.48,125.14a.39.39,0,0,0,.69.3l13.76-16.22h20C1237.68,955.47,1228.31,888.29,1226.57,874.4Z"/></g><g id="팔꿈치"><polygon class="cls-1" points="802.97 766.57 861.51 779.8 846.08 810.24 795.29 802.68 802.97 766.57"/><polygon class="cls-1" points="1184.22 766.57 1125.68 779.8 1141.11 810.24 1191.9 802.68 1184.22 766.57"/></g><g id="손목"><path class="cls-1" d="M768,985.14s-8.64,17.61-6.65,27.2l-14.67-17.29h-20s9.25-18.41,11.25-23.7h17.52Z"/><path class="cls-1" d="M1219.71,985.14s8.64,17.61,6.65,27.2L1241,995.05h20s-9.25-18.41-11.25-23.7h-17.52Z"/></g><g id="손"><path class="cls-1" d="M765.05,1030.32l-4.38-6.48a8.61,8.61,0,0,1-.76-8.29l1.41-3.21-14.67-17.29h-20l-12.88,49.2a37,37,0,0,0-.93,4.91l-.77,6.41,31.84,2a1.61,1.61,0,0,1,3,.82l.21,5h17.36l2.47-25.75A11.07,11.07,0,0,0,765.05,1030.32Z"/><path class="cls-1" d="M1274.82,1049.16a37,37,0,0,0-.93-4.91L1261,995.05h-20l-14.67,17.29,1.41,3.21a8.63,8.63,0,0,1-.75,8.29l-4.39,6.48a11.07,11.07,0,0,0-1.86,7.29l2.89,30.19h16.75l.41-9.44a1.6,1.6,0,0,1,2.94-.82l4.35,6.58h28.51Z"/></g><g id="손가락"><path class="cls-1" d="M748.35,1092.69a7.42,7.42,0,0,0,2.94,5.73c3.5,2.58,9.38,2,12.3-26.1l.85-9H747.08Z"/><path class="cls-1" d="M708,1089.35a22.56,22.56,0,0,0-.06,4.86l4.87,50.17a5.67,5.67,0,0,0,4.69,5.15c1.89.27,4-.37,5.46-3.54a11,11,0,0,0,.94-4.73l0-3.9-.45-45.37a11.31,11.31,0,0,1,.57-3.61h0a10.89,10.89,0,0,1,1.31-2.73l2.19-3.32,16.4-24.79-31.84-2Z"/><path class="cls-1" d="M723.9,1137.36s8.73-.65,9-12.56a23.42,23.42,0,0,0-.24-3.74l-6-37.24-2.64,4.56h0Z"/><path class="cls-1" d="M1263.77,1137.36s-8.72-.65-9-12.56a24.64,24.64,0,0,1,.24-3.74l6-37.24,2.65,4.56Z"/><path class="cls-1" d="M1224.09,1072.32c2.92,28.08,8.79,28.68,12.3,26.1a7.49,7.49,0,0,0,2.94-5.73l1.07-24.89h-16.75Z"/><path class="cls-1" d="M1279.64,1089.35l-3-25.23H1248.1l12.05,18.21,2.2,3.32a11.34,11.34,0,0,1,1.87,6.34l-.45,45.37,0,3.9a11.14,11.14,0,0,0,.94,4.73c1.46,3.17,3.57,3.81,5.46,3.54a5.67,5.67,0,0,0,4.69-5.15l4.87-50.17A22.56,22.56,0,0,0,1279.64,1089.35Z"/></g><g id="허리"><path class="cls-1" d="M886.07,731.35s17,148,1.69,209.1a13.46,13.46,0,0,0,2.34,11.33l86.24,117.67c4.68,6.23,11.37,10.42,22.64,10.44h0c6.68,0,15.2-5.71,19-12.27,7.68-13.38,51.44-72.57,82.84-114.66,3-4,4.53-10.64,2.85-15.3-4.84-13.4-16.31-81.28-2.61-206.31Z"/><polygon class="cls-1" points="891.57 796.22 893.35 831.87 893.99 868.98 933.2 893.43 933.2 856.71 933.2 856.68 933.2 819.97 933.2 731.35 886.07 731.35 891.57 796.22"/><polygon class="cls-1" points="1058.21 731.35 1058.21 819.97 1058.21 856.68 1058.21 856.71 1058.21 893.43 1097.42 868.98 1098.05 831.87 1099.84 796.22 1101.03 731.35 1058.21 731.35"/></g><g id="배"><polygon class="cls-1" points="995.77 731.35 995.77 778.9 933.2 819.97 933.2 731.35 995.77 731.35"/><path class="cls-1" d="M933.2,856.71s35.23-13.51,62.57-11.88v-65L933.2,820Z"/><path class="cls-1" d="M995.77,898.7s-43.25,6.78-62.57-5.27V856.69s30.73-13.83,62.57-12Z"/><polygon class="cls-1" points="995.63 731.35 995.63 778.9 1058.21 819.97 1058.21 731.35 995.63 731.35"/><path class="cls-1" d="M1058.21,856.71S1023,843.2,995.63,844.83v-65L1058.21,820Z"/><path class="cls-1" d="M995.63,898.7s43.26,6.78,62.58-5.27V856.69s-30.73-13.83-62.58-12Z"/></g><g id="갈비뼈"><path class="cls-1" d="M886.07,731.35l38.35,16.83a33.63,33.63,0,0,0,23.9,1.19l47.45-12V625.16s-58.38-22.75-87.35-8.83c-.7.34-1.4.69-2.12,1-4.83,2.15-31.19,15.32-32.66,47.54Z"/><path class="cls-1" d="M1101,731.35l-38.35,16.83a33.63,33.63,0,0,1-23.9,1.19l-42.93-12V625.16s53.86-22.75,82.83-8.83c.71.34,1.4.69,2.12,1,4.84,2.15,31.19,15.32,32.66,47.54Z"/></g><g id="골반"><path class="cls-1" d="M995.77,1079.87v-181s-37.78,7.51-62.57-5.43l34.42,163.66S979.19,1079.89,995.77,1079.87Z"/><path class="cls-1" d="M894,869s.55,43-4.62,63.76c0,0-4.67,13.14,1.24,20.22,1,1.19,2,2.35,2.94,3.6l73.22,99L933.2,893.43Z"/><path class="cls-1" d="M995.63,1079.87v-181s37.78,7.51,62.58-5.43l-33.33,158.47a40.87,40.87,0,0,1-5.42,13.5C1014.94,1072.48,1006.94,1081.31,995.63,1079.87Z"/><path class="cls-1" d="M1097.42,869s-.55,43,4.62,63.76c0,0,4.67,13.14-1.25,20.22-1,1.19-2,2.35-2.94,3.6l-74.07,101.08,34.43-164.21Z"/></g><g id="허벅지"><path class="cls-1" d="M954.87,1036.14l-45.24-57.83-19-25.35-18.3,64.74a93.83,93.83,0,0,0-3.53,25.48v185.31l4.86,95.11a14,14,0,0,0,13.64-10.74c2.34-10.16,9.07-24.53,28.36-29.25,0,0,21.53,10.69,24.27,40a8,8,0,0,0,2.19,4.78l12.6,13.06v-26.84A276.68,276.68,0,0,1,967,1232.88l8.86-28.63a121.46,121.46,0,0,0,5.15-27.77l6.62-98.42Z"/><path class="cls-1" d="M1117.51,1017.7,1100.79,953l-20.6,25.35L1035,1036.14l-32.8,41.92,6.63,98.42a121.46,121.46,0,0,0,5.15,27.77l8.85,28.63a276.36,276.36,0,0,1,12.35,81.71v26.84l12.59-13.06a7.93,7.93,0,0,0,2.19-4.78c2.75-29.29,24.28-40,24.28-40,19.29,4.72,26,19.09,28.35,29.25a14,14,0,0,0,13.64,10.74h0l4.87-95.11V1043.18A93.45,93.45,0,0,0,1117.51,1017.7Z"/></g><g id="무릎"><path class="cls-3" d="M873.64,1323.6s3.7,31,.83,45.88a8.26,8.26,0,0,0,1.41,6.38l11.66,16.1a29.37,29.37,0,0,0,23.8,12.15h7a37.23,37.23,0,0,0,18.54-7.91c1.3-1.35,4.19-2.75,4.37-5.41.42-6.12,3.16-15.79,5.12-21.6,1.06-3.12,2.08-6.26,3-9.42l5.33-18.34-10.72-10a15.66,15.66,0,0,1-4.07-7.8c-1.83-9.14-6.42-29.95-24.27-40,0,0-20.09,1-28.39,27-1.35,4.23-2.29,8.75-6.18,10.9Z"/><path class="cls-3" d="M1116.34,1323.6s-3.7,31-.84,45.88a8.22,8.22,0,0,1-1.4,6.38l-11.66,16.1a29.37,29.37,0,0,1-23.8,12.15h-7a37.29,37.29,0,0,1-18.55-7.91c-1.29-1.35-4.18-2.75-4.36-5.41-.42-6.12-3.16-15.79-5.12-21.6-1.06-3.12-2.09-6.26-3-9.42l-5.32-18.34,10.72-10a15.66,15.66,0,0,0,4.07-7.8c1.83-9.14,6.42-29.95,24.27-40,0,0,20.09,1,28.39,27,1.35,4.23,2.29,8.75,6.18,10.9Z"/></g><g id="정강이"><path class="cls-1" d="M943.57,1476.32l-2.32-85.53s-2.7,8.62-18.58,13c0,0-22.89,4.46-33-9.15l-13.8-18.73-7.1,29.6c-1.16,6.88-3.51,18.71-3.24,25.67,0,0,7.85,85,10,96.81,2.54,14.17,5.93,32.14,6.25,35,7,64.31,0,84.3,0,84.3,2.85-4.45,3-24.71,3-24.71h32.35l-1.43,24.71,3.77-65.28a141.44,141.44,0,0,1,8.81-41.55l8.25-21.89A111.26,111.26,0,0,0,943.57,1476.32Z"/><path class="cls-1" d="M1085.07,1622.57h20.56c-.46-13.18,0-32.43,3-59.59.31-2.9,3.7-20.87,6.24-35,2.12-11.77,10-96.81,10-96.81.26-7-2.08-18.79-3.25-25.67l-7.1-29.6-13.8,18.73c-10.1,13.61-33,9.15-33,9.15-15.88-4.33-18.59-13-18.59-13l-2.32,85.53a111.07,111.07,0,0,0,7.11,42.24l8.24,21.89a140.8,140.8,0,0,1,8.81,41.55l2.52,40.57Z"/></g><g id="아킬레스건_발목_발" data-name="아킬레스건&amp;발목&amp;발"><polygon class="cls-1" points="905.02 1622.57 905.02 1647.28 915.64 1647.28 916.64 1622.57 905.02 1622.57"/><polygon class="cls-1" points="1073.45 1622.57 1074.87 1647.28 1085.07 1647.28 1085.07 1622.57 1073.45 1622.57"/></g><g id="발목"><path class="cls-1" d="M905,1622.57h-20.3s-.12,20.26-3,24.71H905Z"/><path class="cls-1" d="M1085.07,1647.28h23.53s-.09-.26-.24-.8c-1.4-3.21-2-10.46-2.32-16.14-.17-2.32-.31-4.9-.41-7.77h-20.56Z"/></g><g id="발"><path class="cls-1" d="M881.75,1647.28s-15.49,26.84-38.91,36.93c0,0-27,10-21.52,16.84,2,2.56,6.66,3.69,11.43.63,0,0-1.62,3.24,1,5A6.43,6.43,0,0,0,843,1704s-1.62,3.24,1.44,4.5c0,0,5,1.83,7.18-2.49,0,0-.69,2.94,3.27,3.67,0,0,4.5.27,6.48-2.8a3.14,3.14,0,0,0,3.07,3.39,17.51,17.51,0,0,0,10.8-2.67s20.77-14,31.34-17.82a17.14,17.14,0,0,1,4.81-.92c3.72-.18,14.53-2,10.33-17.64,0,0-6.63-14.8-6.1-24H881.75Zm-49,54.4s2.16-3.42,3.79-4.5ZM843,1704a19.12,19.12,0,0,1,2-2.34Zm8.62,2s1.29-2.1,2.37-2.46Zm9.75.87s-.18-.51,1.8-2.1Z"/><path class="cls-1" d="M832.75,1701.68l3.79-4.5C834.91,1698.26,832.75,1701.68,832.75,1701.68Z"/><path class="cls-1" d="M845,1701.68a19.12,19.12,0,0,0-2,2.34Z"/><path class="cls-1" d="M851.64,1706l2.37-2.46C852.93,1703.93,851.64,1706,851.64,1706Z"/><path class="cls-1" d="M861.39,1706.9l1.8-2.1C861.21,1706.39,861.39,1706.9,861.39,1706.9Z"/><path class="cls-1" d="M1157.51,1701.68s-2.16-3.42-3.78-4.5"/><path class="cls-1" d="M1147.42,1684.21c-23.41-10.09-38.9-36.93-38.9-36.93h-33.9c.53,9.16-6.09,24-6.09,24-4.2,15.61,6.6,17.46,10.32,17.64a17.08,17.08,0,0,1,4.81.92c10.58,3.79,31.34,17.82,31.34,17.82a17.53,17.53,0,0,0,10.81,2.67,3.14,3.14,0,0,0,3.06-3.39c2,3.07,6.49,2.8,6.49,2.8,4-.73,3.27-3.67,3.27-3.67,2.16,4.32,7.17,2.49,7.17,2.49,3.07-1.26,1.44-4.5,1.44-4.5a6.43,6.43,0,0,0,9.28,2.61c2.61-1.71,1-5,1-5,4.77,3.06,9.38,1.93,11.44-.63C1174.46,1694.17,1147.42,1684.21,1147.42,1684.21Zm-18.55,22.69-1.8-2.1C1129.05,1706.39,1128.87,1706.9,1128.87,1706.9Zm7.39-3.33c1.08.36,2.37,2.46,2.37,2.46Zm9-1.89a19.12,19.12,0,0,1,2,2.34Z"/><path class="cls-1" d="M1147.24,1704a19.12,19.12,0,0,0-2-2.34Z"/><path class="cls-1" d="M1136.26,1703.57l2.37,2.46S1137.34,1703.93,1136.26,1703.57Z"/><path class="cls-1" d="M1127.07,1704.8l1.8,2.1S1129.05,1706.39,1127.07,1704.8Z"/><path class="cls-1" d="M1158.43,1701.68l-3.78-4.5C1156.27,1698.26,1158.43,1701.68,1158.43,1701.68Z"/></g></svg>