<svg xmlns="http://www.w3.org/2000/svg" viewBox="0 0 2000 2000"><defs><style>.cls-1{fill:#fff;}.cls-1,.cls-2,.cls-3{stroke:#44bcce;stroke-linecap:round;stroke-linejoin:round;}.cls-1,.cls-3{stroke-width:4px;}.cls-2{fill:none;stroke-width:2px;}.cls-3{fill:#44bcce;}</style></defs><title>부상파트</title><g id="목"><polyline class="cls-1" points="1030.18 508.68 1030.18 551.93 1074.94 578.59 996.19 614.5 914.39 577.5 961.19 553.43 961.43 508.68 1030.18 508.68"/></g><g id="머리"><path class="cls-1" d="M939.38,427.72s-13.67-74.42,45.13-78.51c1-.08,2.07-.15,3.1-.25,10.35-1.06,82.67-5.52,64.57,79.7,0,0,11.85-8.56,10.41,11.76-.57,7.93-1.45,20.7-14.06,31.86l-.89,11.91s.36,7.93-9,14.77l-22.05,17.87a23.29,23.29,0,0,1-14.66,5.19H990a21.52,21.52,0,0,1-11.94-3.62l-21.82-14.54a24.74,24.74,0,0,1-11-19.77l-.3-9.26a50.79,50.79,0,0,1-18.05-27.18C926.58,446.33,919.52,421.51,939.38,427.72Z"/><path class="cls-2" d="M930.86,444.49s-2.13-15.31,5.18-10.33c2,1.34,7.65,6,7.65,13.91,0,0,.74,8.24-1,9.79a2.62,2.62,0,0,0-.89.22,3.7,3.7,0,0,0-1,6.14,4.39,4.39,0,0,0,3.05,1.11"/><path class="cls-2" d="M943.26,444.44s-5.07,4.93-4.59,10.19"/><path class="cls-2" d="M1058,444.49s2.13-15.31-5.18-10.33c-2,1.34-7.64,6-7.64,13.91,0,0-.74,8.24,1,9.79a2.62,2.62,0,0,1,.89.22,3.7,3.7,0,0,1,1,6.14,4.39,4.39,0,0,1-3,1.11"/><path class="cls-2" d="M1045.6,444.44s5.07,4.93,4.59,10.19"/></g><g id="얼굴"><path class="cls-1" d="M986.91,390.09c.92-.06,1.83-.19,2.75-.2,15.28-.08,52.55-2.3,46.35,48.91l-3.27,35.69s.26,4.95-6.49,9.23l-15.9,11.17a18.43,18.43,0,0,1-10.56,3.25h-8.57a17.32,17.32,0,0,1-8.61-2.26l-15.72-9.1A15.12,15.12,0,0,1,959,474.42s-3-18.36-3.1-22.72C955.47,422.7,952,392.39,986.91,390.09Z"/></g><g id="어깨"><path class="cls-1" d="M914.39,577.5l-47,2a21.85,21.85,0,0,0-15.72,7.65l-19.85,23.24a65.34,65.34,0,0,0-15.64,40.72L814.6,709l60-53.5s3.67-82.56,118.56-42.09Z"/><path class="cls-1" d="M1074.94,578.59l47,1.95a21.85,21.85,0,0,1,15.73,7.65l19.84,23.24a65.38,65.38,0,0,1,15.65,40.73l1.54,57.93-60-53.5S1111.08,574,996.19,614.5Z"/></g><g id="팔"><path class="cls-1" d="M847,800.85,887,722l-12.43-66.47-60,53.5s-9.24,16.81-10.69,48.19a107.76,107.76,0,0,1-5.35,29.13l-2.33,7s-33.88,23.45-34.07,66.78a42.8,42.8,0,0,1-.28,4.94c-1.74,13.89-11.11,81.07-34.28,120.65h20l14.09,16.61a.24.24,0,0,0,.42-.18c-3.49-23.62,52.16-104.11,67.42-125.65a81,81,0,0,0,7.4-12.66c19.46-41.95,10.1-62.93,10.1-62.93Z"/><path class="cls-1" d="M1227.51,865a42.8,42.8,0,0,1-.28-4.94c-.18-43.33-34.07-66.78-34.07-66.78h-.41l-2.32-7a107.78,107.78,0,0,1-5.36-29.13c-1.44-31.38-10.69-48.19-10.69-48.19l-60-53.5L1102,722l40,78.89.34.18c-.82,2-8.29,22.94,10.17,62.75a80.27,80.27,0,0,0,7.41,12.66c15.15,21.39,70.13,100.92,67.47,125.14a.39.39,0,0,0,.69.3l13.76-16.22h20C1238.62,946.08,1229.25,878.9,1227.51,865Z"/></g><g id="팔꿈치"><polygon class="cls-1" points="803.91 757.18 862.45 770.41 847.02 800.85 796.23 793.29 803.91 757.18"/><polygon class="cls-1" points="1185.16 757.18 1126.62 770.41 1142.05 800.85 1192.85 793.29 1185.16 757.18"/></g><g id="손목"><path class="cls-3" d="M768.92,975.75s-8.65,17.61-6.66,27.2l-14.67-17.29h-20s9.25-18.41,11.25-23.7h17.52Z"/><path class="cls-1" d="M1220.65,975.75s8.65,17.61,6.65,27.2L1242,985.66h20s-9.25-18.41-11.25-23.7h-17.52Z"/></g><g id="손"><path class="cls-1" d="M766,1020.93l-4.38-6.48a8.59,8.59,0,0,1-.76-8.28l1.41-3.22-14.67-17.29h-20l-12.87,49.2a35.45,35.45,0,0,0-.94,4.91l-.77,6.41,31.84,2a1.61,1.61,0,0,1,2.95.82l.21,5h17.37l2.46-25.75A11.07,11.07,0,0,0,766,1020.93Z"/><path class="cls-1" d="M1275.76,1039.77a37,37,0,0,0-.93-4.91L1262,985.66h-20L1227.29,1003l1.41,3.22a8.59,8.59,0,0,1-.75,8.28l-4.39,6.48a11.07,11.07,0,0,0-1.86,7.29l2.89,30.19h16.75l.41-9.44a1.6,1.6,0,0,1,2.94-.82l4.36,6.58h28.5Z"/></g><g id="손가락"><path class="cls-1" d="M749.29,1083.3a7.42,7.42,0,0,0,2.94,5.73c3.51,2.58,9.38,2,12.3-26.1l.86-9H748Z"/><path class="cls-1" d="M709,1080a23.22,23.22,0,0,0-.06,4.86l4.87,50.18a5.67,5.67,0,0,0,4.69,5.14c1.89.27,4-.37,5.46-3.54a11,11,0,0,0,.94-4.73l0-3.9-.45-45.37A11.31,11.31,0,0,1,725,1079h0a11.25,11.25,0,0,1,1.31-2.73l2.19-3.32,16.4-24.79-31.84-2Z"/><path class="cls-1" d="M724.84,1128s8.73-.65,9-12.56a23.43,23.43,0,0,0-.25-3.74l-6-37.24L725,1079h0Z"/><path class="cls-1" d="M1264.71,1128s-8.72-.65-9-12.56a24.64,24.64,0,0,1,.24-3.74l6-37.24,2.65,4.56Z"/><path class="cls-1" d="M1225,1062.93c2.92,28.08,8.79,28.68,12.3,26.1a7.49,7.49,0,0,0,2.94-5.73l1.07-24.89h-16.75Z"/><path class="cls-1" d="M1280.58,1080l-3-25.23h-28.5l12,18.21,2.2,3.32a11.34,11.34,0,0,1,1.87,6.34l-.45,45.37,0,3.9a11.12,11.12,0,0,0,.95,4.73c1.45,3.17,3.56,3.81,5.45,3.54a5.67,5.67,0,0,0,4.69-5.14l4.87-50.18A22.56,22.56,0,0,0,1280.58,1080Z"/></g><g id="허리"><path class="cls-1" d="M887,722s17,148,1.69,209.1A13.45,13.45,0,0,0,891,942.39l86.24,117.67c4.68,6.23,11.37,10.42,22.64,10.44h0c6.68,0,15.21-5.71,19-12.26,7.68-13.39,51.44-72.58,82.84-114.67,3-4,4.53-10.63,2.85-15.3-4.84-13.4-16.3-81.28-2.61-206.31Z"/><polygon class="cls-1" points="892.51 786.83 894.29 822.48 894.93 859.59 934.14 884.04 934.14 847.33 934.14 847.3 934.14 810.58 934.14 721.96 887.01 721.96 892.51 786.83"/><polygon class="cls-1" points="1059.15 721.96 1059.15 810.58 1059.15 847.3 1059.15 847.33 1059.15 884.04 1098.36 859.59 1098.99 822.48 1100.78 786.83 1101.97 721.96 1059.15 721.96"/></g><g id="배"><polygon class="cls-1" points="996.72 721.96 996.72 769.51 934.14 810.58 934.14 721.96 996.72 721.96"/><path class="cls-1" d="M934.14,847.33s35.23-13.51,62.57-11.89v-65l-62.57,40.17Z"/><path class="cls-1" d="M996.71,889.31s-43.25,6.78-62.57-5.27V847.3s30.73-13.83,62.57-12Z"/><polygon class="cls-1" points="996.57 721.96 996.57 769.51 1059.15 810.58 1059.15 721.96 996.57 721.96"/><path class="cls-1" d="M1059.15,847.33s-35.23-13.51-62.58-11.89v-65l62.58,40.17Z"/><path class="cls-1" d="M996.57,889.31s43.26,6.78,62.58-5.27V847.3s-30.73-13.83-62.58-12Z"/></g><g id="갈비뼈"><path class="cls-1" d="M887,722l38.35,16.83A33.66,33.66,0,0,0,949.27,740l47.44-12.05V615.77s-58.38-22.75-87.35-8.83c-.7.34-1.4.69-2.12,1-4.83,2.15-31.19,15.32-32.66,47.54Z"/><path class="cls-1" d="M1101.89,722l-38.35,16.83a33.63,33.63,0,0,1-23.9,1.19l-42.93-12.05V615.77s53.86-22.75,82.83-8.83c.71.34,1.4.69,2.12,1,4.84,2.15,31.19,15.32,32.66,47.54Z"/></g><g id="골반"><path class="cls-1" d="M996.71,1070.48v-181S958.93,897,934.14,884l34.42,163.66S980.14,1070.5,996.71,1070.48Z"/><path class="cls-1" d="M894.93,859.59s.55,43-4.62,63.76c0,0-4.67,13.14,1.24,20.22,1,1.19,2,2.36,2.94,3.6l73.22,99L934.14,884Z"/><path class="cls-1" d="M996.57,1070.48v-181s37.79,7.51,62.58-5.43l-33.33,158.47a40.87,40.87,0,0,1-5.42,13.5C1015.88,1063.09,1007.88,1071.92,996.57,1070.48Z"/><path class="cls-1" d="M1098.36,859.59s-.55,43,4.62,63.76c0,0,4.67,13.14-1.25,20.22-1,1.19-2,2.36-2.93,3.6l-74.08,101.08L1059.15,884Z"/></g><g id="허벅지"><path class="cls-1" d="M955.81,1026.75l-45.24-57.83-19-25.35-18.3,64.74a93.83,93.83,0,0,0-3.53,25.48V1219.1l4.86,95.11a14,14,0,0,0,13.64-10.74c2.34-10.16,9.07-24.53,28.36-29.25,0,0,21.53,10.69,24.27,40A8,8,0,0,0,943,1319l12.6,13.06v-26.83A276.7,276.7,0,0,1,968,1223.49l8.86-28.63a121.46,121.46,0,0,0,5.15-27.77l6.62-98.41Z"/><path class="cls-1" d="M1118.46,1008.31l-16.73-64.74-20.6,25.35-45.23,57.83-32.81,41.93,6.63,98.41a121.46,121.46,0,0,0,5.15,27.77l8.85,28.63a276.38,276.38,0,0,1,12.35,81.72V1332l12.59-13.06a8,8,0,0,0,2.2-4.78c2.74-29.29,24.27-40,24.27-40,19.29,4.72,26,19.09,28.35,29.25a14,14,0,0,0,13.64,10.74h0l4.87-95.11V1033.79A93.83,93.83,0,0,0,1118.46,1008.31Z"/></g><g id="무릎"><path class="cls-1" d="M874.58,1314.21s3.7,31,.84,45.88a8.22,8.22,0,0,0,1.4,6.38l11.66,16.1a29.37,29.37,0,0,0,23.8,12.15h7a37.29,37.29,0,0,0,18.55-7.91c1.29-1.35,4.18-2.75,4.36-5.41.42-6.12,3.16-15.79,5.12-21.6,1.06-3.12,2.09-6.25,3-9.42l5.33-18.34-10.72-10a15.66,15.66,0,0,1-4.07-7.8c-1.83-9.13-6.42-30-24.27-40,0,0-20.09,1-28.39,27-1.35,4.23-2.29,8.75-6.18,10.9Z"/><path class="cls-1" d="M1117.28,1314.21s-3.7,31-.84,45.88a8.22,8.22,0,0,1-1.4,6.38l-11.66,16.1a29.37,29.37,0,0,1-23.8,12.15h-7a37.29,37.29,0,0,1-18.55-7.91c-1.29-1.35-4.18-2.75-4.36-5.41-.42-6.12-3.16-15.79-5.12-21.6-1.06-3.12-2.09-6.25-3-9.42l-5.33-18.34,10.72-10a15.66,15.66,0,0,0,4.07-7.8c1.83-9.13,6.42-30,24.27-40,0,0,20.09,1,28.39,27,1.35,4.23,2.29,8.75,6.18,10.9Z"/></g><g id="정강이"><path class="cls-1" d="M944.51,1466.93l-2.32-85.53s-2.7,8.62-18.58,12.95c0,0-22.88,4.46-33-9.15l-13.81-18.73-7.1,29.61c-1.16,6.87-3.51,18.7-3.24,25.66,0,0,7.85,85,10,96.81,2.54,14.17,5.93,32.14,6.25,35,7,64.31,0,84.3,0,84.3,2.85-4.45,3-24.7,3-24.7H918l-1.43,24.7,3.78-65.28a140.87,140.87,0,0,1,8.81-41.55l8.24-21.88A111.34,111.34,0,0,0,944.51,1466.93Z"/><path class="cls-1" d="M1086,1613.19h20.56c-.46-13.19,0-32.44,3-59.6.31-2.9,3.7-20.87,6.24-35,2.12-11.77,10-96.81,10-96.81.27-7-2.08-18.79-3.24-25.66l-7.11-29.61-13.8,18.73c-10.1,13.61-33,9.15-33,9.15-15.88-4.33-18.59-12.95-18.59-12.95l-2.32,85.53a111.35,111.35,0,0,0,7.11,42.25l8.24,21.88a140.87,140.87,0,0,1,8.81,41.55l2.52,40.58Z"/></g><g id="아킬레스건_발목_발" data-name="아킬레스건&amp;발목&amp;발"><polygon class="cls-1" points="905.96 1613.18 905.96 1637.89 916.58 1637.89 917.58 1613.18 905.96 1613.18"/><polygon class="cls-1" points="1074.39 1613.18 1075.82 1637.89 1086.01 1637.89 1086.01 1613.18 1074.39 1613.18"/></g><g id="발목"><path class="cls-1" d="M906,1613.19h-20.3s-.12,20.25-3,24.7H906Z"/><path class="cls-1" d="M1086,1637.89h23.53s-.09-.25-.24-.8c-1.39-3.21-2-10.46-2.32-16.14-.17-2.32-.31-4.9-.41-7.76H1086Z"/></g><g id="발"><path class="cls-1" d="M882.69,1637.89s-15.49,26.84-38.91,36.93c0,0-27,10-21.52,16.84,2,2.56,6.66,3.69,11.43.63,0,0-1.62,3.24,1,5a6.42,6.42,0,0,0,9.28-2.61s-1.62,3.24,1.44,4.51c0,0,5,1.82,7.18-2.5,0,0-.69,2.95,3.27,3.67,0,0,4.5.27,6.48-2.8a3.14,3.14,0,0,0,3.07,3.39,17.49,17.49,0,0,0,10.8-2.66s20.77-14,31.34-17.83a16.78,16.78,0,0,1,4.81-.91c3.72-.19,14.53-2,10.33-17.65,0,0-6.63-14.8-6.1-24H882.69Zm-49,54.4s2.17-3.42,3.79-4.5Zm10.27,2.34a19.12,19.12,0,0,1,2-2.34Zm8.62,2s1.29-2.1,2.37-2.46Zm9.75.87s-.18-.51,1.81-2.1Z"/><path class="cls-1" d="M833.69,1692.29l3.79-4.5C835.86,1688.87,833.69,1692.29,833.69,1692.29Z"/><path class="cls-1" d="M845.94,1692.29a19.12,19.12,0,0,0-2,2.34Z"/><path class="cls-1" d="M852.58,1696.64l2.37-2.46C853.87,1694.54,852.58,1696.64,852.58,1696.64Z"/><path class="cls-1" d="M862.33,1697.51l1.81-2.1C862.15,1697,862.33,1697.51,862.33,1697.51Z"/><path class="cls-1" d="M1158.45,1692.29s-2.16-3.42-3.78-4.5"/><path class="cls-1" d="M1148.36,1674.82c-23.41-10.09-38.9-36.93-38.9-36.93h-33.9c.53,9.16-6.09,24-6.09,24-4.2,15.61,6.6,17.46,10.32,17.65a16.65,16.65,0,0,1,4.81.91c10.58,3.79,31.34,17.83,31.34,17.83a17.52,17.52,0,0,0,10.81,2.66,3.14,3.14,0,0,0,3.06-3.39c2,3.07,6.49,2.8,6.49,2.8,4-.72,3.27-3.67,3.27-3.67,2.16,4.32,7.17,2.5,7.17,2.5,3.07-1.27,1.44-4.51,1.44-4.51a6.42,6.42,0,0,0,9.28,2.61c2.61-1.71,1-5,1-5,4.78,3.06,9.39,1.93,11.44-.63C1175.4,1684.79,1148.36,1674.82,1148.36,1674.82Zm-18.55,22.69-1.8-2.1C1130,1697,1129.81,1697.51,1129.81,1697.51Zm7.39-3.33c1.08.36,2.37,2.46,2.37,2.46Zm9-1.89a19.12,19.12,0,0,1,2,2.34Z"/><path class="cls-1" d="M1148.18,1694.63a19.12,19.12,0,0,0-2-2.34Z"/><path class="cls-1" d="M1137.2,1694.18l2.37,2.46S1138.28,1694.54,1137.2,1694.18Z"/><path class="cls-1" d="M1128,1695.41l1.8,2.1S1130,1697,1128,1695.41Z"/><path class="cls-1" d="M1159.37,1692.29l-3.78-4.5C1157.21,1688.87,1159.37,1692.29,1159.37,1692.29Z"/></g></svg>