<svg xmlns="http://www.w3.org/2000/svg" viewBox="0 0 2000 2000"><defs><style>.cls-1{fill:#44bcce;}.cls-1,.cls-2,.cls-3{stroke:#44bcce;stroke-linecap:round;stroke-linejoin:round;}.cls-1,.cls-2{stroke-width:4px;}.cls-2,.cls-3{fill:#fff;}.cls-3{stroke-width:2px;}</style></defs><title>부상파트</title><g id="목"><polyline class="cls-1" points="1062.62 505.24 1062.62 548.5 1107.38 575.15 1028.63 611.06 946.83 574.06 993.63 549.99 993.87 505.24 1062.62 505.24"/></g><g id="머리"><path class="cls-2" d="M971.82,424.28s-13.67-74.42,45.13-78.51c1-.08,2.07-.15,3.1-.25,10.35-1.06,82.66-5.52,64.57,79.7,0,0,11.85-8.56,10.41,11.76-.57,7.93-1.45,20.7-14.06,31.86l-.89,11.91s.36,7.93-9,14.77l-22,17.87a23.29,23.29,0,0,1-14.66,5.19h-11.89a21.49,21.49,0,0,1-11.94-3.62l-21.82-14.54a24.74,24.74,0,0,1-11-19.77l-.3-9.26a50.79,50.79,0,0,1-18-27.18C959,442.89,952,418.07,971.82,424.28Z"/><path class="cls-3" d="M963.3,441.05s-2.13-15.31,5.18-10.33c2,1.34,7.64,6,7.64,13.91,0,0,.74,8.24-1,9.79a2.62,2.62,0,0,0-.89.22,3.7,3.7,0,0,0-1,6.14,4.39,4.39,0,0,0,3,1.12"/><path class="cls-3" d="M975.7,441s-5.07,4.93-4.59,10.19"/><path class="cls-3" d="M1090.44,441.05s2.13-15.31-5.18-10.33c-2,1.34-7.65,6-7.65,13.91,0,0-.74,8.24,1,9.79a2.62,2.62,0,0,1,.89.22,3.7,3.7,0,0,1,1,6.14,4.39,4.39,0,0,1-3,1.12"/><path class="cls-3" d="M1078,441s5.07,4.93,4.59,10.19"/></g><g id="얼굴"><path class="cls-2" d="M1018.9,386.65c.92-.06,1.83-.19,2.75-.2,15.28-.08,52.55-2.3,46.35,48.91l-3.27,35.69s.26,4.95-6.49,9.23l-15.89,11.17a18.38,18.38,0,0,1-10.57,3.25h-8.57a17.32,17.32,0,0,1-8.61-2.26l-15.72-9.1A15.12,15.12,0,0,1,991,471s-3-18.36-3.09-22.71C987.46,419.26,983.94,389,1018.9,386.65Z"/></g><g id="어깨"><path class="cls-2" d="M946.83,574.06l-47,2a21.85,21.85,0,0,0-15.73,7.65L864.23,606.9a65.41,65.41,0,0,0-15.65,40.72L847,705.55l60-53.5s3.67-82.56,118.56-42.09Z"/><path class="cls-2" d="M1107.38,575.15l47,2a21.85,21.85,0,0,1,15.73,7.65L1190,608a65.38,65.38,0,0,1,15.65,40.73l1.54,57.93-60-53.5s-3.67-82.56-118.56-42.09Z"/></g><g id="팔"><path class="cls-2" d="M879.46,797.41l40-78.89L907,652.05l-60,53.5s-9.24,16.81-10.69,48.19A107.39,107.39,0,0,1,831,782.87l-2.32,7s-33.88,23.45-34.07,66.78a42.8,42.8,0,0,1-.28,4.94c-1.74,13.89-11.11,81.07-34.28,120.65h20l14.09,16.61a.24.24,0,0,0,.42-.18C791,975,846.69,894.54,862,873a81,81,0,0,0,7.4-12.66c19.46-42,10.1-62.93,10.1-62.93Z"/><path class="cls-2" d="M1260,861.57a42.8,42.8,0,0,1-.28-4.94c-.19-43.33-34.07-66.78-34.07-66.78h-.41l-2.32-7a107.39,107.39,0,0,1-5.36-29.13c-1.45-31.38-10.69-48.19-10.69-48.19l-60-53.5-12.43,66.47,40,78.89.33.18c-.81,2-8.28,22.94,10.18,62.75a81,81,0,0,0,7.4,12.66c15.16,21.39,70.14,100.92,67.48,125.14a.39.39,0,0,0,.69.3l13.76-16.22h20C1271.06,942.64,1261.69,875.46,1260,861.57Z"/></g><g id="팔꿈치"><polygon class="cls-2" points="836.35 753.74 894.89 766.97 879.46 797.41 828.67 789.85 836.35 753.74"/><polygon class="cls-2" points="1217.6 753.74 1159.06 766.97 1174.49 797.41 1225.28 789.85 1217.6 753.74"/></g><g id="손목"><path class="cls-2" d="M801.35,972.31s-8.64,17.61-6.65,27.2L780,982.22H760s9.25-18.41,11.25-23.7h17.52Z"/><path class="cls-2" d="M1253.09,972.31s8.64,17.61,6.65,27.2l14.67-17.29h20s-9.25-18.41-11.25-23.7h-17.52Z"/></g><g id="손"><path class="cls-2" d="M798.43,1017.49l-4.38-6.48a8.59,8.59,0,0,1-.76-8.28l1.41-3.22L780,982.22H760l-12.88,49.2a37,37,0,0,0-.93,4.91l-.77,6.41,31.84,2a1.61,1.61,0,0,1,3,.82l.21,5h17.36l2.47-25.75A11.09,11.09,0,0,0,798.43,1017.49Z"/><path class="cls-2" d="M1308.2,1036.33a37,37,0,0,0-.93-4.91l-12.88-49.2h-20l-14.67,17.29,1.41,3.22a8.59,8.59,0,0,1-.76,8.28l-4.38,6.48a11.09,11.09,0,0,0-1.86,7.29L1257,1055h16.75l.41-9.44a1.6,1.6,0,0,1,2.94-.82l4.35,6.58H1310Z"/></g><g id="손가락"><path class="cls-2" d="M781.73,1079.86a7.42,7.42,0,0,0,2.94,5.73c3.5,2.58,9.38,2,12.3-26.1l.85-9H780.46Z"/><path class="cls-2" d="M741.42,1076.52a22.57,22.57,0,0,0-.06,4.86l4.87,50.18a5.67,5.67,0,0,0,4.69,5.14c1.89.27,4-.37,5.46-3.54a11,11,0,0,0,.94-4.73l0-3.9-.45-45.36a11.33,11.33,0,0,1,.57-3.62h0a10.89,10.89,0,0,1,1.31-2.73l2.19-3.32,16.4-24.79-31.84-2Z"/><path class="cls-2" d="M757.28,1124.53s8.73-.65,9-12.56a23.42,23.42,0,0,0-.24-3.74L760,1071l-2.64,4.56h0Z"/><path class="cls-2" d="M1297.15,1124.53s-8.73-.65-9-12.56a24.64,24.64,0,0,1,.24-3.74l6-37.24,2.65,4.56Z"/><path class="cls-2" d="M1257.47,1059.49c2.92,28.09,8.79,28.68,12.3,26.1a7.49,7.49,0,0,0,2.94-5.73l1.07-24.89H1257Z"/><path class="cls-2" d="M1313,1076.52l-3-25.23h-28.51l12,18.21,2.2,3.32a11.35,11.35,0,0,1,1.87,6.35l-.45,45.36,0,3.9a11.11,11.11,0,0,0,.94,4.73c1.46,3.17,3.57,3.81,5.46,3.54a5.67,5.67,0,0,0,4.69-5.14l4.87-50.18A21.94,21.94,0,0,0,1313,1076.52Z"/></g><g id="허리"><path class="cls-2" d="M919.45,718.52s17,148,1.69,209.1A13.45,13.45,0,0,0,923.48,939l86.24,117.67c4.68,6.23,11.37,10.42,22.64,10.44h0c6.68,0,15.2-5.71,19-12.26,7.68-13.39,51.44-72.58,82.84-114.67,3-4,4.53-10.63,2.85-15.3-4.84-13.4-16.31-81.28-2.61-206.31Z"/><polygon class="cls-2" points="924.95 783.39 926.73 819.04 927.37 856.15 966.58 880.6 966.58 843.88 966.58 843.86 966.58 807.14 966.58 718.52 919.45 718.52 924.95 783.39"/><polygon class="cls-2" points="1091.59 718.52 1091.59 807.14 1091.59 843.86 1091.59 843.88 1091.59 880.6 1130.8 856.15 1131.43 819.04 1133.22 783.39 1134.41 718.52 1091.59 718.52"/></g><g id="배"><polygon class="cls-2" points="1029.15 718.52 1029.15 766.07 966.58 807.14 966.58 718.52 1029.15 718.52"/><path class="cls-2" d="M966.58,843.89s35.23-13.51,62.57-11.89V767l-62.57,40.17Z"/><path class="cls-2" d="M1029.15,885.87s-43.25,6.78-62.57-5.27V843.86s30.73-13.83,62.57-12Z"/><polygon class="cls-2" points="1029.01 718.52 1029.01 766.07 1091.59 807.14 1091.59 718.52 1029.01 718.52"/><path class="cls-2" d="M1091.59,843.89S1056.35,830.38,1029,832V767l62.58,40.17Z"/><path class="cls-2" d="M1029,885.87s43.26,6.78,62.58-5.27V843.86s-30.73-13.83-62.58-12Z"/></g><g id="갈비뼈"><path class="cls-2" d="M919.45,718.52l38.35,16.83a33.63,33.63,0,0,0,23.9,1.19l47.45-12V612.33s-58.38-22.75-87.35-8.83c-.71.34-1.4.69-2.12,1-4.84,2.15-31.19,15.32-32.66,47.54Z"/><path class="cls-2" d="M1134.33,718.52,1096,735.35a33.63,33.63,0,0,1-23.9,1.19l-42.93-12V612.33S1083,589.58,1112,603.5c.71.34,1.4.69,2.12,1,4.84,2.15,31.19,15.32,32.66,47.54Z"/></g><g id="골반"><path class="cls-2" d="M1029.15,1067V886s-37.78,7.51-62.57-5.43L1001,1044.26S1012.57,1067.06,1029.15,1067Z"/><path class="cls-2" d="M927.37,856.15s.55,43-4.62,63.76c0,0-4.67,13.14,1.24,20.22,1,1.19,2,2.36,2.94,3.6l73.22,99L966.58,880.6Z"/><path class="cls-2" d="M1029,1067V886s37.78,7.51,62.58-5.43l-33.33,158.47a40.87,40.87,0,0,1-5.42,13.5C1048.32,1059.66,1040.32,1068.48,1029,1067Z"/><path class="cls-2" d="M1130.8,856.15s-.55,43,4.61,63.76c0,0,4.67,13.14-1.24,20.22-1,1.19-2,2.36-2.94,3.6l-74.07,101.08,34.43-164.21Z"/></g><g id="허벅지"><path class="cls-2" d="M988.25,1023.31,943,965.48l-19-25.35-18.3,64.74a93.83,93.83,0,0,0-3.53,25.48v185.31l4.86,95.11A14,14,0,0,0,920.66,1300c2.34-10.16,9.07-24.53,28.36-29.25,0,0,21.53,10.69,24.27,40a8,8,0,0,0,2.19,4.78l12.6,13.06v-26.83a276.7,276.7,0,0,1,12.34-81.72l8.86-28.63a121.46,121.46,0,0,0,5.15-27.77l6.62-98.41Z"/><path class="cls-2" d="M1150.89,1004.87l-16.72-64.74-20.6,25.35-45.24,57.83-32.8,41.93,6.63,98.41a121.46,121.46,0,0,0,5.15,27.77l8.85,28.63a276.38,276.38,0,0,1,12.35,81.72v26.83l12.59-13.06a7.91,7.91,0,0,0,2.19-4.78c2.75-29.29,24.27-40,24.27-40,19.3,4.72,26,19.09,28.36,29.25a14,14,0,0,0,13.64,10.74h0l4.87-95.11V1030.35A93.45,93.45,0,0,0,1150.89,1004.87Z"/></g><g id="무릎"><path class="cls-2" d="M907,1310.77s3.7,31,.83,45.88a8.26,8.26,0,0,0,1.41,6.38l11.66,16.1a29.38,29.38,0,0,0,23.8,12.16h7a37.29,37.29,0,0,0,18.54-7.92c1.3-1.35,4.19-2.75,4.37-5.41.42-6.12,3.16-15.79,5.12-21.6,1.06-3.12,2.08-6.25,3-9.42l5.33-18.34-10.72-10a15.66,15.66,0,0,1-4.07-7.8c-1.83-9.13-6.42-30-24.27-40,0,0-20.09,1-28.39,27-1.35,4.23-2.29,8.75-6.18,10.9Z"/><path class="cls-2" d="M1149.72,1310.77s-3.7,31-.84,45.88a8.22,8.22,0,0,1-1.4,6.38l-11.66,16.1a29.38,29.38,0,0,1-23.8,12.16h-7a37.36,37.36,0,0,1-18.55-7.92c-1.29-1.35-4.18-2.75-4.36-5.41-.42-6.12-3.16-15.79-5.12-21.6-1.06-3.12-2.09-6.25-3-9.42l-5.32-18.34,10.72-10a15.66,15.66,0,0,0,4.07-7.8c1.83-9.13,6.42-30,24.27-40,0,0,20.09,1,28.39,27,1.35,4.23,2.29,8.75,6.18,10.9Z"/></g><g id="정강이"><path class="cls-2" d="M977,1463.49,974.63,1378s-2.7,8.62-18.59,13c0,0-22.88,4.47-33-9.15L909.26,1363l-7.1,29.61c-1.16,6.87-3.51,18.7-3.24,25.66,0,0,7.85,85,10,96.81,2.54,14.17,5.93,32.14,6.25,35.05,7,64.3,0,84.29,0,84.29,2.85-4.45,3-24.7,3-24.7h32.35l-1.43,24.7,3.77-65.28a141.51,141.51,0,0,1,8.81-41.55l8.25-21.88A111.34,111.34,0,0,0,977,1463.49Z"/><path class="cls-2" d="M1118.45,1609.75H1139c-.46-13.19,0-32.44,3-59.59.31-2.91,3.7-20.88,6.24-35.05,2.11-11.77,10-96.81,10-96.81.26-7-2.08-18.79-3.25-25.66l-7.1-29.61-13.8,18.73c-10.1,13.62-33,9.15-33,9.15-15.88-4.33-18.59-13-18.59-13l-2.32,85.53a111.34,111.34,0,0,0,7.1,42.25l8.25,21.88a140.87,140.87,0,0,1,8.81,41.55l2.52,40.58Z"/></g><g id="아킬레스건_발목_발" data-name="아킬레스건&amp;발목&amp;발"><polygon class="cls-2" points="938.4 1609.75 938.4 1634.45 949.02 1634.45 950.02 1609.75 938.4 1609.75"/><polygon class="cls-2" points="1106.83 1609.75 1108.25 1634.45 1118.45 1634.45 1118.45 1609.75 1106.83 1609.75"/></g><g id="발목"><path class="cls-2" d="M938.4,1609.75H918.1s-.12,20.25-3,24.7H938.4Z"/><path class="cls-2" d="M1118.45,1634.45H1142s-.09-.25-.24-.8c-1.4-3.21-2-10.46-2.32-16.14-.17-2.32-.32-4.9-.41-7.76h-20.56Z"/></g><g id="발"><path class="cls-2" d="M915.13,1634.45s-15.49,26.84-38.91,36.93c0,0-27,10-21.52,16.84,2,2.56,6.66,3.69,11.43.63,0,0-1.62,3.24,1,5a6.42,6.42,0,0,0,9.28-2.61s-1.62,3.25,1.44,4.51c0,0,5,1.82,7.18-2.5,0,0-.69,3,3.27,3.67,0,0,4.5.27,6.48-2.8a3.14,3.14,0,0,0,3.06,3.39,17.5,17.5,0,0,0,10.81-2.66s20.77-14,31.34-17.83a16.78,16.78,0,0,1,4.81-.91c3.72-.19,14.53-2,10.32-17.65,0,0-6.62-14.8-6.09-24H915.13Zm-49,54.4s2.16-3.42,3.79-4.5Zm10.27,2.34a19.12,19.12,0,0,1,2-2.34Zm8.62,2s1.29-2.1,2.37-2.46Zm9.75.87s-.18-.51,1.8-2.1Z"/><path class="cls-2" d="M866.13,1688.85l3.79-4.5C868.29,1685.43,866.13,1688.85,866.13,1688.85Z"/><path class="cls-2" d="M878.38,1688.85a19.12,19.12,0,0,0-2,2.34Z"/><path class="cls-2" d="M885,1693.2l2.37-2.46C886.31,1691.1,885,1693.2,885,1693.2Z"/><path class="cls-2" d="M894.77,1694.07l1.8-2.1C894.59,1693.56,894.77,1694.07,894.77,1694.07Z"/><path class="cls-2" d="M1190.89,1688.85s-2.16-3.42-3.78-4.5"/><path class="cls-2" d="M1180.8,1671.38c-23.41-10.09-38.9-36.93-38.9-36.93H1108c.53,9.16-6.09,24-6.09,24-4.2,15.61,6.6,17.46,10.32,17.65a16.72,16.72,0,0,1,4.81.91c10.57,3.79,31.34,17.83,31.34,17.83a17.52,17.52,0,0,0,10.81,2.66,3.14,3.14,0,0,0,3.06-3.39c2,3.07,6.49,2.8,6.49,2.8,4-.72,3.27-3.67,3.27-3.67,2.16,4.32,7.17,2.5,7.17,2.5,3.06-1.26,1.44-4.51,1.44-4.51a6.42,6.42,0,0,0,9.28,2.61c2.61-1.71,1-5,1-5,4.77,3.06,9.38,1.93,11.44-.63C1207.84,1681.35,1180.8,1671.38,1180.8,1671.38Zm-18.55,22.69-1.8-2.1C1162.43,1693.56,1162.25,1694.07,1162.25,1694.07Zm7.39-3.33c1.08.36,2.37,2.46,2.37,2.46Zm9-1.89a19.12,19.12,0,0,1,2,2.34Z"/><path class="cls-2" d="M1180.62,1691.19a19.12,19.12,0,0,0-2-2.34Z"/><path class="cls-2" d="M1169.64,1690.74l2.37,2.46S1170.72,1691.1,1169.64,1690.74Z"/><path class="cls-2" d="M1160.45,1692l1.8,2.1S1162.43,1693.56,1160.45,1692Z"/><path class="cls-2" d="M1191.81,1688.85l-3.78-4.5C1189.65,1685.43,1191.81,1688.85,1191.81,1688.85Z"/></g></svg>