<svg xmlns="http://www.w3.org/2000/svg" viewBox="0 0 2000 2000"><defs><style>.cls-1{fill:#fff;}.cls-1,.cls-2,.cls-3{stroke:#44bcce;stroke-linecap:round;stroke-linejoin:round;}.cls-1,.cls-3{stroke-width:4px;}.cls-2{fill:none;stroke-width:2px;}.cls-3{fill:#44bcce;}</style></defs><title>부상파트</title><g id="목"><polyline class="cls-1" points="1035.4 490.98 1035.4 534.23 1080.17 560.89 1001.42 596.79 919.61 559.79 966.41 535.72 966.65 490.98 1035.4 490.98"/></g><g id="머리"><path class="cls-1" d="M944.61,410s-13.67-74.42,45.13-78.52c1-.07,2.06-.14,3.1-.25,10.35-1.06,82.66-5.52,64.56,79.7,0,0,11.86-8.56,10.41,11.77-.56,7.93-1.45,20.69-14.06,31.86l-.89,11.91s.36,7.92-9,14.77l-22,17.86a23.31,23.31,0,0,1-14.67,5.19H995.26a21.52,21.52,0,0,1-12-3.61L961.5,486.15a24.71,24.71,0,0,1-11-19.77l-.3-9.26a50.73,50.73,0,0,1-18.05-27.18C931.8,428.63,924.74,403.8,944.61,410Z"/><path class="cls-2" d="M936.09,426.79s-2.14-15.32,5.17-10.34c2,1.34,7.65,6,7.65,13.92,0,0,.74,8.23-1,9.79a2.62,2.62,0,0,0-.89.22,3.7,3.7,0,0,0-1,6.13,4.37,4.37,0,0,0,3.06,1.12"/><path class="cls-2" d="M948.49,426.74s-5.07,4.93-4.6,10.19"/><path class="cls-2" d="M1063.22,426.79s2.13-15.32-5.18-10.34c-2,1.34-7.64,6-7.64,13.92,0,0-.74,8.23,1,9.79a2.69,2.69,0,0,1,.9.22,3.69,3.69,0,0,1,1,6.13,4.34,4.34,0,0,1-3,1.12"/><path class="cls-2" d="M1050.82,426.74s5.07,4.93,4.59,10.19"/></g><g id="얼굴"><path class="cls-1" d="M992.13,372.38c.92-.06,1.83-.19,2.75-.19,15.28-.09,52.55-2.3,46.35,48.91L1038,456.78s.26,5-6.49,9.24l-15.89,11.17a18.46,18.46,0,0,1-10.57,3.25h-8.57a17.22,17.22,0,0,1-8.61-2.27l-15.72-9.09a15.13,15.13,0,0,1-7.93-12.37s-3-18.36-3.09-22.71C960.69,405,957.17,374.69,992.13,372.38Z"/></g><g id="어깨"><path class="cls-1" d="M919.61,559.79l-47,2a21.85,21.85,0,0,0-15.73,7.65L837,592.63a65.43,65.43,0,0,0-15.64,40.73l-1.55,57.92,60-53.49s3.67-82.56,118.55-42.09Z"/><path class="cls-1" d="M1080.17,560.89l47,2a21.85,21.85,0,0,1,15.73,7.65l19.85,23.24a65.4,65.4,0,0,1,15.64,40.73l1.55,57.92-60-53.5s-3.67-82.56-118.55-42.09Z"/></g><g id="팔"><path class="cls-1" d="M852.25,783.15l40-78.9-12.42-66.46-60,53.49s-9.24,16.81-10.68,48.2a108.09,108.09,0,0,1-5.36,29.12l-2.33,7S767.57,799,767.38,842.37a38.86,38.86,0,0,1-.28,4.94C765.36,861.2,756,928.37,732.82,968h20l14.09,16.6a.24.24,0,0,0,.42-.18c-3.5-23.61,52.15-104.11,67.41-125.65a80.09,80.09,0,0,0,7.4-12.66c19.46-42,10.11-62.92,10.11-62.92Z"/><path class="cls-1" d="M1232.74,847.31a40.8,40.8,0,0,1-.29-4.94c-.18-43.33-34.06-66.79-34.06-66.79H1198l-2.33-7a107.7,107.7,0,0,1-5.36-29.12c-1.44-31.39-10.69-48.2-10.69-48.2l-60-53.49-12.43,66.46,40,78.9.34.18c-.82,2-8.29,22.94,10.17,62.74a80.14,80.14,0,0,0,7.41,12.66c15.15,21.39,70.14,100.92,67.48,125.15a.38.38,0,0,0,.68.29L1247,968h20C1243.84,928.37,1234.47,861.2,1232.74,847.31Z"/></g><g id="팔꿈치"><polygon class="cls-1" points="809.14 739.48 867.67 752.71 852.25 783.15 801.45 775.58 809.14 739.48"/><polygon class="cls-1" points="1190.38 739.48 1131.84 752.71 1147.27 783.15 1198.07 775.58 1190.38 739.48"/></g><g id="손목"><path class="cls-1" d="M774.14,958.05s-8.65,17.6-6.65,27.2L752.82,968h-20s9.25-18.41,11.25-23.71h17.52Z"/><path class="cls-1" d="M1225.87,958.05s8.65,17.6,6.65,27.2L1247.19,968h20s-9.25-18.41-11.25-23.71h-17.52Z"/></g><g id="손"><path class="cls-1" d="M771.22,1003.22l-4.39-6.47a8.61,8.61,0,0,1-.75-8.29l1.41-3.21L752.82,968h-20L720,1017.15a36,36,0,0,0-.93,4.91l-.77,6.42,31.83,2a1.61,1.61,0,0,1,2.95.81l.22,5h17.36l2.47-25.75A11.15,11.15,0,0,0,771.22,1003.22Z"/><path class="cls-1" d="M1281,1022.06a36,36,0,0,0-.93-4.91L1267.18,968h-20l-14.67,17.29,1.41,3.21a8.61,8.61,0,0,1-.75,8.29l-4.39,6.47a11.15,11.15,0,0,0-1.86,7.29l2.9,30.19h16.74l.41-9.44a1.61,1.61,0,0,1,3-.81l4.35,6.58h28.51Z"/></g><g id="손가락"><path class="cls-1" d="M754.51,1065.6a7.52,7.52,0,0,0,2.94,5.73c3.51,2.58,9.38,2,12.3-26.11l.86-9H753.25Z"/><path class="cls-1" d="M714.2,1062.25a22.66,22.66,0,0,0-.05,4.87l4.87,50.17a5.68,5.68,0,0,0,4.68,5.15c1.9.27,4-.37,5.46-3.54a11,11,0,0,0,.94-4.74l0-3.9-.44-45.36a11.05,11.05,0,0,1,.56-3.62h0a11.18,11.18,0,0,1,1.31-2.72l2.2-3.33,16.39-24.78-31.83-2Z"/><path class="cls-1" d="M730.06,1110.26s8.73-.65,9-12.56a24.6,24.6,0,0,0-.24-3.73l-6-37.25-2.64,4.56h0Z"/><path class="cls-1" d="M1269.94,1110.26s-8.73-.65-9-12.56a24.6,24.6,0,0,1,.24-3.73l6-37.25,2.64,4.56Z"/><path class="cls-1" d="M1230.25,1045.22c2.92,28.09,8.79,28.69,12.3,26.11a7.52,7.52,0,0,0,2.94-5.73l1.07-24.9h-16.74Z"/><path class="cls-1" d="M1285.8,1062.25l-3-25.22h-28.51l12,18.2,2.2,3.33a11.26,11.26,0,0,1,1.87,6.34l-.44,45.36,0,3.9a11,11,0,0,0,.94,4.74c1.46,3.17,3.56,3.81,5.46,3.54a5.68,5.68,0,0,0,4.68-5.15l4.87-50.17A22.66,22.66,0,0,0,1285.8,1062.25Z"/></g><g id="허리"><path class="cls-1" d="M892.23,704.25s17,148,1.7,209.1a13.41,13.41,0,0,0,2.34,11.34l86.23,117.67c4.69,6.23,11.37,10.42,22.64,10.43h0c6.69,0,15.21-5.7,19-12.26,7.67-13.39,51.44-72.57,82.84-114.66,3-4,4.52-10.64,2.84-15.3-4.84-13.4-16.3-81.29-2.61-206.32Z"/></g><g id="갈비뼈"><polygon class="cls-3" points="897.73 769.13 899.52 804.77 900.15 841.88 939.36 866.34 939.36 829.62 939.36 829.59 939.36 792.88 939.36 704.25 892.23 704.25 897.73 769.13"/><polygon class="cls-3" points="1064.37 704.25 1064.37 792.88 1064.37 829.59 1064.37 829.62 1064.37 866.34 1103.58 841.88 1104.21 804.77 1106 769.13 1107.19 704.25 1064.37 704.25"/><polygon class="cls-3" points="1001.94 704.25 1001.94 751.81 939.36 792.88 939.36 704.25 1001.94 704.25"/><path class="cls-3" d="M939.36,829.62s35.23-13.51,62.58-11.89v-65l-62.58,40.16Z"/><path class="cls-3" d="M1001.94,871.61s-43.26,6.77-62.58-5.27V829.59s30.73-13.82,62.58-12Z"/><polygon class="cls-3" points="1001.79 704.25 1001.79 751.81 1064.37 792.88 1064.37 704.25 1001.79 704.25"/><path class="cls-3" d="M1064.37,829.62s-35.23-13.51-62.58-11.89v-65l62.58,40.16Z"/><path class="cls-3" d="M1001.79,871.61s43.26,6.77,62.58-5.27V829.59s-30.73-13.82-62.58-12Z"/><path class="cls-3" d="M892.23,704.25l38.35,16.83a33.66,33.66,0,0,0,23.91,1.2l47.45-12.06V598.06s-58.38-22.74-87.35-8.83c-.71.34-1.41.7-2.12,1-4.84,2.15-31.19,15.32-32.66,47.54Z"/><path class="cls-3" d="M1107.11,704.25l-38.34,16.83a33.66,33.66,0,0,1-23.91,1.2l-42.92-12.06V598.06s53.85-22.74,82.82-8.83c.71.34,1.41.7,2.12,1,4.84,2.15,31.19,15.32,32.66,47.54Z"/></g><g id="골반"><path class="cls-1" d="M1001.94,1052.78v-181s-37.79,7.51-62.58-5.43L973.78,1030S985.36,1052.8,1001.94,1052.78Z"/><path class="cls-1" d="M900.15,841.89s.55,43-4.62,63.75c0,0-4.67,13.14,1.24,20.23,1,1.19,2,2.35,2.94,3.6l73.22,99L939.36,866.34Z"/><path class="cls-1" d="M1001.79,1052.78v-181s37.79,7.51,62.58-5.43L1031,1024.81a40.6,40.6,0,0,1-5.42,13.49C1021.11,1045.39,1013.1,1054.22,1001.79,1052.78Z"/><path class="cls-1" d="M1103.58,841.89s-.55,43,4.62,63.75c0,0,4.67,13.14-1.24,20.23-1,1.19-2,2.35-2.94,3.6l-74.08,101.08,34.43-164.21Z"/></g><g id="허벅지"><path class="cls-1" d="M961,1009,915.8,951.22l-19-25.35-18.3,64.74a93.78,93.78,0,0,0-3.53,25.48V1201.4l4.87,95.1a14,14,0,0,0,13.64-10.73c2.33-10.16,9.06-24.54,28.35-29.25,0,0,21.53,10.69,24.27,40a8,8,0,0,0,2.2,4.77l12.59,13.07V1287.5a276.48,276.48,0,0,1,12.35-81.72l8.85-28.63a121.37,121.37,0,0,0,5.15-27.76l6.63-98.42Z"/><path class="cls-1" d="M1123.68,990.61,1107,925.87l-20.6,25.35L1041.12,1009l-32.8,41.93,6.62,98.42a121.37,121.37,0,0,0,5.15,27.76l8.86,28.63a276.8,276.8,0,0,1,12.34,81.72v26.84l12.6-13.07a7.94,7.94,0,0,0,2.19-4.77c2.74-29.29,24.27-40,24.27-40,19.29,4.71,26,19.09,28.36,29.25a14,14,0,0,0,13.64,10.73h0l4.86-95.1V1016.09A93.78,93.78,0,0,0,1123.68,990.61Z"/></g><g id="무릎"><path class="cls-1" d="M879.81,1296.5s3.69,31,.83,45.89a8.23,8.23,0,0,0,1.4,6.38l11.66,16.1A29.4,29.4,0,0,0,917.5,1377h7a37.29,37.29,0,0,0,18.55-7.91c1.29-1.35,4.18-2.75,4.37-5.41.41-6.12,3.15-15.79,5.12-21.6,1.05-3.13,2.08-6.26,3-9.42l5.32-18.34-10.72-10a15.63,15.63,0,0,1-4.07-7.79c-1.83-9.14-6.42-30-24.27-40,0,0-20.09,1-28.39,27-1.35,4.23-2.29,8.75-6.18,10.89Z"/><path class="cls-1" d="M1122.5,1296.5s-3.7,31-.83,45.89a8.19,8.19,0,0,1-1.41,6.38l-11.66,16.1a29.37,29.37,0,0,1-23.8,12.15h-7a37.23,37.23,0,0,1-18.54-7.91c-1.3-1.35-4.19-2.75-4.37-5.41-.42-6.12-3.15-15.79-5.12-21.6-1.06-3.13-2.08-6.26-3-9.42l-5.33-18.34,10.73-10a15.69,15.69,0,0,0,4.06-7.79c1.83-9.14,6.42-30,24.27-40,0,0,20.09,1,28.39,27,1.35,4.23,2.3,8.75,6.18,10.89Z"/></g><g id="정강이"><path class="cls-1" d="M949.73,1449.23l-2.31-85.53s-2.71,8.61-18.59,13c0,0-22.88,4.46-33-9.15L882,1348.77l-7.1,29.6c-1.16,6.88-3.51,18.7-3.24,25.67,0,0,7.85,85,10,96.81,2.55,14.16,5.93,32.13,6.25,35,7,64.3,0,84.3,0,84.3,2.86-4.45,3-24.71,3-24.71h32.35l-1.43,24.71,3.78-65.29a140.81,140.81,0,0,1,8.81-41.54l8.24-21.89A111.29,111.29,0,0,0,949.73,1449.23Z"/><path class="cls-1" d="M1091.23,1595.48h20.56c-.46-13.18,0-32.43,3-59.59.32-2.91,3.7-20.88,6.25-35,2.11-11.77,10-96.81,10-96.81.27-7-2.08-18.79-3.24-25.67l-7.1-29.6-13.81,18.73c-10.1,13.61-33,9.15-33,9.15-15.88-4.34-18.59-13-18.59-13l-2.31,85.53a111.29,111.29,0,0,0,7.1,42.24l8.24,21.89a140.81,140.81,0,0,1,8.81,41.54l2.52,40.58Z"/></g><g id="아킬레스건_발목_발" data-name="아킬레스건&amp;발목&amp;발"><polygon class="cls-1" points="911.18 1595.48 911.18 1620.19 921.8 1620.19 922.8 1595.48 911.18 1595.48"/><polygon class="cls-1" points="1079.61 1595.48 1081.04 1620.19 1091.23 1620.19 1091.23 1595.48 1079.61 1595.48"/></g><g id="발목"><path class="cls-1" d="M911.18,1595.48h-20.3s-.11,20.26-3,24.71h23.27Z"/><path class="cls-1" d="M1091.23,1620.19h23.53s-.09-.26-.24-.8c-1.39-3.21-2-10.46-2.32-16.15-.17-2.31-.31-4.89-.41-7.76h-20.56Z"/></g><g id="발"><path class="cls-1" d="M887.91,1620.19S872.42,1647,849,1657.11c0,0-27,10-21.52,16.85,2,2.56,6.66,3.69,11.44.63,0,0-1.62,3.24,1,5a6.42,6.42,0,0,0,9.27-2.61s-1.62,3.24,1.44,4.5c0,0,5,1.83,7.18-2.5,0,0-.69,3,3.27,3.67,0,0,4.51.27,6.49-2.79a3.13,3.13,0,0,0,3.06,3.38,17.45,17.45,0,0,0,10.81-2.66s20.76-14,31.34-17.82a16.33,16.33,0,0,1,4.8-.92c3.72-.18,14.53-2,10.33-17.65,0,0-6.62-14.8-6.1-24H887.91Zm-49,54.4s2.16-3.43,3.78-4.51Zm10.26,2.34a18.71,18.71,0,0,1,2-2.34Zm8.62,2s1.29-2.09,2.37-2.45Zm9.76.88s-.18-.52,1.8-2.1Z"/><path class="cls-1" d="M838.92,1674.59l3.78-4.51C841.08,1671.16,838.92,1674.59,838.92,1674.59Z"/><path class="cls-1" d="M851.17,1674.59a18.71,18.71,0,0,0-2,2.34Z"/><path class="cls-1" d="M857.8,1678.93l2.37-2.45C859.09,1676.84,857.8,1678.93,857.8,1678.93Z"/><path class="cls-1" d="M867.56,1679.81l1.8-2.1C867.38,1679.29,867.56,1679.81,867.56,1679.81Z"/><path class="cls-1" d="M1163.67,1674.59s-2.16-3.43-3.78-4.51"/><path class="cls-1" d="M1153.59,1657.11c-23.42-10.08-38.91-36.92-38.91-36.92h-33.89c.53,9.15-6.1,24-6.1,24-4.2,15.62,6.61,17.47,10.33,17.65a16.46,16.46,0,0,1,4.81.92c10.57,3.79,31.34,17.82,31.34,17.82a17.42,17.42,0,0,0,10.8,2.66c3.4-.45,3.06-3.38,3.06-3.38,2,3.06,6.49,2.79,6.49,2.79,4-.72,3.27-3.67,3.27-3.67,2.16,4.33,7.18,2.5,7.18,2.5,3.06-1.26,1.44-4.5,1.44-4.5a6.42,6.42,0,0,0,9.27,2.61c2.62-1.71,1-5,1-5,4.78,3.06,9.39,1.93,11.44-.63C1180.62,1667.08,1153.59,1657.11,1153.59,1657.11Zm-18.56,22.7-1.8-2.1C1135.21,1679.29,1135,1679.81,1135,1679.81Zm7.39-3.33c1.08.36,2.37,2.45,2.37,2.45Zm9-1.89a19.12,19.12,0,0,1,2,2.34Z"/><path class="cls-1" d="M1153.41,1676.93a19.12,19.12,0,0,0-2-2.34Z"/><path class="cls-1" d="M1142.42,1676.48l2.37,2.45S1143.5,1676.84,1142.42,1676.48Z"/><path class="cls-1" d="M1133.23,1677.71l1.8,2.1S1135.21,1679.29,1133.23,1677.71Z"/><path class="cls-1" d="M1164.59,1674.59l-3.78-4.51C1162.43,1671.16,1164.59,1674.59,1164.59,1674.59Z"/></g></svg>