<svg xmlns="http://www.w3.org/2000/svg" viewBox="0 0 2000 2000"><defs><style>.cls-1{fill:#fff;}.cls-1,.cls-2,.cls-3{stroke:#44bcce;stroke-linecap:round;stroke-linejoin:round;}.cls-1,.cls-3{stroke-width:4px;}.cls-2{fill:none;stroke-width:2px;}.cls-3{fill:#44bcce;}</style></defs><title>부상파트</title><g id="목"><polyline class="cls-1" points="1035.4 508.68 1035.4 551.93 1080.17 578.59 1001.42 614.5 919.61 577.5 966.41 553.43 966.65 508.68 1035.4 508.68"/></g><g id="머리"><path class="cls-1" d="M944.61,427.72s-13.67-74.42,45.13-78.51c1-.08,2.06-.15,3.1-.25,10.35-1.06,82.66-5.52,64.56,79.7,0,0,11.86-8.56,10.41,11.76-.56,7.93-1.45,20.7-14.06,31.86l-.89,11.91s.36,7.93-9,14.77l-22,17.87a23.31,23.31,0,0,1-14.67,5.19H995.26a21.53,21.53,0,0,1-12-3.62L961.5,503.86a24.72,24.72,0,0,1-11-19.77l-.3-9.26a50.79,50.79,0,0,1-18.05-27.18C931.8,446.33,924.74,421.51,944.61,427.72Z"/><path class="cls-2" d="M936.09,444.49s-2.14-15.31,5.17-10.33c2,1.34,7.65,6,7.65,13.91,0,0,.74,8.24-1,9.79a2.62,2.62,0,0,0-.89.22,3.71,3.71,0,0,0-1,6.14,4.41,4.41,0,0,0,3.06,1.11"/><path class="cls-2" d="M948.49,444.44s-5.07,4.93-4.6,10.19"/><path class="cls-2" d="M1063.22,444.49s2.13-15.31-5.18-10.33c-2,1.34-7.64,6-7.64,13.91,0,0-.74,8.24,1,9.79a2.69,2.69,0,0,1,.9.22,3.7,3.7,0,0,1,1,6.14,4.39,4.39,0,0,1-3,1.11"/><path class="cls-2" d="M1050.82,444.44s5.07,4.93,4.59,10.19"/></g><g id="얼굴"><path class="cls-1" d="M992.13,390.09c.92-.06,1.83-.19,2.75-.2,15.28-.08,52.55-2.3,46.35,48.91L1038,474.49s.26,4.95-6.49,9.23l-15.89,11.17a18.46,18.46,0,0,1-10.57,3.25h-8.57a17.32,17.32,0,0,1-8.61-2.26l-15.72-9.1a15.12,15.12,0,0,1-7.93-12.36s-3-18.36-3.09-22.72C960.69,422.7,957.17,392.39,992.13,390.09Z"/></g><g id="어깨"><path class="cls-1" d="M919.61,577.5l-47,2a21.85,21.85,0,0,0-15.73,7.65L837,610.34a65.4,65.4,0,0,0-15.64,40.72L819.82,709l60-53.5s3.67-82.56,118.55-42.09Z"/><path class="cls-1" d="M1080.17,578.59l47,1.95a21.85,21.85,0,0,1,15.73,7.65l19.85,23.24a65.43,65.43,0,0,1,15.64,40.73l1.55,57.93-60-53.5S1116.3,574,1001.42,614.5Z"/></g><g id="팔"><path class="cls-1" d="M852.25,800.85l40-78.89-12.42-66.47-60,53.5s-9.24,16.81-10.68,48.19a108.16,108.16,0,0,1-5.36,29.13l-2.33,7s-33.88,23.45-34.07,66.78a38.75,38.75,0,0,1-.28,4.94c-1.74,13.89-11.11,81.07-34.28,120.65h20l14.09,16.61a.24.24,0,0,0,.42-.18c-3.5-23.62,52.15-104.11,67.41-125.65a81,81,0,0,0,7.4-12.66c19.46-41.95,10.11-62.93,10.11-62.93Z"/><path class="cls-1" d="M1232.74,865a40.68,40.68,0,0,1-.29-4.94c-.18-43.33-34.06-66.78-34.06-66.78H1198l-2.33-7a107.78,107.78,0,0,1-5.36-29.13C1188.85,725.8,1179.6,709,1179.6,709l-60-53.5L1107.19,722l40,78.89.34.18c-.82,2-8.29,22.94,10.17,62.75a81.05,81.05,0,0,0,7.41,12.66c15.15,21.39,70.14,100.92,67.48,125.14a.39.39,0,0,0,.68.3L1247,985.66h20C1243.84,946.08,1234.47,878.9,1232.74,865Z"/></g><g id="팔꿈치"><polygon class="cls-1" points="809.14 757.18 867.67 770.41 852.25 800.85 801.45 793.29 809.14 757.18"/><polygon class="cls-1" points="1190.38 757.18 1131.84 770.41 1147.27 800.85 1198.07 793.29 1190.38 757.18"/></g><g id="손목"><path class="cls-1" d="M774.14,975.75s-8.65,17.61-6.65,27.2l-14.67-17.29h-20s9.25-18.41,11.25-23.7h17.52Z"/><path class="cls-3" d="M1225.87,975.75s8.65,17.61,6.65,27.2l14.67-17.29h20s-9.25-18.41-11.25-23.7h-17.52Z"/></g><g id="손"><path class="cls-1" d="M771.22,1020.93l-4.39-6.48a8.59,8.59,0,0,1-.75-8.28l1.41-3.22-14.67-17.29h-20L720,1034.86a35.42,35.42,0,0,0-.93,4.91l-.77,6.41,31.83,2a1.61,1.61,0,0,1,2.95.82l.22,5h17.36l2.47-25.75A11.13,11.13,0,0,0,771.22,1020.93Z"/><path class="cls-1" d="M1281,1039.77a35.42,35.42,0,0,0-.93-4.91l-12.87-49.2h-20L1232.51,1003l1.41,3.22a8.59,8.59,0,0,1-.75,8.28l-4.39,6.48a11.13,11.13,0,0,0-1.86,7.29l2.9,30.19h16.74l.41-9.44a1.61,1.61,0,0,1,3-.82l4.35,6.58h28.51Z"/></g><g id="손가락"><path class="cls-1" d="M754.51,1083.3a7.49,7.49,0,0,0,2.94,5.73c3.51,2.58,9.38,2,12.3-26.1l.86-9H753.25Z"/><path class="cls-1" d="M714.2,1080a22.56,22.56,0,0,0-.05,4.86L719,1135a5.66,5.66,0,0,0,4.68,5.14c1.9.27,4-.37,5.46-3.54a11,11,0,0,0,.94-4.73l0-3.9-.44-45.37a11,11,0,0,1,.56-3.61h0a11.25,11.25,0,0,1,1.31-2.73l2.2-3.32,16.39-24.79-31.83-2Z"/><path class="cls-1" d="M730.06,1128s8.73-.65,9-12.56a24.64,24.64,0,0,0-.24-3.74l-6-37.24-2.64,4.56h0Z"/><path class="cls-1" d="M1269.94,1128s-8.73-.65-9-12.56a24.64,24.64,0,0,1,.24-3.74l6-37.24,2.64,4.56Z"/><path class="cls-1" d="M1230.25,1062.93c2.92,28.08,8.79,28.68,12.3,26.1a7.49,7.49,0,0,0,2.94-5.73l1.07-24.89h-16.74Z"/><path class="cls-1" d="M1285.8,1080l-3-25.23h-28.51l12,18.21,2.2,3.32a11.26,11.26,0,0,1,1.87,6.34l-.44,45.37,0,3.9a11,11,0,0,0,.94,4.73c1.46,3.17,3.56,3.81,5.46,3.54A5.66,5.66,0,0,0,1281,1135l4.87-50.18A22.56,22.56,0,0,0,1285.8,1080Z"/></g><g id="허리"><path class="cls-1" d="M892.23,722s17,148,1.7,209.1a13.38,13.38,0,0,0,2.34,11.33l86.23,117.67c4.69,6.23,11.37,10.42,22.64,10.44h0c6.69,0,15.21-5.71,19-12.26,7.67-13.39,51.44-72.58,82.84-114.67,3-4,4.52-10.63,2.84-15.3-4.84-13.4-16.3-81.28-2.61-206.31Z"/><polygon class="cls-1" points="897.73 786.83 899.52 822.48 900.15 859.59 939.36 884.04 939.36 847.33 939.36 847.3 939.36 810.58 939.36 721.96 892.23 721.96 897.73 786.83"/><polygon class="cls-1" points="1064.37 721.96 1064.37 810.58 1064.37 847.3 1064.37 847.33 1064.37 884.04 1103.58 859.59 1104.21 822.48 1106 786.83 1107.19 721.96 1064.37 721.96"/></g><g id="배"><polygon class="cls-1" points="1001.94 721.96 1001.94 769.51 939.36 810.58 939.36 721.96 1001.94 721.96"/><path class="cls-1" d="M939.36,847.33s35.23-13.51,62.58-11.89v-65l-62.58,40.17Z"/><path class="cls-1" d="M1001.94,889.31s-43.26,6.78-62.58-5.27V847.3s30.73-13.83,62.58-12Z"/><polygon class="cls-1" points="1001.79 721.96 1001.79 769.51 1064.37 810.58 1064.37 721.96 1001.79 721.96"/><path class="cls-1" d="M1064.37,847.33s-35.23-13.51-62.58-11.89v-65l62.58,40.17Z"/><path class="cls-1" d="M1001.79,889.31s43.26,6.78,62.58-5.27V847.3s-30.73-13.83-62.58-12Z"/></g><g id="갈비뼈"><path class="cls-1" d="M892.23,722l38.35,16.83A33.66,33.66,0,0,0,954.49,740l47.45-12.05V615.77s-58.38-22.75-87.35-8.83c-.71.34-1.41.69-2.12,1-4.84,2.15-31.19,15.32-32.66,47.54Z"/><path class="cls-1" d="M1107.11,722l-38.34,16.83a33.66,33.66,0,0,1-23.91,1.19l-42.92-12.05V615.77s53.85-22.75,82.82-8.83c.71.34,1.41.69,2.12,1,4.84,2.15,31.19,15.32,32.66,47.54Z"/></g><g id="골반"><path class="cls-1" d="M1001.94,1070.48v-181S964.15,897,939.36,884l34.42,163.66S985.36,1070.5,1001.94,1070.48Z"/><path class="cls-1" d="M900.15,859.59s.55,43-4.62,63.76c0,0-4.67,13.14,1.24,20.22,1,1.19,2,2.36,2.94,3.6l73.22,99L939.36,884Z"/><path class="cls-1" d="M1001.79,1070.48v-181s37.79,7.51,62.58-5.43L1031,1042.51a40.65,40.65,0,0,1-5.42,13.5C1021.11,1063.09,1013.1,1071.92,1001.79,1070.48Z"/><path class="cls-1" d="M1103.58,859.59s-.55,43,4.62,63.76c0,0,4.67,13.14-1.24,20.22-1,1.19-2,2.36-2.94,3.6l-74.08,101.08L1064.37,884Z"/></g><g id="허벅지"><path class="cls-1" d="M961,1026.75,915.8,968.92l-19-25.35-18.3,64.74a93.83,93.83,0,0,0-3.53,25.48V1219.1l4.87,95.11a14,14,0,0,0,13.64-10.74c2.33-10.16,9.06-24.53,28.35-29.25,0,0,21.53,10.69,24.27,40a8,8,0,0,0,2.2,4.78L960.86,1332v-26.83a276.38,276.38,0,0,1,12.35-81.72l8.85-28.63a121.46,121.46,0,0,0,5.15-27.77l6.63-98.41Z"/><path class="cls-1" d="M1123.68,1008.31,1107,943.57l-20.6,25.35-45.24,57.83-32.8,41.93,6.62,98.41a121.46,121.46,0,0,0,5.15,27.77l8.86,28.63a276.7,276.7,0,0,1,12.34,81.72V1332l12.6-13.06a8,8,0,0,0,2.19-4.78c2.74-29.29,24.27-40,24.27-40,19.29,4.72,26,19.09,28.36,29.25a14,14,0,0,0,13.64,10.74h0l4.86-95.11V1033.79A93.83,93.83,0,0,0,1123.68,1008.31Z"/></g><g id="무릎"><path class="cls-1" d="M879.81,1314.21s3.69,31,.83,45.88a8.22,8.22,0,0,0,1.4,6.38l11.66,16.1a29.37,29.37,0,0,0,23.8,12.15h7a37.29,37.29,0,0,0,18.55-7.91c1.29-1.35,4.18-2.75,4.37-5.41.41-6.12,3.15-15.79,5.12-21.6,1.05-3.12,2.08-6.25,3-9.42l5.32-18.34-10.72-10a15.66,15.66,0,0,1-4.07-7.8c-1.83-9.13-6.42-30-24.27-40,0,0-20.09,1-28.39,27-1.35,4.23-2.29,8.75-6.18,10.9Z"/><path class="cls-1" d="M1122.5,1314.21s-3.7,31-.83,45.88a8.18,8.18,0,0,1-1.41,6.38l-11.66,16.1a29.34,29.34,0,0,1-23.8,12.15h-7a37.23,37.23,0,0,1-18.54-7.91c-1.3-1.35-4.19-2.75-4.37-5.41-.42-6.12-3.15-15.79-5.12-21.6-1.06-3.12-2.08-6.25-3-9.42l-5.33-18.34,10.73-10a15.72,15.72,0,0,0,4.06-7.8c1.83-9.13,6.42-30,24.27-40,0,0,20.09,1,28.39,27,1.35,4.23,2.3,8.75,6.18,10.9Z"/></g><g id="정강이"><path class="cls-1" d="M949.73,1466.93l-2.31-85.53s-2.71,8.62-18.59,12.95c0,0-22.88,4.46-33-9.15L882,1366.47l-7.1,29.61c-1.16,6.87-3.51,18.7-3.24,25.66,0,0,7.85,85,10,96.81,2.55,14.17,5.93,32.14,6.25,35,7,64.31,0,84.3,0,84.3,2.86-4.45,3-24.7,3-24.7h32.35l-1.43,24.7,3.78-65.28a140.87,140.87,0,0,1,8.81-41.55l8.24-21.88A111.34,111.34,0,0,0,949.73,1466.93Z"/><path class="cls-1" d="M1091.23,1613.19h20.56c-.46-13.19,0-32.44,3-59.6.32-2.9,3.7-20.87,6.25-35,2.11-11.77,10-96.81,10-96.81.27-7-2.08-18.79-3.24-25.66l-7.1-29.61-13.81,18.73c-10.1,13.61-33,9.15-33,9.15-15.88-4.33-18.59-12.95-18.59-12.95l-2.31,85.53a111.34,111.34,0,0,0,7.1,42.25l8.24,21.88a140.87,140.87,0,0,1,8.81,41.55l2.52,40.58Z"/></g><g id="아킬레스건_발목_발" data-name="아킬레스건&amp;발목&amp;발"><polygon class="cls-1" points="911.18 1613.18 911.18 1637.89 921.8 1637.89 922.8 1613.18 911.18 1613.18"/><polygon class="cls-1" points="1079.61 1613.18 1081.04 1637.89 1091.23 1637.89 1091.23 1613.18 1079.61 1613.18"/></g><g id="발목"><path class="cls-1" d="M911.18,1613.19h-20.3s-.11,20.25-3,24.7h23.27Z"/><path class="cls-1" d="M1091.23,1637.89h23.53s-.09-.25-.24-.8c-1.39-3.21-2-10.46-2.32-16.14-.17-2.32-.31-4.9-.41-7.76h-20.56Z"/></g><g id="발"><path class="cls-1" d="M887.91,1637.89s-15.49,26.84-38.91,36.93c0,0-27,10-21.52,16.84,2,2.56,6.66,3.69,11.44.63,0,0-1.62,3.24,1,5a6.41,6.41,0,0,0,9.27-2.61s-1.62,3.24,1.44,4.51c0,0,5,1.82,7.18-2.5,0,0-.69,2.95,3.27,3.67,0,0,4.51.27,6.49-2.8a3.14,3.14,0,0,0,3.06,3.39,17.52,17.52,0,0,0,10.81-2.66s20.76-14,31.34-17.83a16.65,16.65,0,0,1,4.8-.91c3.72-.19,14.53-2,10.33-17.65,0,0-6.62-14.8-6.1-24H887.91Zm-49,54.4s2.16-3.42,3.78-4.5Zm10.26,2.34a18.71,18.71,0,0,1,2-2.34Zm8.62,2s1.29-2.1,2.37-2.46Zm9.76.87s-.18-.51,1.8-2.1Z"/><path class="cls-1" d="M838.92,1692.29l3.78-4.5C841.08,1688.87,838.92,1692.29,838.92,1692.29Z"/><path class="cls-1" d="M851.17,1692.29a18.71,18.71,0,0,0-2,2.34Z"/><path class="cls-1" d="M857.8,1696.64l2.37-2.46C859.09,1694.54,857.8,1696.64,857.8,1696.64Z"/><path class="cls-1" d="M867.56,1697.51l1.8-2.1C867.38,1697,867.56,1697.51,867.56,1697.51Z"/><path class="cls-1" d="M1163.67,1692.29s-2.16-3.42-3.78-4.5"/><path class="cls-1" d="M1153.59,1674.82c-23.42-10.09-38.91-36.93-38.91-36.93h-33.89c.53,9.16-6.1,24-6.1,24-4.2,15.61,6.61,17.46,10.33,17.65a16.78,16.78,0,0,1,4.81.91c10.57,3.79,31.34,17.83,31.34,17.83a17.49,17.49,0,0,0,10.8,2.66c3.4-.46,3.06-3.39,3.06-3.39,2,3.07,6.49,2.8,6.49,2.8,4-.72,3.27-3.67,3.27-3.67,2.16,4.32,7.18,2.5,7.18,2.5,3.06-1.27,1.44-4.51,1.44-4.51a6.41,6.41,0,0,0,9.27,2.61c2.62-1.71,1-5,1-5,4.78,3.06,9.39,1.93,11.44-.63C1180.62,1684.79,1153.59,1674.82,1153.59,1674.82ZM1135,1697.51l-1.8-2.1C1135.21,1697,1135,1697.51,1135,1697.51Zm7.39-3.33c1.08.36,2.37,2.46,2.37,2.46Zm9-1.89a19.12,19.12,0,0,1,2,2.34Z"/><path class="cls-1" d="M1153.41,1694.63a19.12,19.12,0,0,0-2-2.34Z"/><path class="cls-1" d="M1142.42,1694.18l2.37,2.46S1143.5,1694.54,1142.42,1694.18Z"/><path class="cls-1" d="M1133.23,1695.41l1.8,2.1S1135.21,1697,1133.23,1695.41Z"/><path class="cls-1" d="M1164.59,1692.29l-3.78-4.5C1162.43,1688.87,1164.59,1692.29,1164.59,1692.29Z"/></g></svg>