<svg xmlns="http://www.w3.org/2000/svg" viewBox="0 0 2000 2000"><defs><style>.cls-1{fill:#fff;}.cls-1,.cls-2,.cls-3{stroke:#44bcce;stroke-linecap:round;stroke-linejoin:round;}.cls-1,.cls-3{stroke-width:4px;}.cls-2{fill:none;stroke-width:2px;}.cls-3{fill:#44bcce;}</style></defs><title>부상파트</title><g id="목"><polyline class="cls-1" points="1003.65 518.07 1003.65 561.32 1048.41 587.98 969.66 623.89 887.86 586.89 934.66 562.82 934.9 518.07 1003.65 518.07"/></g><g id="머리"><path class="cls-1" d="M912.85,437.11S899.19,362.69,958,358.59c1-.07,2.07-.14,3.11-.24,10.35-1.06,82.66-5.52,64.56,79.7,0,0,11.85-8.57,10.41,11.76-.56,7.93-1.45,20.7-14.06,31.86l-.89,11.91s.36,7.93-9,14.77l-22.05,17.86a23.27,23.27,0,0,1-14.66,5.2H963.5a21.52,21.52,0,0,1-11.94-3.62l-21.82-14.54a24.74,24.74,0,0,1-11-19.77l-.3-9.26A50.79,50.79,0,0,1,900.39,457C900.05,455.72,893,430.9,912.85,437.11Z"/><path class="cls-2" d="M904.33,453.88s-2.13-15.31,5.18-10.34c2,1.35,7.65,6,7.65,13.92,0,0,.74,8.23-1,9.79a2.62,2.62,0,0,0-.89.22,3.71,3.71,0,0,0-1,6.14,4.39,4.39,0,0,0,3,1.11"/><path class="cls-2" d="M916.73,453.83s-5.06,4.93-4.59,10.19"/><path class="cls-2" d="M1031.47,453.88s2.13-15.31-5.18-10.34c-2,1.35-7.64,6-7.64,13.92,0,0-.74,8.23,1,9.79a2.62,2.62,0,0,1,.89.22,3.7,3.7,0,0,1,1,6.14,4.39,4.39,0,0,1-3,1.11"/><path class="cls-2" d="M1019.07,453.83s5.07,4.93,4.59,10.19"/></g><g id="얼굴"><path class="cls-1" d="M960.38,399.47c.92-.06,1.83-.18,2.75-.19,15.28-.08,52.55-2.3,46.35,48.91l-3.27,35.68s.26,5-6.49,9.24l-15.89,11.17a18.46,18.46,0,0,1-10.57,3.25h-8.57a17.32,17.32,0,0,1-8.61-2.26l-15.72-9.1a15.12,15.12,0,0,1-7.93-12.36s-3-18.36-3.1-22.72C928.94,432.08,925.42,401.78,960.38,399.47Z"/></g><g id="어깨"><path class="cls-1" d="M887.86,586.89l-47,1.94a21.92,21.92,0,0,0-15.72,7.65l-19.85,23.25a65.4,65.4,0,0,0-15.64,40.72l-1.55,57.93,60-53.5s3.67-82.56,118.56-42.09Z"/><path class="cls-1" d="M1048.41,588l47,1.95a21.85,21.85,0,0,1,15.73,7.65L1131,620.82a65.43,65.43,0,0,1,15.64,40.73l1.54,57.92-60-53.49s-3.67-82.56-118.55-42.09Z"/></g><g id="팔"><path class="cls-1" d="M820.49,810.24l40-78.89-12.43-66.47-60,53.5s-9.24,16.8-10.69,48.19A107.76,107.76,0,0,1,772,795.7l-2.33,7s-33.88,23.45-34.07,66.78a42.8,42.8,0,0,1-.28,4.94c-1.74,13.89-11.11,81.07-34.28,120.65h20l14.08,16.61a.24.24,0,0,0,.42-.19c-3.49-23.61,52.16-104.1,67.42-125.64a81,81,0,0,0,7.4-12.66c19.46-41.95,10.1-62.93,10.1-62.93Z"/><path class="cls-1" d="M1201,874.4a42.8,42.8,0,0,1-.28-4.94c-.18-43.33-34.06-66.78-34.06-66.78h-.41l-2.33-7a107.78,107.78,0,0,1-5.36-29.13c-1.44-31.39-10.69-48.19-10.69-48.19l-60-53.5-12.43,66.47,40,78.89.34.18c-.82,2-8.29,22.94,10.17,62.75a80.27,80.27,0,0,0,7.41,12.66c15.15,21.39,70.14,100.92,67.47,125.14a.39.39,0,0,0,.69.3l13.76-16.22h20C1212.09,955.47,1202.72,888.29,1201,874.4Z"/></g><g id="팔꿈치"><polygon class="cls-1" points="777.38 766.57 835.92 779.8 820.49 810.24 769.7 802.68 777.38 766.57"/><polygon class="cls-1" points="1158.63 766.57 1100.09 779.8 1115.52 810.24 1166.32 802.68 1158.63 766.57"/></g><g id="손목"><path class="cls-1" d="M742.39,985.14s-8.65,17.61-6.65,27.2l-14.67-17.29h-20s9.25-18.41,11.25-23.7h17.52Z"/><path class="cls-1" d="M1194.12,985.14s8.65,17.61,6.65,27.2l14.67-17.29h20s-9.25-18.41-11.25-23.7h-17.52Z"/></g><g id="손"><path class="cls-1" d="M739.47,1030.32l-4.39-6.48a8.61,8.61,0,0,1-.76-8.29l1.42-3.21-14.67-17.29h-20l-12.87,49.2a35.45,35.45,0,0,0-.94,4.91l-.76,6.41,31.83,2a1.61,1.61,0,0,1,2.95.82l.21,5h17.37l2.47-25.75A11.19,11.19,0,0,0,739.47,1030.32Z"/><path class="cls-1" d="M1249.23,1049.16a37,37,0,0,0-.93-4.91l-12.88-49.2h-20l-14.67,17.29,1.41,3.21a8.61,8.61,0,0,1-.75,8.29l-4.39,6.48a11.07,11.07,0,0,0-1.86,7.29l2.9,30.19h16.74l.41-9.44a1.6,1.6,0,0,1,2.94-.82l4.36,6.58H1251Z"/></g><g id="손가락"><path class="cls-1" d="M722.76,1092.69a7.49,7.49,0,0,0,2.94,5.73c3.51,2.58,9.38,2,12.3-26.1l.86-9H721.49Z"/><path class="cls-1" d="M682.45,1089.35a23.22,23.22,0,0,0-.06,4.86l4.88,50.17a5.65,5.65,0,0,0,4.68,5.15c1.89.27,4-.37,5.46-3.54a11,11,0,0,0,.94-4.73l0-3.9-.45-45.37a11.31,11.31,0,0,1,.57-3.61h0a11.25,11.25,0,0,1,1.31-2.73l2.2-3.32,16.39-24.79-31.83-2Z"/><path class="cls-1" d="M698.31,1137.36s8.73-.65,9-12.56a23.43,23.43,0,0,0-.25-3.74l-6-37.24-2.64,4.56h0Z"/><path class="cls-1" d="M1238.18,1137.36s-8.72-.65-9-12.56a24.64,24.64,0,0,1,.24-3.74l6-37.24,2.65,4.56Z"/><path class="cls-1" d="M1198.5,1072.32c2.92,28.08,8.79,28.68,12.3,26.1a7.49,7.49,0,0,0,2.94-5.73l1.07-24.89h-16.74Z"/><path class="cls-1" d="M1254.05,1089.35l-3-25.23h-28.5l12,18.21,2.2,3.32a11.26,11.26,0,0,1,1.87,6.34l-.45,45.37,0,3.9a11,11,0,0,0,.94,4.73c1.45,3.17,3.56,3.81,5.45,3.54a5.67,5.67,0,0,0,4.69-5.15l4.87-50.17A22.56,22.56,0,0,0,1254.05,1089.35Z"/></g><g id="허리"><path class="cls-1" d="M860.48,731.35s17,148,1.69,209.1a13.43,13.43,0,0,0,2.35,11.33l86.23,117.67c4.68,6.23,11.37,10.42,22.64,10.44h0c6.68,0,15.21-5.71,19-12.27,7.67-13.38,51.43-72.57,82.84-114.66,3-4,4.52-10.64,2.84-15.3-4.84-13.4-16.3-81.28-2.61-206.31Z"/><polygon class="cls-1" points="865.98 796.22 867.76 831.87 868.4 868.98 907.61 893.43 907.61 856.71 907.61 856.68 907.61 819.97 907.61 731.35 860.48 731.35 865.98 796.22"/><polygon class="cls-1" points="1032.62 731.35 1032.62 819.97 1032.62 856.68 1032.62 856.71 1032.62 893.43 1071.83 868.98 1072.46 831.87 1074.25 796.22 1075.44 731.35 1032.62 731.35"/></g><g id="배"><polygon class="cls-1" points="970.19 731.35 970.19 778.9 907.61 819.97 907.61 731.35 970.19 731.35"/><path class="cls-1" d="M907.61,856.71s35.23-13.51,62.58-11.88v-65L907.61,820Z"/><path class="cls-1" d="M970.19,898.7s-43.26,6.78-62.58-5.27V856.69s30.73-13.83,62.58-12Z"/><polygon class="cls-1" points="970.04 731.35 970.04 778.9 1032.62 819.97 1032.62 731.35 970.04 731.35"/><path class="cls-1" d="M1032.62,856.71S997.39,843.2,970,844.83v-65L1032.62,820Z"/><path class="cls-1" d="M970,898.7s43.26,6.78,62.58-5.27V856.69s-30.73-13.83-62.58-12Z"/></g><g id="갈비뼈"><path class="cls-1" d="M860.48,731.35l38.35,16.83a33.66,33.66,0,0,0,23.91,1.19l47.45-12V625.16s-58.39-22.75-87.36-8.83c-.7.34-1.4.69-2.12,1-4.83,2.15-31.18,15.32-32.66,47.54Z"/><path class="cls-1" d="M1075.36,731.35,1037,748.18a33.63,33.63,0,0,1-23.9,1.19l-42.92-12V625.16s53.85-22.75,82.82-8.83c.71.34,1.4.69,2.12,1,4.84,2.15,31.19,15.32,32.66,47.54Z"/></g><g id="골반"><path class="cls-1" d="M970.19,1079.87v-181s-37.79,7.51-62.58-5.43L942,1057.09S953.61,1079.89,970.19,1079.87Z"/><path class="cls-1" d="M868.4,869s.55,43-4.62,63.76c0,0-4.67,13.14,1.24,20.22,1,1.19,2,2.35,2.94,3.6l73.22,99L907.61,893.43Z"/><path class="cls-1" d="M970,1079.87v-181s37.79,7.51,62.58-5.43L999.29,1051.9a40.87,40.87,0,0,1-5.42,13.5C989.35,1072.48,981.35,1081.31,970,1079.87Z"/><path class="cls-1" d="M1071.83,869s-.55,43,4.62,63.76c0,0,4.67,13.14-1.24,20.22-1,1.19-2,2.35-2.94,3.6l-74.08,101.08,34.43-164.21Z"/></g><g id="허벅지"><path class="cls-1" d="M929.28,1036.14l-45.23-57.83L865,953l-18.3,64.74a93.83,93.83,0,0,0-3.53,25.48v185.31l4.86,95.11a14,14,0,0,0,13.65-10.74c2.33-10.16,9.06-24.53,28.35-29.25,0,0,21.53,10.69,24.27,40a8,8,0,0,0,2.19,4.78l12.6,13.06v-26.84a276.36,276.36,0,0,1,12.35-81.71l8.85-28.63a121.46,121.46,0,0,0,5.15-27.77l6.62-98.42Z"/><path class="cls-3" d="M1091.93,1017.7,1075.21,953l-20.61,25.35-45.23,57.83-32.81,41.92,6.63,98.42a121.46,121.46,0,0,0,5.15,27.77l8.85,28.63a276.36,276.36,0,0,1,12.35,81.71v26.84l12.59-13.06a8,8,0,0,0,2.2-4.78c2.74-29.29,24.27-40,24.27-40,19.29,4.72,26,19.09,28.35,29.25a14,14,0,0,0,13.65,10.74h0l4.86-95.11V1043.18A93.83,93.83,0,0,0,1091.93,1017.7Z"/></g><g id="무릎"><path class="cls-1" d="M848.05,1323.6s3.7,31,.84,45.88a8.22,8.22,0,0,0,1.4,6.38L862,1392a29.37,29.37,0,0,0,23.8,12.15h7a37.29,37.29,0,0,0,18.55-7.91c1.29-1.35,4.18-2.75,4.36-5.41.42-6.12,3.16-15.79,5.12-21.6,1.06-3.12,2.09-6.26,3-9.42l5.32-18.34-10.72-10a15.66,15.66,0,0,1-4.07-7.8c-1.83-9.14-6.42-29.95-24.27-40,0,0-20.09,1-28.39,27-1.35,4.23-2.29,8.75-6.18,10.9Z"/><path class="cls-1" d="M1090.75,1323.6s-3.7,31-.83,45.88a8.26,8.26,0,0,1-1.41,6.38l-11.66,16.1a29.37,29.37,0,0,1-23.8,12.15h-7a37.23,37.23,0,0,1-18.54-7.91c-1.3-1.35-4.19-2.75-4.37-5.41-.42-6.12-3.16-15.79-5.12-21.6-1.06-3.12-2.08-6.26-3-9.42l-5.33-18.34,10.72-10a15.66,15.66,0,0,0,4.07-7.8c1.83-9.14,6.42-29.95,24.27-40,0,0,20.09,1,28.39,27,1.35,4.23,2.29,8.75,6.18,10.9Z"/></g><g id="정강이"><path class="cls-1" d="M918,1476.32l-2.32-85.53s-2.7,8.62-18.58,13c0,0-22.88,4.46-33-9.15l-13.81-18.73-7.1,29.6c-1.16,6.88-3.51,18.71-3.24,25.67,0,0,7.85,85,10,96.81,2.55,14.17,5.93,32.14,6.25,35,7,64.31,0,84.3,0,84.3,2.85-4.45,3-24.71,3-24.71h32.35l-1.43,24.71,3.78-65.28a140.8,140.8,0,0,1,8.81-41.55l8.24-21.89A111.26,111.26,0,0,0,918,1476.32Z"/><path class="cls-1" d="M1059.48,1622.57H1080c-.46-13.18,0-32.43,3-59.59.31-2.9,3.7-20.87,6.24-35,2.12-11.77,10-96.81,10-96.81.27-7-2.08-18.79-3.24-25.67l-7.11-29.6-13.8,18.73c-10.1,13.61-33,9.15-33,9.15-15.88-4.33-18.59-13-18.59-13l-2.31,85.53a111.06,111.06,0,0,0,7.1,42.24l8.24,21.89a140.8,140.8,0,0,1,8.81,41.55l2.52,40.57Z"/></g><g id="아킬레스건_발목_발" data-name="아킬레스건&amp;발목&amp;발"><polygon class="cls-1" points="879.43 1622.57 879.43 1647.28 890.05 1647.28 891.05 1622.57 879.43 1622.57"/><polygon class="cls-1" points="1047.86 1622.57 1049.29 1647.28 1059.48 1647.28 1059.48 1622.57 1047.86 1622.57"/></g><g id="발목"><path class="cls-1" d="M879.43,1622.57h-20.3s-.12,20.26-3,24.71h23.27Z"/><path class="cls-1" d="M1059.48,1647.28H1083s-.09-.26-.24-.8c-1.39-3.21-2-10.46-2.32-16.14-.17-2.32-.31-4.9-.41-7.77h-20.56Z"/></g><g id="발"><path class="cls-1" d="M856.16,1647.28s-15.49,26.84-38.91,36.93c0,0-27,10-21.52,16.84,2,2.56,6.66,3.69,11.43.63,0,0-1.62,3.24,1,5a6.42,6.42,0,0,0,9.27-2.61s-1.62,3.24,1.44,4.5c0,0,5,1.83,7.18-2.49,0,0-.69,2.94,3.27,3.67,0,0,4.5.27,6.48-2.8a3.14,3.14,0,0,0,3.07,3.39,17.51,17.51,0,0,0,10.8-2.67s20.77-14,31.34-17.82a17.14,17.14,0,0,1,4.81-.92c3.72-.18,14.53-2,10.33-17.64,0,0-6.63-14.8-6.1-24H856.16Zm-49,54.4s2.17-3.42,3.79-4.5Zm10.27,2.34a19.12,19.12,0,0,1,2-2.34Zm8.62,2s1.29-2.1,2.37-2.46Zm9.75.87s-.18-.51,1.81-2.1Z"/><path class="cls-1" d="M807.16,1701.68l3.79-4.5C809.33,1698.26,807.16,1701.68,807.16,1701.68Z"/><path class="cls-1" d="M819.41,1701.68a19.12,19.12,0,0,0-2,2.34Z"/><path class="cls-1" d="M826.05,1706l2.37-2.46C827.34,1703.93,826.05,1706,826.05,1706Z"/><path class="cls-1" d="M835.8,1706.9l1.81-2.1C835.62,1706.39,835.8,1706.9,835.8,1706.9Z"/><path class="cls-1" d="M1131.92,1701.68s-2.16-3.42-3.78-4.5"/><path class="cls-1" d="M1121.84,1684.21c-23.42-10.09-38.91-36.93-38.91-36.93H1049c.52,9.16-6.1,24-6.1,24-4.2,15.61,6.61,17.46,10.32,17.64a17,17,0,0,1,4.81.92c10.58,3.79,31.34,17.82,31.34,17.82a17.53,17.53,0,0,0,10.81,2.67,3.14,3.14,0,0,0,3.06-3.39c2,3.07,6.49,2.8,6.49,2.8,4-.73,3.27-3.67,3.27-3.67,2.16,4.32,7.17,2.49,7.17,2.49,3.07-1.26,1.45-4.5,1.45-4.5a6.42,6.42,0,0,0,9.27,2.61c2.61-1.71,1-5,1-5,4.78,3.06,9.39,1.93,11.44-.63C1148.87,1694.17,1121.84,1684.21,1121.84,1684.21Zm-18.56,22.69-1.8-2.1C1103.46,1706.39,1103.28,1706.9,1103.28,1706.9Zm7.39-3.33c1.08.36,2.37,2.46,2.37,2.46Zm9-1.89a19.8,19.8,0,0,1,2,2.34Z"/><path class="cls-1" d="M1121.66,1704a19.8,19.8,0,0,0-2-2.34Z"/><path class="cls-1" d="M1110.67,1703.57,1113,1706S1111.75,1703.93,1110.67,1703.57Z"/><path class="cls-1" d="M1101.48,1704.8l1.8,2.1S1103.46,1706.39,1101.48,1704.8Z"/><path class="cls-1" d="M1132.84,1701.68l-3.78-4.5C1130.68,1698.26,1132.84,1701.68,1132.84,1701.68Z"/></g></svg>